<svg width="60" height="60" viewBox="0 0 60 60" fill="none" xmlns="http://www.w3.org/2000/svg">
<path d="M30.0001 60C46.5687 60 60 46.5686 60 30C60 13.4314 46.5685 0 30.0001 0C13.4315 0 0 13.4314 0 30C0 46.5686 13.4315 60 30.0001 60Z" fill="#BB9960" fill-opacity="0.3"/>
<path d="M46.677 12.6225C46.677 21.5888 42.2592 29.7424 35.4001 34.5001C28.541 39.2578 22.2001 39.0001 22.2001 39.0001C21.6588 39.0329 20.9128 38.9912 20.2747 38.9648C13.5541 38.6873 8.42379 37.1893 3.90991 33.5931C3.77696 32.5217 3.6001 31.0497 3.6001 29.9425C3.6001 15.3939 15.4208 3.6001 30.0026 3.6001C36.2279 3.6001 41.9396 5.76304 46.4535 9.35925C46.5865 10.4306 46.677 11.515 46.677 12.6225Z" fill="#F95265"/>
<path d="M9.06645 45.8729C6.2921 42.2523 4.42616 37.8997 3.83618 33.1478L3.83594 33.1448C8.34832 36.7408 14.0581 38.9036 20.2816 38.9036C20.8311 38.9036 21.9091 38.8215 21.9091 38.8215C21.9091 38.8215 28.5432 39.2575 35.4001 34.5C42.2569 29.7426 46.6756 21.5286 46.6756 12.5628C46.6756 11.4554 46.5853 10.3714 46.4524 9.30005C46.7437 9.53198 47.0252 9.77536 47.306 10.0192C47.5633 10.2425 47.8142 10.4724 48.0625 10.7053C48.447 11.0659 48.8206 11.4372 49.1829 11.82C49.4347 12.086 49.6818 12.356 49.9227 12.6322C50.1561 12.9 50.389 13.168 50.6115 13.445C50.9568 13.875 51.286 14.3185 51.6044 14.7702C51.7787 15.0173 51.9495 15.2674 52.1153 15.5207C52.4492 16.0304 52.7681 16.5503 53.0666 17.0836C53.1873 17.2988 53.2988 17.5196 53.4135 17.7386C53.6928 18.2719 53.9571 18.8139 54.2 19.3678C54.2785 19.547 54.3541 19.7274 54.4286 19.9088C54.6745 20.5061 54.8959 21.1156 55.0979 21.7337C55.1503 21.894 55.2069 22.053 55.2562 22.2148C55.4672 22.9058 55.6455 23.6106 55.7999 24.3246C55.8348 24.4868 55.8684 24.6501 55.9006 24.8136C56.045 25.5494 56.1614 26.2948 56.2427 27.0513C56.2564 27.1772 56.2644 27.3049 56.2761 27.4313C56.3509 28.2379 56.3998 29.0519 56.3998 29.8783L56.4001 29.8821C56.4001 44.4298 44.5832 56.2229 30.0065 56.2229C29.9988 56.2229 29.9916 56.2219 29.9841 56.2219C29.1141 56.2211 28.2555 56.1749 27.4075 56.092C27.1102 56.0629 26.8217 56.0069 26.5275 55.968L26.4724 55.9608C25.9389 55.8906 25.4058 55.8204 24.8835 55.7177C24.5349 55.6493 24.1958 55.5557 23.8521 55.4736C23.3806 55.3611 22.9088 55.2508 22.4475 55.1132C22.0799 55.0035 21.7224 54.8733 21.3618 54.7481L21.332 54.7378C20.9235 54.5962 20.5157 54.4548 20.1167 54.2935C19.7404 54.1414 19.3732 53.9727 19.0056 53.8037C18.6333 53.6328 18.263 53.4601 17.9005 53.2724C17.5204 53.0756 17.1481 52.8665 16.7793 52.6523C16.4537 52.4631 16.1318 52.2703 15.8151 52.0677C15.433 51.8236 15.0575 51.57 14.6895 51.307C14.4122 51.1089 14.1409 50.905 13.8718 50.6968C13.4891 50.4001 13.1115 50.0975 12.746 49.7807C12.5216 49.5863 12.3043 49.3848 12.0867 49.1827C11.7026 48.8266 11.3224 48.466 10.9601 48.0877C10.794 47.9145 10.6372 47.7339 10.4758 47.5562C10.0871 47.1276 9.70282 46.6951 9.34275 46.2417C9.24725 46.1213 9.15996 45.9948 9.06645 45.8729Z" fill="#EE3658"/>
<path d="M41.3333 37.3649C42.4289 38.4604 42.4289 40.2372 41.3333 41.3327C40.7853 41.8807 40.0671 42.1548 39.3488 42.1548C38.6306 42.1548 37.9124 41.8807 37.365 41.3327L30.0777 34.0455L22.7899 41.3327C22.2424 41.8807 21.5242 42.1548 20.806 42.1548C20.0878 42.1548 19.3696 41.8807 18.8221 41.3327C17.726 40.2372 17.726 38.4604 18.8221 37.3649L26.1099 30.0777L18.8221 22.7899C17.726 21.6944 17.726 19.9176 18.8221 18.8221C19.9176 17.726 21.6944 17.726 22.7899 18.8221L30.0777 26.1093L37.365 18.8221C38.4605 17.726 40.2372 17.726 41.3333 18.8221C42.4289 19.9176 42.4289 21.6944 41.3333 22.7899L34.0455 30.0777L41.3333 37.3649Z" fill="white"/>
</svg>
