<svg width="114" height="127" viewBox="0 0 114 127" fill="none" xmlns="http://www.w3.org/2000/svg">
<path d="M59.1131 100C85.8367 100 107.5 78.3364 107.5 51.6129C107.5 24.8895 85.8363 3.22583 59.1131 3.22583C32.3896 3.22583 10.7258 24.8895 10.7258 51.6129C10.7258 78.3364 32.3896 100 59.1131 100Z" fill="#BB9960" fill-opacity="0.3"/>
<path d="M86.0114 23.5847C86.0114 38.0465 78.8859 51.1975 67.8228 58.8712C56.7597 66.5449 46.5325 66.1292 46.5325 66.1292C45.6594 66.1822 44.4562 66.1149 43.427 66.0724C32.5873 65.6248 24.3126 63.2085 17.0322 57.4082C16.8177 55.6802 16.5325 53.306 16.5325 51.5202C16.5325 28.0547 35.5982 9.03247 59.1172 9.03247C69.158 9.03247 78.3704 12.5211 85.6509 18.3214C85.8653 20.0495 86.0114 21.7984 86.0114 23.5847Z" fill="#F95265"/>
<path d="M25.3492 77.2143C20.8744 71.3746 17.8648 64.3544 16.9132 56.69L16.9128 56.6851C24.1909 62.4851 33.4002 65.9736 43.438 65.9736C44.3245 65.9736 46.0632 65.8411 46.0632 65.8411C46.0632 65.8411 56.7633 66.5442 67.8227 58.871C78.8821 51.1978 86.009 37.9494 86.009 23.4883C86.009 21.7022 85.8634 19.9538 85.6491 18.2258C86.1188 18.5999 86.573 18.9925 87.0258 19.3858C87.4409 19.7458 87.8455 20.1167 88.246 20.4924C88.8662 21.074 89.4687 21.6729 90.0531 22.2902C90.4593 22.7193 90.8578 23.1548 91.2464 23.6003C91.6228 24.0322 91.9985 24.4645 92.3572 24.9113C92.9143 25.6049 93.4451 26.3201 93.9587 27.0486C94.2399 27.4472 94.5154 27.8506 94.7829 28.2592C95.3214 29.0812 95.8358 29.9197 96.3172 30.7799C96.5118 31.1271 96.6916 31.4831 96.8766 31.8363C97.3271 32.6965 97.7534 33.5707 98.1452 34.4642C98.2719 34.7532 98.3937 35.0442 98.514 35.3368C98.9105 36.3001 99.2676 37.2831 99.5934 38.2801C99.6779 38.5386 99.7692 38.7951 99.8488 39.056C100.189 40.1706 100.477 41.3074 100.726 42.4589C100.782 42.7206 100.836 42.9839 100.888 43.2476C101.121 44.4345 101.309 45.6367 101.44 46.8569C101.462 47.06 101.475 47.2659 101.494 47.4698C101.614 48.7707 101.693 50.0836 101.693 51.4166L101.694 51.4226C101.694 74.8867 82.6343 93.9078 59.1234 93.9078C59.111 93.9078 59.0993 93.9062 59.0873 93.9062C57.684 93.905 56.2993 93.8303 54.9314 93.6967C54.452 93.6497 53.9867 93.5594 53.5121 93.4968L53.4231 93.4851C52.5627 93.3718 51.703 93.2587 50.8605 93.093C50.2982 92.9826 49.7513 92.8317 49.197 92.6993C48.4365 92.5178 47.6755 92.34 46.9315 92.1181C46.3386 91.941 45.7619 91.7311 45.1803 91.5292L45.1329 91.5128C44.4739 91.2843 43.8159 91.0562 43.1722 90.7959C42.5653 90.5507 41.9729 90.2785 41.3801 90.006C40.7796 89.7302 40.1823 89.4516 39.5975 89.149C38.9846 88.8315 38.3841 88.4944 37.7893 88.1488C37.264 87.8437 36.7448 87.5326 36.234 87.2059C35.6179 86.8121 35.0122 86.4032 34.4186 85.9789C33.9713 85.6594 33.5337 85.3307 33.0998 84.9947C32.4824 84.5163 31.8735 84.0282 31.2839 83.5172C30.9219 83.2037 30.5716 82.8786 30.2205 82.5527C29.6011 81.9783 28.9878 81.3967 28.4034 80.7866C28.1355 80.5072 27.8825 80.2158 27.6223 79.9292C26.9953 79.2381 26.3756 78.5405 25.7948 77.8092C25.6408 77.6149 25.5 77.411 25.3492 77.2143Z" fill="#EE3658"/>
<path d="M76.1344 62.2337C77.9014 64.0007 77.9014 66.8664 76.1344 68.6334C75.2504 69.5173 74.092 69.9593 72.9336 69.9593C71.7752 69.9593 70.6168 69.5173 69.7338 68.6334L57.9802 56.8798L46.2256 68.6334C45.3426 69.5173 44.1842 69.9593 43.0258 69.9593C41.8674 69.9593 40.709 69.5173 39.826 68.6334C38.058 66.8664 38.058 64.0007 39.826 62.2337L51.5805 50.4801L39.826 38.7256C38.058 36.9586 38.058 34.0929 39.826 32.326C41.593 30.558 44.4586 30.558 46.2256 32.326L57.9802 44.0795L69.7338 32.326C71.5008 30.558 74.3665 30.558 76.1344 32.326C77.9014 34.0929 77.9014 36.9586 76.1344 38.7256L64.3799 50.4801L76.1344 62.2337Z" fill="white"/>
<path d="M4.016 120C3.06667 120 2.32533 119.685 1.792 119.056C1.344 118.512 1.12 117.808 1.12 116.944C1.12 114.971 2.112 113.643 4.096 112.96C6.08 113.643 7.072 114.971 7.072 116.944C7.072 117.936 6.77867 118.709 6.192 119.264C5.68 119.755 5.008 120 4.176 120H4.016ZM3.968 119.008H4.224C4.77867 119.008 5.216 118.827 5.536 118.464C5.856 118.091 6.016 117.584 6.016 116.944C6.016 115.525 5.376 114.523 4.096 113.936C2.816 114.523 2.176 115.525 2.176 116.944C2.176 117.573 2.336 118.075 2.656 118.448C2.976 118.821 3.41333 119.008 3.968 119.008ZM8.3475 120L8.8595 119.008H11.8675C12.3582 119.008 12.6995 118.885 12.8915 118.64C13.0942 118.395 13.1955 117.968 13.1955 117.36C13.1955 115.792 12.5075 114.624 11.1315 113.856L11.6595 112.976C13.3555 113.957 14.2195 115.339 14.2515 117.12C14.2622 118.379 14.8755 119.008 16.0915 119.008H16.5875V120H15.9795C15.0515 120 14.3422 119.691 13.8515 119.072C13.4888 119.691 12.8862 120 12.0435 120H8.3475ZM16.2619 120V119.008H16.8219C17.9952 119.008 18.5819 118.4 18.5819 117.184V113.712L19.6539 113.152V117.216C19.6539 118.112 19.3925 118.811 18.8699 119.312C18.3899 119.771 17.7499 120 16.9499 120H16.2619ZM16.7899 122.992C16.3525 122.992 16.1339 122.768 16.1339 122.32C16.1339 121.893 16.3525 121.68 16.7899 121.68C17.2059 121.68 17.4139 121.893 17.4139 122.32C17.4139 122.768 17.2059 122.992 16.7899 122.992ZM18.6139 122.992C18.1765 122.992 17.9579 122.768 17.9579 122.32C17.9579 121.893 18.1765 121.68 18.6139 121.68C19.0299 121.68 19.2379 121.893 19.2379 122.32C19.2379 122.768 19.0299 122.992 18.6139 122.992ZM25.6766 119.232C25.6766 121.173 24.962 122.389 23.5326 122.88C23.1913 122.997 22.8286 123.056 22.4446 123.056C21.826 123.056 21.2286 122.907 20.6526 122.608V121.664C21.1966 121.963 21.7513 122.112 22.3166 122.112C22.7646 122.112 23.1593 122.011 23.5006 121.808C24.2473 121.36 24.6206 120.523 24.6206 119.296V113.712L25.6766 113.152V119.232ZM27.6694 109.456L27.9734 108.896H28.3734C28.2667 108.715 28.2134 108.523 28.2134 108.32C28.2134 108.021 28.3254 107.76 28.5494 107.536C28.784 107.312 29.0507 107.2 29.3494 107.2C29.584 107.2 29.8134 107.275 30.0374 107.424V108.016C29.8347 107.867 29.632 107.792 29.4294 107.792C29.2587 107.792 29.1094 107.845 28.9814 107.952C28.864 108.059 28.8054 108.187 28.8054 108.336C28.8054 108.528 28.8854 108.715 29.0454 108.896H30.4374L30.1334 109.456H27.6694ZM28.5494 120V110.88L29.6214 110.32V120H28.5494ZM45.3543 120C45.2689 120.917 44.7889 121.659 43.9143 122.224C43.0716 122.768 41.9889 123.04 40.6663 123.04C39.0236 123.04 37.7863 122.56 36.9543 121.6C36.3356 120.885 36.0263 120.005 36.0263 118.96C36.0263 118.043 36.2609 117.253 36.7303 116.592L37.7703 116.384C37.2583 117.163 37.0023 117.995 37.0023 118.88C37.0023 119.861 37.3383 120.645 38.0103 121.232C38.6503 121.797 39.5356 122.08 40.6663 122.08C41.8289 122.08 42.7409 121.835 43.4023 121.344C43.8929 120.981 44.1809 120.533 44.2663 120H42.6343L43.1463 119.008H45.4023V120H45.3543ZM39.6583 125.68C39.2209 125.68 39.0023 125.461 39.0023 125.024C39.0023 124.587 39.2209 124.368 39.6583 124.368C40.0743 124.368 40.2823 124.587 40.2823 125.024C40.2823 125.461 40.0743 125.68 39.6583 125.68ZM41.4823 125.68C41.0556 125.68 40.8423 125.461 40.8423 125.024C40.8423 124.587 41.0556 124.368 41.4823 124.368C41.9089 124.368 42.1223 124.587 42.1223 125.024C42.1223 125.461 41.9089 125.68 41.4823 125.68ZM49.9753 119.008H50.5353V120H49.8473C48.8659 120 48.1353 119.664 47.6553 118.992C47.1539 119.664 46.4126 120 45.4313 120H44.8712V119.008H45.3193C46.5352 119.008 47.1432 118.379 47.1432 117.12V110.24L48.2153 109.68V117.184C48.2153 118.4 48.8019 119.008 49.9753 119.008ZM50.215 120V119.008H50.663C51.879 119.008 52.487 118.379 52.487 117.12V110.24L53.559 109.68V117.136C53.559 118.043 53.2923 118.757 52.759 119.28C52.2577 119.76 51.5963 120 50.775 120H50.215ZM56.44 120V110.24L57.512 109.68V120H56.44ZM68.4769 112.56C68.0502 112.56 67.8369 112.336 67.8369 111.888C67.8369 111.461 68.0502 111.248 68.4769 111.248C68.9035 111.248 69.1169 111.461 69.1169 111.888C69.1169 112.336 68.9035 112.56 68.4769 112.56ZM70.3169 112.56C69.8795 112.56 69.6609 112.336 69.6609 111.888C69.6609 111.461 69.8795 111.248 70.3169 111.248C70.7329 111.248 70.9409 111.461 70.9409 111.888C70.9409 112.336 70.7329 112.56 70.3169 112.56ZM77.0209 119.008H77.5809V120H76.8929C75.9329 120 75.2129 119.675 74.7329 119.024C74.2315 119.675 73.5009 120 72.5409 120H66.8289C66.0395 120 65.4102 119.755 64.9409 119.264C64.4715 118.763 64.2369 118.091 64.2369 117.248V115.152L65.3089 114.592V117.12C65.3089 118.379 65.8955 119.008 67.0689 119.008H72.4289C73.6022 119.008 74.1889 118.379 74.1889 117.12V113.712L75.2609 113.152V117.184C75.2609 118.4 75.8475 119.008 77.0209 119.008ZM82.0858 119.008H82.6458V120H81.9578C80.9978 120 80.2778 119.675 79.7978 119.024C79.2964 119.675 78.5711 120 77.6217 120H76.9337V119.008H77.4938C78.6671 119.008 79.2538 118.4 79.2538 117.184V113.712L80.3258 113.152V117.184C80.3258 118.4 80.9124 119.008 82.0858 119.008ZM78.4538 121.68C78.8804 121.68 79.0938 121.899 79.0938 122.336C79.0938 122.773 78.8804 122.992 78.4538 122.992C78.0271 122.992 77.8138 122.773 77.8138 122.336C77.8138 121.899 78.0271 121.68 78.4538 121.68ZM80.2778 121.68C80.7044 121.68 80.9178 121.899 80.9178 122.336C80.9178 122.773 80.7044 122.992 80.2778 122.992C79.8511 122.992 79.6378 122.773 79.6378 122.336C79.6378 121.899 79.8511 121.68 80.2778 121.68ZM86.0364 111.088C85.599 111.088 85.3804 110.864 85.3804 110.416C85.3804 109.989 85.599 109.776 86.0364 109.776C86.4524 109.776 86.6604 109.989 86.6604 110.416C86.6604 110.864 86.4524 111.088 86.0364 111.088ZM87.8604 111.088C87.423 111.088 87.2044 110.864 87.2044 110.416C87.2044 109.989 87.423 109.776 87.8604 109.776C88.2764 109.776 88.4844 109.989 88.4844 110.416C88.4844 110.864 88.2764 111.088 87.8604 111.088ZM88.6124 119.008H91.5404V120H87.9244C87.5617 120 87.231 119.963 86.9324 119.888C86.6337 119.963 86.303 120 85.9404 120H82.3244V119.008H85.2684C84.4257 118.229 84.0044 117.307 84.0044 116.24C84.0044 115.205 84.2924 114.384 84.8684 113.776C85.391 113.232 86.079 112.96 86.9324 112.96C87.903 112.96 88.655 113.312 89.1884 114.016C89.6364 114.603 89.8604 115.344 89.8604 116.24C89.8604 117.317 89.4444 118.24 88.6124 119.008ZM86.9964 118.864C87.5404 118.672 87.983 118.331 88.3244 117.84C88.6764 117.339 88.8524 116.8 88.8524 116.224C88.8524 115.52 88.6764 114.965 88.3244 114.56C87.983 114.144 87.519 113.936 86.9324 113.936C86.3457 113.936 85.8817 114.144 85.5404 114.56C85.199 114.965 85.0284 115.515 85.0284 116.208C85.0284 116.795 85.199 117.339 85.5404 117.84C85.8817 118.331 86.3244 118.672 86.8684 118.864L86.9324 118.88L86.9644 118.864H86.9964ZM91.215 120V119.008H91.663C92.879 119.008 93.487 118.379 93.487 117.12V110.24L94.559 109.68V117.136C94.559 118.043 94.2923 118.757 93.759 119.28C93.2577 119.76 92.5963 120 91.775 120H91.215ZM103.988 120C103.081 120 102.382 119.707 101.892 119.12C101.486 118.619 101.284 117.984 101.284 117.216V110.24L102.356 109.68V117.184C102.356 118.4 102.942 119.008 104.116 119.008H104.676V120H103.988ZM106.676 115.712C106.676 114.805 106.948 114.101 107.492 113.6C107.961 113.173 108.58 112.96 109.348 112.96C110.34 112.96 111.102 113.323 111.636 114.048C112.094 114.667 112.324 115.477 112.324 116.48C112.324 117.621 112.03 118.512 111.444 119.152C110.932 119.717 110.265 120 109.444 120C108.441 120 107.694 119.68 107.204 119.04C106.724 119.68 106.004 120 105.044 120H104.356V119.008H104.916C106.089 119.008 106.676 118.4 106.676 117.184V115.712ZM107.748 117.248C107.748 118.421 108.324 119.008 109.476 119.008C110.03 119.008 110.468 118.784 110.788 118.336C111.108 117.888 111.268 117.264 111.268 116.464C111.268 115.675 111.097 115.056 110.756 114.608C110.425 114.16 109.956 113.936 109.348 113.936C108.281 113.936 107.748 114.56 107.748 115.808V117.248Z" fill="#BB9960"/>
</svg>
