<svg width="523" height="1506" viewBox="0 0 523 1506" fill="none" xmlns="http://www.w3.org/2000/svg">
<g clip-path="url(#clip0_163_1199)">
<path d="M24.5987 151.072C18.2037 143.579 10.1438 135.82 0 128.172V190.797C1.87439 192.955 3.63853 195.147 5.22625 197.372C5.22625 197.372 38.8992 245.464 8.42375 313.656C8.42375 313.656 40.3987 284.923 46.6614 227.81C49.6604 200.404 43.0449 172.7 24.5987 151.072Z" fill="#015645"/>
<path d="M26.9913 254.396C24.8523 246.582 18.6447 228.33 0.639499 212.026C0.430008 211.838 0.209491 211.65 0 211.473V283.262C6.41704 296.976 7.96066 308.919 8.42375 313.667C12.9002 309.129 20.8499 299.876 25.1941 285.974C29.5162 272.15 28.149 260.439 26.9913 254.407V254.396Z" fill="#015645"/>
<path d="M210.583 185.263C207.661 195.767 206.051 206.724 205.279 217.527C203.912 236.532 205.279 257.805 219.547 272.803C228.808 282.532 241.532 289.062 253.264 295.869C265.381 302.898 277.807 309.45 290.355 315.781C290.355 315.781 338.372 339.501 359.332 368.865C359.332 368.865 393.005 416.958 362.53 485.15C362.53 485.15 394.505 456.416 400.768 399.303C403.767 371.898 397.151 344.194 378.705 322.566C369.553 311.841 357.006 300.562 339.761 289.837C315.064 275.514 289.065 263.007 265.745 246.726C254.047 238.557 243.01 229.459 233.748 218.9C224.585 208.451 218.808 196.265 210.583 185.274" fill="#015645"/>
<path d="M299.892 356.524C308.393 358.306 336.575 367.062 354.746 383.509C372.762 399.813 378.958 418.065 381.097 425.879C382.255 431.922 383.622 443.622 379.3 457.446C374.956 471.348 367.006 480.601 362.53 485.139C361.725 476.949 357.756 447.44 331.084 424.219C314.314 409.608 290.785 404.03 281.159 401.794C288.172 388.435 293.21 375.23 299.903 356.535" fill="#015645"/>
<path d="M294.467 334.133C294.037 333.967 293.563 333.867 293.023 333.834C285.68 369.353 270.618 405.668 239.603 427.705C201.189 455 136.125 447.706 115.066 404.13C94.282 361.14 134.273 313.258 154.34 276.788C180.67 228.928 202.765 175.025 173.084 123.822C163.017 106.467 147.779 92.2884 130.943 80.4674C122.696 74.6786 114.029 69.3879 105.153 64.4625C96.8951 59.8912 87.2144 56.7588 78.6143 53.228C84.3146 56.8585 90.2796 60.1236 95.8587 63.9201C102.132 68.1925 107.789 73.1179 112.971 78.4751C123.478 89.3332 131.825 102.04 136.897 115.864C140.359 125.294 142.255 135.223 142.366 145.184C142.873 190.498 123.181 233.543 99.9713 272.482C82.9915 300.972 67.423 332.86 61.2045 365.025C55.5813 394.068 59.1757 425.89 77.9637 449.731C93.6756 469.677 119.189 482.394 145.729 484.885C172.268 487.375 199.502 479.926 221.201 465.559C262.625 438.132 280.784 390.283 296.606 345.5C298.018 341.505 298.117 335.55 294.489 334.144" fill="#015645"/>
<path d="M51.3033 1357.4C63.4207 1364.42 75.8468 1370.98 88.3942 1377.31C88.3942 1377.31 136.412 1401.03 157.372 1430.39C157.372 1430.39 178.189 1460.13 172.268 1506H187.186C192.401 1493.71 196.855 1478.65 198.807 1460.83C201.806 1433.42 195.191 1405.72 176.744 1384.09C167.593 1373.37 155.045 1362.09 137.801 1351.36C113.103 1337.04 87.1042 1324.53 63.7845 1308.25C52.0861 1300.08 41.0492 1290.99 31.7875 1280.43C22.625 1269.98 16.8475 1257.79 8.62221 1246.8C5.70036 1257.3 4.09059 1268.26 3.31878 1279.06C1.95157 1298.07 3.31878 1319.34 17.5862 1334.34C26.8479 1344.07 39.5718 1350.6 51.3033 1357.41V1357.4Z" fill="#015645"/>
<path d="M146.534 1506H179.986C180.78 1497.99 179.92 1491.43 179.148 1487.42C177.009 1479.6 170.801 1461.35 152.796 1445.05C134.637 1428.61 106.444 1419.85 97.9426 1418.06C91.2499 1436.77 86.2111 1449.96 79.1987 1463.32C88.8242 1465.57 112.364 1471.15 129.124 1485.74C136.544 1492.21 142.2 1499.16 146.522 1505.99L146.534 1506Z" fill="#015645"/>
<path d="M92.5179 1395.67C92.0879 1395.5 91.6138 1395.4 91.0735 1395.37C83.7303 1430.89 68.669 1467.21 37.6533 1489.24C26.7156 1497.01 13.6169 1501.95 0 1504.06V1505.99H43.6513C68.6138 1478.51 82.33 1441.84 94.6238 1407.03C96.0351 1403.03 96.1344 1397.08 92.5069 1395.67H92.5179Z" fill="#015645"/>
<path d="M8.62221 468.813C5.70036 479.317 4.09059 490.275 3.31878 501.077C1.95157 520.082 3.31878 541.355 17.5862 556.353C26.8479 566.082 39.5718 572.612 51.3033 579.42C63.4207 586.448 75.8468 593 88.3942 599.332C88.3942 599.332 136.412 623.051 157.372 652.416C157.372 652.416 191.045 700.508 160.569 768.7C160.569 768.7 192.544 739.967 198.807 682.854C201.806 655.448 195.191 627.744 176.744 606.117C167.593 595.391 155.045 584.113 137.801 573.387C113.103 559.065 87.1042 546.557 63.7845 530.276C52.0861 522.107 41.0492 513.009 31.7875 502.45C22.625 492.001 16.8475 479.815 8.62221 468.824" fill="#015645"/>
<path d="M97.9426 640.075C106.444 641.857 134.626 650.612 152.796 667.059C170.812 683.363 177.009 701.615 179.148 709.429C180.306 715.473 181.673 727.172 177.351 740.996C173.007 754.898 165.057 764.152 160.58 768.69C159.776 760.499 155.806 730.991 129.135 707.769C112.364 693.159 88.8352 687.58 79.2097 685.345C86.2221 671.985 91.2609 658.78 97.9536 640.086" fill="#015645"/>
<path d="M92.5179 617.683C92.0879 617.517 91.6138 617.417 91.0735 617.384C83.7303 652.903 68.669 689.218 37.6533 711.255C26.7156 719.025 13.6169 723.962 0 726.076V759.392C6.74782 756.536 13.1979 753.094 19.2291 749.098C60.6532 721.671 78.8128 673.822 94.6348 629.039C96.0462 625.044 96.1454 619.089 92.5179 617.683Z" fill="#015645"/>
<path d="M0 888.859V1029.05C8.76555 1014.73 18.2809 993.301 21.4122 964.8C24.3781 937.726 17.9501 910.365 0 888.848V888.859Z" fill="#015645"/>
<path d="M0 1022.78C4.24495 1009.03 2.8998 997.407 1.74208 991.397C1.33413 989.892 0.760783 987.999 0 985.818V1022.79V1022.78Z" fill="#015645"/>
<path d="M179.975 902.318C177.053 912.822 175.443 923.78 174.671 934.583C173.304 953.587 174.671 974.861 188.939 989.858C198.201 999.588 210.924 1006.12 222.656 1012.92C234.773 1019.95 247.199 1026.51 259.747 1032.84C259.747 1032.84 307.764 1056.56 328.725 1085.92C328.725 1085.92 362.398 1134.01 331.922 1202.21C331.922 1202.21 363.897 1173.47 370.16 1116.36C373.159 1088.95 366.543 1061.25 348.097 1039.62C338.946 1028.9 326.398 1017.62 309.154 1006.89C284.456 992.57 258.457 980.063 235.137 963.781C223.439 955.613 212.402 946.515 203.14 935.955C193.978 925.507 188.2 913.32 179.975 902.329" fill="#015645"/>
<path d="M269.284 1073.58C277.785 1075.36 305.967 1084.12 324.138 1100.56C342.154 1116.87 348.351 1135.12 350.49 1142.93C351.647 1148.98 353.015 1160.68 348.692 1174.5C344.348 1188.4 336.399 1197.66 331.922 1202.19C331.117 1194 327.148 1164.5 300.476 1141.27C283.706 1126.66 260.177 1121.09 250.551 1118.85C257.564 1105.49 262.603 1092.29 269.295 1073.59" fill="#015645"/>
<path d="M263.86 1051.19C263.43 1051.02 262.955 1050.92 262.415 1050.89C255.072 1086.41 240.011 1122.72 208.995 1144.76C170.581 1172.06 105.517 1164.76 84.458 1121.18C63.6743 1078.2 103.665 1030.31 123.732 993.843C150.062 945.983 172.158 892.08 142.476 840.878C132.409 823.522 117.172 809.344 100.335 797.523C92.0879 791.734 83.4216 786.443 74.5458 781.518C66.2874 776.946 56.6067 773.814 48.0065 770.283C53.7069 773.914 59.6719 777.179 65.251 780.975C71.5247 785.248 77.1809 790.173 82.3631 795.53C92.8707 806.388 101.217 819.095 106.289 832.919C109.751 842.35 111.648 852.278 111.758 862.24C112.265 907.554 92.573 950.599 69.3636 989.537C52.3838 1018.03 36.8153 1049.92 30.5967 1082.08C24.9736 1111.12 28.568 1142.95 47.356 1166.79C63.0679 1186.73 88.5817 1199.45 115.121 1201.94C141.66 1204.43 168.894 1196.98 190.593 1182.61C232.017 1155.19 250.176 1107.34 265.999 1062.56C267.41 1058.56 267.509 1052.6 263.882 1051.2" fill="#015645"/>
<path d="M332.121 599.044C329.199 609.548 327.589 620.506 326.817 631.308C325.45 650.313 326.817 671.586 341.085 686.584C350.346 696.313 363.07 702.843 374.802 709.651C386.919 716.679 399.345 723.231 411.893 729.563C411.893 729.563 459.91 753.282 480.87 782.647C480.87 782.647 514.543 830.739 484.068 898.931C484.068 898.931 516.043 870.198 522.305 813.085C525.304 785.679 518.689 757.975 500.243 736.348C491.091 725.622 478.544 714.344 461.299 703.618C436.602 689.296 410.603 676.788 387.283 660.507C375.584 652.338 364.548 643.24 355.286 632.681C346.123 622.232 340.346 610.046 332.121 599.055" fill="#015645"/>
<path d="M421.43 770.305C429.931 772.087 458.113 780.843 476.283 797.29C494.3 813.594 500.496 831.846 502.635 839.66C503.793 845.703 505.16 857.403 500.838 871.227C496.494 885.129 488.544 894.382 484.068 898.92C483.263 890.73 479.294 861.221 452.622 838C435.852 823.389 412.323 817.811 402.697 815.575C409.709 802.216 414.748 789.011 421.441 770.316" fill="#015645"/>
<path d="M416.005 747.925C415.575 747.759 415.101 747.659 414.561 747.626C407.218 783.145 392.156 819.46 361.141 841.497C322.727 868.792 257.663 861.498 236.604 817.922C215.82 774.932 255.811 727.05 275.878 690.58C302.207 642.72 324.303 588.817 294.622 537.614C284.555 520.259 269.317 506.08 252.481 494.259C244.234 488.471 235.567 483.18 226.691 478.254C218.433 473.683 208.752 470.551 200.152 467.02C205.853 470.65 211.818 473.916 217.397 477.712C223.67 481.985 229.327 486.91 234.509 492.267C245.016 503.125 253.363 515.832 258.435 529.656C261.897 539.086 263.793 549.015 263.904 558.976C264.411 604.29 244.719 647.335 221.509 686.274C204.529 714.764 188.961 746.652 182.742 778.817C177.119 807.86 180.714 839.682 199.502 863.523C215.214 883.469 240.727 896.186 267.267 898.677C293.806 901.167 321.04 893.718 342.738 879.351C384.163 851.924 402.322 804.075 418.144 759.292C419.555 755.297 419.655 749.342 416.027 747.936" fill="#015645"/>
<path d="M173.205 0C172.532 15.208 169.015 32.5632 160.569 51.457C160.569 51.457 179.699 34.2456 191.265 0H173.205Z" fill="#015645"/>
<path d="M138.54 0C156.777 21.1849 159.875 44.3511 160.569 51.457C165.046 46.919 172.996 37.6658 177.34 23.7639C180.217 14.5439 180.57 6.27578 180.14 0H138.54Z" fill="#015645"/>
<path d="M27.73 0C19.1409 4.38309 9.70275 7.33835 0 8.85472V42.1595C6.74782 39.3039 13.1979 35.8616 19.2291 31.8659C32.4932 23.0887 43.3647 12.1974 52.5492 0H27.73Z" fill="#015645"/>
</g>
<defs>
<clipPath id="clip0_163_1199">
<rect width="523" height="1506" fill="white"/>
</clipPath>
</defs>
</svg>
