<svg width="288" height="413" viewBox="0 0 288 413" fill="none" xmlns="http://www.w3.org/2000/svg">
<g opacity="0.5" clip-path="url(#clip0_167_3855)">
<g opacity="0.1">
<path d="M288 157.33C285.951 158.883 283.88 160.416 281.781 161.913C258.953 178.103 233.502 190.54 209.327 204.78C192.449 215.45 180.16 226.66 171.21 237.324C153.155 258.828 146.673 286.377 149.616 313.628C155.744 370.429 187.045 399 187.045 399C157.211 331.188 190.173 283.362 190.173 283.362C210.688 254.167 257.698 230.576 257.698 230.576C267.917 225.333 278.051 219.927 288 214.23V157.33Z" fill="#BB9960"/>
<path d="M248.345 271.102C240.026 272.876 212.433 281.581 194.655 297.927C177.025 314.146 170.955 332.288 168.856 340.064C167.721 346.066 166.388 357.701 170.615 371.458C174.863 385.279 182.649 394.488 187.032 399C187.819 390.862 191.705 361.518 217.816 338.418C234.226 323.895 257.266 318.346 266.69 316.111C259.826 302.823 254.897 289.698 248.345 271.102Z" fill="#BB9960"/>
<path d="M288 323.752C270.328 302.589 260.52 275.345 255.067 248.547C254.542 248.576 254.074 248.675 253.656 248.838C250.103 250.236 250.202 256.16 251.578 260.133C261.194 287.796 271.704 316.629 287.993 341.042V323.752H288Z" fill="#BB9960"/>
<path d="M186.846 -200.774C189.704 -190.33 191.286 -179.432 192.045 -168.691C193.385 -149.797 192.045 -128.634 178.074 -113.728C169.011 -104.05 156.559 -97.5584 145.078 -90.7971C133.221 -83.8087 121.059 -77.2886 108.769 -70.9955C108.769 -70.9955 61.7666 -47.4052 41.2438 -18.2101C41.2438 -18.2101 8.27542 29.616 38.1165 97.4281C38.1165 97.4281 6.81458 68.8573 0.687531 12.0563C-2.25545 -15.1948 4.22617 -42.744 22.2811 -64.2483C31.2377 -74.9118 43.5273 -86.1216 60.3979 -96.7922C84.5729 -111.031 110.024 -123.469 132.852 -139.659C144.305 -147.79 155.112 -156.836 164.168 -167.329C173.139 -177.723 178.798 -189.833 186.846 -200.767" fill="#BB9960"/>
<path d="M99.416 -30.47C91.0977 -28.6963 63.5046 -19.9909 45.7262 -3.64451C28.0968 12.5742 22.0265 30.7156 19.9274 38.4916C18.7927 44.4938 17.4595 56.1292 21.6861 69.8861C25.9339 83.7068 33.7203 92.9158 38.1029 97.4281C38.89 89.2904 42.7762 59.9462 68.8871 36.8456C85.2968 22.3225 108.337 16.7743 117.762 14.5395C110.897 1.25091 105.969 -11.8745 99.416 -30.47Z" fill="#BB9960"/>
<path d="M288 -126.569C268.527 -161.915 253.188 -200.362 253.627 -240.625C253.734 -250.537 255.592 -260.398 258.974 -269.785C263.931 -283.527 272.108 -296.163 282.391 -306.962C284.199 -308.856 286.071 -310.694 288 -312.474V-319.711C280.029 -315.149 272.236 -310.282 264.797 -304.982C248.316 -293.226 233.395 -279.129 223.545 -261.874C194.484 -210.962 216.113 -157.361 241.891 -109.761C261.535 -73.4928 300.68 -25.8725 280.334 16.8666C259.712 60.2017 196.023 67.4597 158.424 40.3149C128.072 18.3991 113.322 -17.7135 106.138 -53.0314C105.614 -53.0031 105.146 -52.9037 104.727 -52.7405C101.174 -51.3428 101.274 -45.4187 102.649 -41.4456C118.13 3.09558 135.916 50.6663 176.465 77.9458C197.697 92.2276 224.361 99.6346 250.337 97.1585C263.527 95.9169 276.455 92.0361 288 85.9275V-126.569Z" fill="#BB9960"/>
</g>
</g>
<defs>
<clipPath id="clip0_167_3855">
<rect width="288" height="412.078" fill="white" transform="matrix(-1 0 0 1 288 0)"/>
</clipPath>
</defs>
</svg>
