<svg width="288" height="413" viewBox="0 0 288 413" fill="none" xmlns="http://www.w3.org/2000/svg">
<g opacity="0.5" clip-path="url(#clip0_185_5240)">
<g opacity="0.5">
<path d="M288 254.748C285.951 253.194 283.88 251.662 281.781 250.165C258.953 233.974 233.502 221.537 209.327 207.298C192.449 196.627 180.16 185.418 171.21 174.754C153.155 153.25 146.673 125.701 149.616 98.4495C155.744 41.6485 187.045 13.0777 187.045 13.0777C157.211 80.8898 190.173 128.716 190.173 128.716C210.688 157.911 257.698 181.501 257.698 181.501C267.917 186.744 278.051 192.151 288 197.848V254.748Z" fill="#BB9960"/>
<path d="M248.345 140.976C240.026 139.202 212.433 130.497 194.655 114.15C177.025 97.9314 170.955 79.79 168.856 72.0141C167.721 66.0119 166.388 54.3764 170.615 40.6196C174.863 26.7989 182.649 17.5898 187.032 13.0775C187.819 21.2152 191.705 50.5594 217.816 73.6601C234.226 88.1831 257.266 93.7313 266.69 95.9662C259.826 109.255 254.897 122.38 248.345 140.976Z" fill="#BB9960"/>
<path d="M288 88.3253C270.328 109.489 260.52 136.733 255.067 163.53C254.542 163.502 254.074 163.403 253.656 163.239C250.103 161.842 250.202 155.918 251.578 151.944C261.194 124.282 271.704 95.4485 287.993 71.0353V88.3253H288Z" fill="#BB9960"/>
<path d="M186.846 612.851C189.704 602.408 191.286 591.51 192.045 580.768C193.385 561.875 192.045 540.711 178.074 525.805C169.011 516.128 156.559 509.636 145.078 502.874C133.221 495.886 121.059 489.366 108.769 483.073C108.769 483.073 61.7666 459.483 41.2438 430.288C41.2438 430.288 8.27542 382.461 38.1165 314.649C38.1165 314.649 6.81458 343.22 0.687531 400.021C-2.25545 427.272 4.22617 454.821 22.2811 476.326C31.2377 486.989 43.5273 498.199 60.3979 508.87C84.5729 523.109 110.024 535.546 132.852 551.736C144.305 559.867 155.112 568.913 164.168 579.406C173.139 589.8 178.798 601.911 186.846 612.844" fill="#BB9960"/>
<path d="M99.416 442.547C91.0977 440.774 63.5046 432.068 45.7262 415.722C28.0968 399.503 22.0265 381.362 19.9274 373.586C18.7927 367.584 17.4595 355.948 21.6861 342.191C25.9339 328.371 33.7203 319.162 38.1029 314.649C38.89 322.787 42.7762 352.131 68.8871 375.232C85.2968 389.755 108.337 395.303 117.762 397.538C110.897 410.826 105.969 423.952 99.416 442.547Z" fill="#BB9960"/>
<path d="M288 538.647C268.527 573.993 253.188 612.44 253.627 652.703C253.734 662.614 255.592 672.476 258.974 681.862C263.931 695.605 272.108 708.241 282.391 719.039C284.199 720.934 286.071 722.771 288 724.552V731.789C280.029 727.227 272.236 722.36 264.797 717.06C248.316 705.304 233.395 691.206 223.545 673.952C194.484 623.039 216.113 569.438 241.891 521.839C261.535 485.57 300.68 437.95 280.334 395.211C259.712 351.876 196.023 344.618 158.424 371.763C128.072 393.678 113.322 429.791 106.138 465.109C105.614 465.081 105.146 464.981 104.727 464.818C101.174 463.42 101.274 457.496 102.649 453.523C118.13 408.982 135.916 361.411 176.465 334.132C197.697 319.85 224.361 312.443 250.337 314.919C263.527 316.161 276.455 320.042 288 326.15V538.647Z" fill="#BB9960"/>
</g>
</g>
<defs>
<clipPath id="clip0_185_5240">
<rect width="288" height="412.078" fill="white" transform="matrix(-1 0 0 -1 288 412.078)"/>
</clipPath>
</defs>
</svg>
