<svg width="623" height="415" viewBox="0 0 623 415" fill="none" xmlns="http://www.w3.org/2000/svg">
<g clip-path="url(#clip0_221_2581)">
<path d="M461.28 172.21H459.39V237.33H461.28V172.21Z" fill="url(#paint0_linear_221_2581)"/>
<path d="M301.24 233.76L298.39 229.04H299.69L301.81 232.5L303.93 229.04H305.23L302.37 233.78V237.28H301.24V233.77V233.76Z" fill="#015645"/>
<path d="M305.14 234.15C305.14 232.4 306.53 230.98 308.24 230.98C309.95 230.98 311.34 232.4 311.34 234.15C311.34 235.9 309.94 237.34 308.24 237.34C306.54 237.34 305.14 235.91 305.14 234.15ZM308.24 236.23C309.35 236.23 310.25 235.31 310.25 234.15C310.25 232.99 309.35 232.1 308.24 232.1C307.13 232.1 306.23 233.02 306.23 234.15C306.23 235.28 307.12 236.23 308.24 236.23Z" fill="#015645"/>
<path d="M312.43 234.21V231.06H313.51V234.21C313.51 235.63 314.26 236.26 315.15 236.26C316.04 236.26 316.79 235.63 316.79 234.21V231.06H317.86V237.26H316.87L316.81 236.15C316.48 236.8 315.82 237.33 314.91 237.33C313.5 237.33 312.43 236.34 312.43 234.2V234.21Z" fill="#015645"/>
<path d="M319.43 231.06H320.42L320.49 232.07C320.84 231.4 321.52 231.01 322.42 231.02C322.57 231.02 322.73 231.03 322.87 231.05L322.65 232.11C322.58 232.1 322.51 232.09 322.44 232.09C321.42 232.09 320.5 232.68 320.5 234.39V237.25H319.43V231.05V231.06Z" fill="#015645"/>
<path d="M327.03 229.03H330.08C331.71 229.03 332.79 230.19 332.79 231.61C332.79 233.03 331.71 234.2 330.08 234.2H328.17V237.26H327.04V229.03H327.03ZM330.06 233.07C331.03 233.07 331.62 232.4 331.62 231.61C331.62 230.82 331.03 230.17 330.06 230.17H328.17V233.07H330.06Z" fill="#015645"/>
<path d="M333.38 234.16C333.38 232.4 334.7 230.97 336.33 230.97C337.32 230.97 338.21 231.58 338.59 232.37L338.65 231.06H339.64V237.26H338.65L338.59 235.96C338.22 236.74 337.32 237.34 336.33 237.34C334.7 237.34 333.38 235.91 333.38 234.16ZM336.5 236.25C337.63 236.25 338.55 235.31 338.55 234.16C338.55 233.01 337.64 232.05 336.5 232.05C335.36 232.05 334.46 233 334.46 234.16C334.46 235.32 335.37 236.25 336.5 236.25Z" fill="#015645"/>
<path d="M341.2 231.06H342.19L342.26 232.07C342.61 231.4 343.29 231.01 344.19 231.02C344.34 231.02 344.5 231.03 344.64 231.05L344.42 232.11C344.35 232.1 344.28 232.09 344.21 232.09C343.19 232.09 342.27 232.68 342.27 234.39V237.25H341.2V231.05V231.06Z" fill="#015645"/>
<path d="M345.96 234.95V232.05H345.15V231.06H346L346.13 229.03H347.03V231.06H348.48V232.05H347.03V234.94C347.03 235.83 347.46 236.29 348.14 236.29C348.29 236.29 348.46 236.27 348.6 236.21L348.87 237.19C348.62 237.3 348.31 237.36 347.99 237.36C346.88 237.36 345.95 236.67 345.95 234.95H345.96Z" fill="#015645"/>
<path d="M350.02 231.06H351.01L351.07 232.15C351.4 231.5 352.05 230.97 352.97 230.97C354.38 230.97 355.45 231.96 355.45 234.1V237.26H354.37V234.1C354.37 232.69 353.62 232.05 352.73 232.05C351.84 232.05 351.09 232.68 351.09 234.1V237.26H350.02V231.06Z" fill="#015645"/>
<path d="M356.52 234.15C356.52 232.4 357.9 230.98 359.59 230.98C361.28 230.98 362.66 232.4 362.66 234.15C362.66 234.3 362.64 234.51 362.63 234.67H357.68C357.85 235.61 358.69 236.32 359.74 236.32C360.49 236.32 361.08 236 361.47 235.52L362.34 236.07C361.77 236.85 360.77 237.34 359.74 237.34C357.9 237.34 356.53 235.91 356.53 234.15H356.52ZM361.55 233.77C361.49 232.81 360.71 232.01 359.6 232.01C358.49 232.01 357.73 232.81 357.66 233.77H361.54H361.55Z" fill="#015645"/>
<path d="M363.87 231.06H364.86L364.93 232.07C365.28 231.4 365.96 231.01 366.86 231.02C367.01 231.02 367.17 231.03 367.31 231.05L367.09 232.11C367.02 232.1 366.95 232.09 366.88 232.09C365.86 232.09 364.94 232.68 364.94 234.39V237.25H363.87V231.05V231.06Z" fill="#015645"/>
<path d="M371.59 237.25V232.05H370.82V231.06H371.59V230.82C371.59 228.95 372.55 228.29 373.7 228.29C373.98 228.29 374.29 228.35 374.51 228.43L374.22 229.41C374.09 229.39 373.92 229.35 373.78 229.35C373.1 229.35 372.65 229.7 372.65 230.82V231.06H374.21V232.05H372.65V237.26H371.58L371.59 237.25Z" fill="#015645"/>
<path d="M374.8 234.15C374.8 232.4 376.19 230.98 377.9 230.98C379.61 230.98 381 232.4 381 234.15C381 235.9 379.6 237.34 377.9 237.34C376.2 237.34 374.8 235.91 374.8 234.15ZM377.9 236.23C379.01 236.23 379.91 235.31 379.91 234.15C379.91 232.99 379.01 232.1 377.9 232.1C376.79 232.1 375.89 233.02 375.89 234.15C375.89 235.28 376.78 236.23 377.9 236.23Z" fill="#015645"/>
<path d="M382.23 231.06H383.22L383.29 232.07C383.64 231.4 384.32 231.01 385.22 231.02C385.37 231.02 385.53 231.03 385.67 231.05L385.45 232.11C385.38 232.1 385.31 232.09 385.24 232.09C384.22 232.09 383.3 232.68 383.3 234.39V237.25H382.23V231.05V231.06Z" fill="#015645"/>
<path d="M389.13 229.03H390.32L392.19 235.28L394.02 229.02H395.03L396.86 235.28L398.73 229.03H399.92L397.48 237.26H396.32L394.54 231L392.75 237.26H391.58L389.14 229.03H389.13Z" fill="#015645"/>
<path d="M400.12 234.15C400.12 232.4 401.5 230.98 403.19 230.98C404.88 230.98 406.26 232.4 406.26 234.15C406.26 234.3 406.24 234.51 406.23 234.67H401.28C401.45 235.61 402.29 236.32 403.34 236.32C404.09 236.32 404.68 236 405.07 235.52L405.94 236.07C405.37 236.85 404.37 237.34 403.34 237.34C401.5 237.34 400.13 235.91 400.13 234.15H400.12ZM405.15 233.77C405.09 232.81 404.31 232.01 403.2 232.01C402.09 232.01 401.33 232.81 401.26 233.77H405.14H405.15Z" fill="#015645"/>
<path d="M407.37 228.47H408.44V237.27H407.37V228.47Z" fill="#015645"/>
<path d="M410.01 228.47H411.08V237.27H410.01V228.47Z" fill="#015645"/>
<path d="M413.7 235.97L413.64 237.27H412.65V228.47H413.72V232.34C414.08 231.56 414.96 230.98 415.94 230.98C417.57 230.98 418.89 232.41 418.89 234.17C418.89 235.93 417.57 237.35 415.94 237.35C414.95 237.35 414.06 236.75 413.7 235.97ZM415.78 236.25C416.9 236.25 417.82 235.31 417.82 234.16C417.82 233.01 416.91 232.05 415.78 232.05C414.65 232.05 413.72 233 413.72 234.16C413.72 235.32 414.63 236.25 415.78 236.25Z" fill="#015645"/>
<path d="M419.75 234.15C419.75 232.4 421.13 230.98 422.82 230.98C424.51 230.98 425.89 232.4 425.89 234.15C425.89 234.3 425.87 234.51 425.86 234.67H420.91C421.07 235.61 421.92 236.32 422.97 236.32C423.72 236.32 424.31 236 424.7 235.52L425.57 236.07C425 236.85 424 237.34 422.97 237.34C421.13 237.34 419.76 235.91 419.76 234.15H419.75ZM424.77 233.77C424.72 232.81 423.93 232.01 422.82 232.01C421.71 232.01 420.95 232.81 420.88 233.77H424.76H424.77Z" fill="#015645"/>
<path d="M427.63 229.03C427.99 229.03 428.3 229.35 428.3 229.73C428.3 230.11 427.99 230.43 427.63 230.43C427.27 230.43 426.95 230.11 426.95 229.73C426.95 229.35 427.26 229.03 427.63 229.03ZM427.1 231.06H428.17V237.26H427.1V231.06Z" fill="#015645"/>
<path d="M429.74 231.06H430.73L430.79 232.15C431.12 231.5 431.77 230.97 432.69 230.97C434.1 230.97 435.17 231.96 435.17 234.1V237.26H434.09V234.1C434.09 232.69 433.34 232.05 432.45 232.05C431.56 232.05 430.81 232.68 430.81 234.1V237.26H429.74V231.06Z" fill="#015645"/>
<path d="M436.59 238.62L437.4 237.97C437.82 238.49 438.51 238.79 439.23 238.79C440.4 238.79 441.41 238.1 441.41 236.48V236.01C441.05 236.76 440.17 237.35 439.19 237.35C437.56 237.35 436.24 235.92 436.24 234.17C436.24 232.42 437.56 230.98 439.19 230.98C440.18 230.98 441.07 231.59 441.45 232.38L441.51 231.07H442.5V236.3C442.5 238.7 441.09 239.85 439.19 239.85C438.17 239.85 437.18 239.39 436.6 238.62H436.59ZM439.36 236.25C440.49 236.25 441.41 235.31 441.41 234.16C441.41 233.01 440.5 232.05 439.36 232.05C438.22 232.05 437.32 233 437.32 234.16C437.32 235.32 438.23 236.25 439.36 236.25Z" fill="#015645"/>
<path d="M305.35 214.11H299.26V172.21H305.35V189.82H325.54V172.21H331.7V214.11H325.54V194.91H305.35V214.11Z" fill="#BB9960"/>
<path d="M353.8 172.21H359.63L374.79 214.11H368.5L365.32 204.65H348.18L344.94 214.11H338.65L353.81 172.21H353.8ZM356.71 179.62L349.89 199.54H363.53L356.71 179.62Z" fill="#BB9960"/>
<path d="M373.19 172.21H379.74L390.46 192.6L401.12 172.21H407.67L393.5 197.63V214.11H387.41V197.63L373.18 172.21H373.19Z" fill="#BB9960"/>
<path d="M421.25 172.21H427.08L442.24 214.11H435.95L432.77 204.65H415.63L412.39 214.11H406.1L421.26 172.21H421.25ZM424.16 179.62L417.34 199.54H430.98L424.16 179.62Z" fill="#BB9960"/>
<path d="M478.39 234.51C478.39 232.99 479.62 231.76 481.14 231.76H483.76V235.09C483.76 235.77 484.02 236.2 484.62 236.2H484.94V237.26H484.62C483.86 237.26 483.35 236.88 483.12 236.23C482.69 236.88 481.98 237.26 481.14 237.26C479.62 237.26 478.39 236.04 478.39 234.51ZM481.14 236.21C482.01 236.21 482.7 235.56 482.7 234.52V232.81H481.14C480.2 232.81 479.45 233.58 479.45 234.52C479.45 235.46 480.21 236.21 481.14 236.21ZM480.36 229.88C480.71 229.88 481.01 230.17 481.01 230.52C481.01 230.87 480.71 231.16 480.36 231.16C480.01 231.16 479.73 230.87 479.73 230.52C479.73 230.17 480.02 229.88 480.36 229.88ZM482.22 229.88C482.57 229.88 482.86 230.17 482.86 230.52C482.86 230.87 482.57 231.16 482.22 231.16C481.87 231.16 481.59 230.87 481.59 230.52C481.59 230.17 481.86 229.88 482.22 229.88Z" fill="#BB9960"/>
<path d="M484.72 236.21H489.12V237.27H484.72V236.21Z" fill="#BB9960"/>
<path d="M488.9 236.21H493.3V237.27H488.9V236.21Z" fill="#BB9960"/>
<path d="M493.08 236.21H493.81C494.4 236.21 494.67 235.78 494.67 235.1V231.77H495.73V235.1C495.73 235.78 495.99 236.21 496.6 236.21H497.33V237.27H496.6C495.94 237.27 495.49 237 495.2 236.52C494.91 236.99 494.46 237.27 493.81 237.27H493.08V236.21Z" fill="#BB9960"/>
<path d="M494.26 238.19C494.6 238.19 494.9 238.48 494.9 238.82C494.9 239.16 494.6 239.46 494.26 239.46C493.92 239.46 493.62 239.17 493.62 238.82C493.62 238.47 493.91 238.19 494.26 238.19Z" fill="#BB9960"/>
<path d="M496.12 238.19C496.46 238.19 496.76 238.48 496.76 238.82C496.76 239.16 496.46 239.46 496.12 239.46C495.78 239.46 495.49 239.17 495.49 238.82C495.49 238.47 495.76 238.19 496.12 238.19Z" fill="#BB9960"/>
<path d="M497.09 236.21H502.91V235.45C502.89 233.83 501.84 232.81 500.26 232.81H498.03V231.76H500.32C502.4 231.76 503.95 233.25 503.96 235.39V236.2H504.89V237.26H497.09V236.2V236.21Z" fill="#BB9960"/>
<path d="M504.68 236.21H505.76V231.76H506.8V233.42C507.57 232.54 508.55 231.76 509.73 231.76C511.28 231.76 512.36 232.95 512.36 234.62V235.1C512.36 236.44 511.66 237.26 510.4 237.26H504.68V236.2V236.21ZM510.4 236.21C511.02 236.21 511.3 235.79 511.3 235.11V234.63C511.3 233.54 510.66 232.82 509.62 232.82C508.58 232.82 507.63 233.72 506.8 234.71V236.22H510.4V236.21Z" fill="#BB9960"/>
<path d="M518.37 234.51C518.37 232.99 519.6 231.76 521.12 231.76H523.87V234.51C523.87 236.03 522.64 237.26 521.12 237.26C519.6 237.26 518.37 236.03 518.37 234.51ZM521.12 236.21C522.07 236.21 522.81 235.45 522.81 234.52V232.81H521.12C520.18 232.81 519.43 233.57 519.43 234.52C519.43 235.47 520.19 236.21 521.12 236.21ZM520.52 229.88C520.86 229.88 521.16 230.17 521.16 230.52C521.16 230.87 520.86 231.16 520.52 231.16C520.18 231.16 519.88 230.87 519.88 230.52C519.88 230.17 520.17 229.88 520.52 229.88ZM522.41 229.88C522.76 229.88 523.05 230.17 523.05 230.52C523.05 230.87 522.76 231.16 522.41 231.16C522.06 231.16 521.78 230.87 521.78 230.52C521.78 230.17 522.06 229.88 522.41 229.88Z" fill="#BB9960"/>
<path d="M525.31 235.1V228.69H526.35V235.1C526.35 235.78 526.62 236.21 527.22 236.21H527.49V237.27H527.22C526.02 237.27 525.31 236.4 525.31 235.1Z" fill="#BB9960"/>
<path d="M527.28 236.21H531.68V237.27H527.28V236.21Z" fill="#BB9960"/>
<path d="M531.46 236.21H535.86V237.27H531.46V236.21Z" fill="#BB9960"/>
<path d="M535.64 236.21H540.04V237.27H535.64V236.21Z" fill="#BB9960"/>
<path d="M539.82 236.21H544.22V237.27H539.82V236.21Z" fill="#BB9960"/>
<path d="M544 236.21H548.4V237.27H544V236.21Z" fill="#BB9960"/>
<path d="M548.18 236.21H548.91C549.5 236.21 549.77 235.78 549.77 235.1V231.77H550.83V235.1C550.83 235.78 551.09 236.21 551.7 236.21H552.43V237.27H551.7C551.04 237.27 550.59 237 550.3 236.52C550.01 236.99 549.56 237.27 548.91 237.27H548.18V236.21Z" fill="#BB9960"/>
<path d="M549.37 238.19C549.71 238.19 550.01 238.48 550.01 238.82C550.01 239.16 549.71 239.46 549.37 239.46C549.03 239.46 548.73 239.17 548.73 238.82C548.73 238.47 549.02 238.19 549.37 238.19Z" fill="#BB9960"/>
<path d="M551.23 238.19C551.57 238.19 551.87 238.48 551.87 238.82C551.87 239.16 551.57 239.46 551.23 239.46C550.89 239.46 550.6 239.17 550.6 238.82C550.6 238.47 550.87 238.19 551.23 238.19Z" fill="#BB9960"/>
<path d="M552.2 236.21H558.02V235.45C558 233.83 556.95 232.81 555.37 232.81H553.14V231.76H555.43C557.51 231.76 559.06 233.25 559.07 235.39V236.2H560V237.26H552.2V236.2V236.21Z" fill="#BB9960"/>
<path d="M559.79 236.21H560.09C560.7 236.21 560.96 235.78 560.96 235.1V228.69H562.02V235.1C562.02 236.4 561.29 237.27 560.09 237.27H559.79V236.21Z" fill="#BB9960"/>
<path d="M568.53 234.03V232.86H569.59V234.03C569.59 235.49 570.3 236.21 571.82 236.21H573.67C574.34 236.21 574.7 235.78 574.7 234.94V228.68H575.74V235.09C575.74 235.77 576.02 236.2 576.61 236.2H576.93V237.26H576.61C575.85 237.26 575.46 236.91 575.22 236.45C574.97 236.91 574.48 237.26 573.66 237.26H571.81C569.69 237.26 568.52 236.07 568.52 234.03H568.53ZM571.17 233.56H571.64C571.51 233.42 571.42 233.22 571.42 233.02C571.42 232.52 571.83 232.15 572.33 232.15C572.62 232.15 572.88 232.28 573.06 232.48L572.75 232.79C572.66 232.69 572.52 232.61 572.34 232.61C572.08 232.61 571.87 232.8 571.87 233.06C571.87 233.32 572.08 233.56 572.34 233.56H573.17V234.02H571.17V233.56Z" fill="#BB9960"/>
<path d="M576.78 236.21H582.49V235.45C582.47 233.83 581.42 232.81 579.83 232.81H577.68V231.76L581.16 228.68H582.58L579.06 231.76H579.89C581.97 231.76 583.53 233.25 583.54 235.39V236.2H584.57V237.26H576.78V236.2V236.21Z" fill="#BB9960"/>
<path d="M584.35 236.21H588.75V237.27H584.35V236.21Z" fill="#BB9960"/>
<path d="M588.53 236.21H592.93V237.27H588.53V236.21Z" fill="#BB9960"/>
<path d="M592.71 236.21H597.11V237.27H592.71V236.21Z" fill="#BB9960"/>
<path d="M596.89 236.21H601.29V237.27H596.89V236.21Z" fill="#BB9960"/>
<path d="M601.07 236.21H605.47V237.27H601.07V236.21Z" fill="#BB9960"/>
<path d="M605.25 236.21H605.9C606.49 236.21 606.8 235.78 606.8 235.1V231.77H607.86V235.1C607.86 236.4 607.1 237.27 605.9 237.27H605.25V236.21Z" fill="#BB9960"/>
<path d="M604.5 238.19C604.84 238.19 605.14 238.48 605.14 238.82C605.14 239.16 604.84 239.46 604.5 239.46C604.16 239.46 603.87 239.17 603.87 238.82C603.87 238.47 604.15 238.19 604.5 238.19Z" fill="#BB9960"/>
<path d="M606.37 238.19C606.71 238.19 607.01 238.48 607.01 238.82C607.01 239.16 606.71 239.46 606.37 239.46C606.03 239.46 605.73 239.17 605.73 238.82C605.73 238.47 606.02 238.19 606.37 238.19Z" fill="#BB9960"/>
<path d="M608 239.64L608.29 238.65C608.42 238.7 608.6 238.73 608.74 238.73C609.59 238.73 609.87 238.19 609.87 237.37V231.77H610.93V236.22H612.14V237.28H610.93V237.59C610.93 238.83 610.31 239.78 608.77 239.78C608.54 239.78 608.21 239.72 608 239.66V239.64Z" fill="#BB9960"/>
<path d="M613.45 236.21H613.77C614.36 236.21 614.64 235.78 614.64 235.1V231.77H615.69V234.96C615.69 235.79 616.15 236.21 616.71 236.21C617.27 236.21 617.72 235.78 617.72 234.96V231.77H618.78V234.96C618.78 235.79 619.23 236.21 619.8 236.21C620.37 236.21 620.81 235.78 620.81 234.96V231.77H621.87V234.96C621.87 236.38 620.95 237.27 619.8 237.27C619.13 237.27 618.58 236.95 618.26 236.38C617.93 236.95 617.37 237.27 616.71 237.27C616.05 237.27 615.53 236.98 615.19 236.44C614.93 236.97 614.45 237.27 613.77 237.27H613.45V236.21ZM617.23 229.91C617.57 229.91 617.86 230.2 617.86 230.54C617.86 230.88 617.57 231.17 617.23 231.17C616.89 231.17 616.61 230.89 616.61 230.54C616.61 230.19 616.88 229.91 617.23 229.91ZM618.17 228.52C618.48 228.52 618.74 228.77 618.74 229.09C618.74 229.41 618.48 229.66 618.17 229.66C617.86 229.66 617.6 229.4 617.6 229.09C617.6 228.78 617.85 228.52 618.17 228.52ZM619.11 229.91C619.45 229.91 619.74 230.2 619.74 230.54C619.74 230.88 619.45 231.17 619.11 231.17C618.77 231.17 618.48 230.89 618.48 230.54C618.48 230.19 618.76 229.91 619.11 229.91Z" fill="#BB9960"/>
<path d="M490.52 215.59C486.62 215.59 483.61 214.33 481.51 211.82C479.71 209.67 478.82 206.93 478.82 203.61V175.29L484.61 172.2V203.41C484.61 207.9 486.81 210.14 491.2 210.14H495.64V215.59H490.53H490.52Z" fill="#015645"/>
<path d="M503.43 210.14H491.59V215.59H503.43V210.14Z" fill="#015645"/>
<path d="M511.23 210.14H499.39V215.59H511.23V210.14Z" fill="#015645"/>
<path d="M519.04 210.14H507.2V215.59H519.04V210.14Z" fill="#015645"/>
<path d="M526.84 210.14H515V215.59H526.84V210.14Z" fill="#015645"/>
<path d="M534.64 210.14H522.8V215.59H534.64V210.14Z" fill="#015645"/>
<path d="M542.45 210.14H530.61V215.59H542.45V210.14Z" fill="#015645"/>
<path d="M550.25 210.14H538.41V215.59H550.25V210.14Z" fill="#015645"/>
<path d="M558.05 210.14H546.21V215.59H558.05V210.14Z" fill="#015645"/>
<path d="M565.85 210.14H554.01V215.59H565.85V210.14Z" fill="#015645"/>
<path d="M585.23 210.14H589.67V215.59H584.56C580.84 215.59 577.9 214.4 575.75 212.02C573.6 214.4 570.66 215.59 566.94 215.59H561.83V210.14H566.27C570.66 210.14 572.86 207.9 572.86 203.41V189.49L578.65 186.4V203.42C578.65 207.9 580.85 210.15 585.24 210.15M566.49 218.06C568.18 218.06 569.03 218.94 569.03 220.7C569.03 222.46 568.18 223.29 566.49 223.29C564.8 223.29 563.9 222.43 563.9 220.7C563.9 218.97 564.76 218.06 566.49 218.06ZM573.2 218.06C574.89 218.06 575.74 218.94 575.74 220.7C575.74 222.46 574.89 223.29 573.2 223.29C571.51 223.29 570.61 222.43 570.61 220.7C570.61 218.97 571.47 218.06 573.2 218.06Z" fill="#015645"/>
<path d="M585.63 215.59V210.14H594.85C603.95 210.14 611.15 207.14 616.44 201.13C612.72 194.27 608.19 190.84 602.85 190.84C599.22 190.84 595.47 192.77 591.62 196.63V191.25C595.39 187.44 599.38 185.53 603.59 185.53C607.04 185.53 610.38 186.77 613.61 189.26C616.84 191.75 619.69 195.31 622.15 199.92V202.88C615.56 211.35 606.43 215.59 594.77 215.59H585.62H585.63Z" fill="#015645"/>
<path d="M117.65 110.65C115.39 119.45 114.14 128.64 113.54 137.69C112.48 153.61 113.54 171.45 124.6 184.01C131.77 192.16 141.63 197.64 150.72 203.34C160.1 209.23 169.74 214.72 179.46 220.03C179.46 220.03 216.67 239.91 232.92 264.51C232.92 264.51 259.02 304.82 235.4 361.97C235.4 361.97 260.18 337.89 265.03 290.02C267.36 267.06 262.23 243.83 247.93 225.71C240.84 216.72 231.11 207.27 217.75 198.28C198.61 186.28 178.46 175.8 160.39 162.15C151.32 155.3 142.77 147.68 135.59 138.83C128.49 130.07 124.01 119.86 117.64 110.65" fill="#BB9960"/>
<g filter="url(#filter0_d_221_2581)">
<path d="M186.86 254.18C193.44 255.68 215.29 263.01 229.36 276.79C243.32 290.45 248.12 305.75 249.78 312.3C250.68 317.36 251.73 327.17 248.39 338.76C245.03 350.41 238.86 358.17 235.39 361.97C234.77 355.11 231.69 330.38 211.02 310.91C198.03 298.67 179.79 293.99 172.33 292.11C177.77 280.91 181.67 269.85 186.85 254.18" fill="#BB9960"/>
</g>
<path d="M57.4049 368.864L35.8098 390.459L57.4049 412.054L78.9999 390.459L57.4049 368.864Z" fill="#015645"/>
<path d="M105.49 368.869L83.8945 390.464L105.49 412.059L127.085 390.464L105.49 368.869Z" fill="#015645"/>
<path d="M182.66 235.42C182.33 235.28 181.96 235.2 181.54 235.17C175.85 264.94 164.18 295.37 140.15 313.84C110.38 336.72 59.9601 330.6 43.6401 294.08C27.5401 258.06 58.5201 217.93 74.0801 187.36C94.4901 147.25 111.6 102.07 88.6001 59.16C80.8001 44.62 69.0001 32.74 55.9501 22.83C49.5601 17.98 42.8401 13.54 35.9601 9.42C29.5401 5.59 22.0401 2.96 15.3801 0C19.8001 3.04 24.4201 5.78 28.7401 8.97C33.6001 12.54 37.9801 16.67 42.0001 21.17C50.1401 30.27 56.6101 40.92 60.5401 52.5C63.2201 60.41 64.6901 68.72 64.7801 77.07C65.1701 115.05 49.9101 151.12 31.9301 183.75C18.7701 207.63 6.71008 234.35 1.88008 261.31C-2.46992 285.65 0.310079 312.31 14.8701 332.3C27.0401 349.01 46.8201 359.68 67.3901 361.76C87.9601 363.84 109.06 357.6 125.87 345.56C157.97 322.57 172.05 282.48 184.3 244.94C185.39 241.59 185.47 236.6 182.66 235.42Z" fill="#015645"/>
<mask id="mask0_221_2581" style="mask-type:luminance" maskUnits="userSpaceOnUse" x="49" y="368" width="31" height="45">
<path d="M57.4002 412.05C59.6002 409.85 79.0002 390.45 79.0002 390.45L57.4002 368.85C57.4002 368.85 39.7902 390.32 57.4002 412.04" fill="white"/>
</mask>
<g mask="url(#mask0_221_2581)">
<path d="M39.9172 366.619L37.3625 411.887L78.8765 414.23L81.4311 368.962L39.9172 366.619Z" fill="url(#paint1_linear_221_2581)"/>
</g>
<mask id="mask1_221_2581" style="mask-type:luminance" maskUnits="userSpaceOnUse" x="97" y="368" width="30" height="45">
<path d="M105.28 412.05C107.47 409.85 126.88 390.45 126.88 390.45L105.28 368.85C105.28 368.85 87.67 390.32 105.28 412.04" fill="white"/>
</mask>
<g mask="url(#mask1_221_2581)">
<path d="M87.7942 366.635L85.2395 411.903L126.753 414.246L129.308 368.978L87.7942 366.635Z" fill="url(#paint2_linear_221_2581)"/>
</g>
<path d="M157.62 155.73L163.61 160.62C167.61 163.89 172.49 165.88 177.64 166.4C187.43 167.39 198.77 167.81 211.31 166.98C223.68 166.15 234.62 164.27 243.87 162.1C244.02 162.07 244.16 162.2 244.12 162.35C243.09 166.62 240.86 173.44 235.73 180.41C229.51 188.86 222.14 193.32 218.08 195.41C220.02 197.02 221.95 198.63 223.89 200.25C229.03 197.27 240.7 189.55 248.13 174.62C252.48 165.88 253.84 157.76 254.26 152.22C254.33 151.24 253.91 150.3 253.13 149.7C251.41 148.39 249.28 146.97 246.71 145.67C243.49 144.04 240.52 143.06 238.15 142.45L235.73 147.47L243.97 150.66C245.5 151.25 245.43 153.43 243.87 153.93C237.49 155.97 230.95 157.44 224.3 158.28C215.91 159.33 206.43 160 196.06 159.87C181.15 159.68 168.15 157.9 157.61 155.76" fill="#015645"/>
<path d="M247.68 109.12C242.75 106.62 237.11 107.84 235.08 111.84C233.79 114.39 234.28 117.46 236.09 120C234.3 122.4 212.02 152.34 211.77 152.5L231.82 151.09L245.04 124.9C248.45 125.09 251.55 123.66 252.95 120.9C254.98 116.9 252.63 111.63 247.7 109.13" fill="#BB9960"/>
<path d="M211.4 148.24C212.04 142.18 213.07 124.7 202.19 107.79C196.7 99.26 190.08 93.83 185.4 90.63C177.93 85.71 166.36 79.33 151.09 75.28C136.78 71.48 124.34 71.09 115.69 71.49C119.98 76.85 124.72 83.7 129.05 92.08C132.2 98.18 134.53 103.93 136.27 109.06H130.85C131.81 113.27 134.36 121.76 141.5 129.83C147.65 136.78 154.43 140.28 158.29 141.93C162.62 144.08 168.13 146.33 174.73 147.89C186.52 150.69 196.69 150.12 203.44 149.15C195.68 137.24 185.22 123.4 171.29 109.42C161.49 99.58 151.83 91.54 143.03 85.04C153.55 89.29 167.19 98.21 181.23 111.05C195.87 124.44 205.42 138.14 211.39 148.25" fill="#015645"/>
</g>
<defs>
<filter id="filter0_d_221_2581" x="169.33" y="242.18" width="98.3477" height="127.79" filterUnits="userSpaceOnUse" color-interpolation-filters="sRGB">
<feFlood flood-opacity="0" result="BackgroundImageFix"/>
<feColorMatrix in="SourceAlpha" type="matrix" values="0 0 0 0 0 0 0 0 0 0 0 0 0 0 0 0 0 0 127 0" result="hardAlpha"/>
<feOffset dx="7" dy="-2"/>
<feGaussianBlur stdDeviation="5"/>
<feColorMatrix type="matrix" values="0 0 0 0 0.00392157 0 0 0 0 0.337255 0 0 0 0 0.270588 0 0 0 0.2 0"/>
<feBlend mode="normal" in2="BackgroundImageFix" result="effect1_dropShadow_221_2581"/>
<feBlend mode="normal" in="SourceGraphic" in2="effect1_dropShadow_221_2581" result="shape"/>
</filter>
<linearGradient id="paint0_linear_221_2581" x1="460.34" y1="237.33" x2="460.34" y2="172.21" gradientUnits="userSpaceOnUse">
<stop stop-color="#BB9960"/>
<stop offset="0.19" stop-color="#B7975F"/>
<stop offset="0.34" stop-color="#AD945E"/>
<stop offset="0.47" stop-color="#9D8E5B"/>
<stop offset="0.6" stop-color="#858558"/>
<stop offset="0.72" stop-color="#667A53"/>
<stop offset="0.84" stop-color="#416D4E"/>
<stop offset="0.95" stop-color="#155D47"/>
<stop offset="1" stop-color="#015645"/>
</linearGradient>
<linearGradient id="paint1_linear_221_2581" x1="9.19295" y1="383.651" x2="56.3068" y2="386.31" gradientUnits="userSpaceOnUse">
<stop stop-color="#BB9960"/>
<stop offset="0.02" stop-color="#B5975F"/>
<stop offset="0.21" stop-color="#7F8357"/>
<stop offset="0.39" stop-color="#527350"/>
<stop offset="0.57" stop-color="#2E664B"/>
<stop offset="0.73" stop-color="#155D47"/>
<stop offset="0.88" stop-color="#065745"/>
<stop offset="1" stop-color="#015645"/>
</linearGradient>
<linearGradient id="paint2_linear_221_2581" x1="57.1409" y1="383.574" x2="104.052" y2="386.221" gradientUnits="userSpaceOnUse">
<stop stop-color="#BB9960"/>
<stop offset="0.02" stop-color="#B5975F"/>
<stop offset="0.21" stop-color="#7F8357"/>
<stop offset="0.39" stop-color="#527350"/>
<stop offset="0.57" stop-color="#2E664B"/>
<stop offset="0.73" stop-color="#155D47"/>
<stop offset="0.88" stop-color="#065745"/>
<stop offset="1" stop-color="#015645"/>
</linearGradient>
<clipPath id="clip0_221_2581">
<rect width="622.15" height="414.26" fill="white"/>
</clipPath>
</defs>
</svg>
