<svg width="324" height="507" viewBox="0 0 324 507" fill="none" xmlns="http://www.w3.org/2000/svg">
<g clip-path="url(#clip0_221_6867)">
<path d="M162.89 438.51H161V503.63H162.89V438.51Z" fill="url(#paint0_linear_221_6867)"/>
<path d="M2.85 500.06L0 495.34H1.3L3.42 498.8L5.54 495.34H6.84L3.98 500.08V503.58H2.85V500.07V500.06Z" fill="#015645"/>
<path d="M6.75 500.46C6.75 498.71 8.14 497.29 9.85 497.29C11.56 497.29 12.95 498.71 12.95 500.46C12.95 502.21 11.55 503.65 9.85 503.65C8.15 503.65 6.75 502.22 6.75 500.46ZM9.86 502.53C10.97 502.53 11.87 501.61 11.87 500.45C11.87 499.29 10.97 498.4 9.86 498.4C8.75 498.4 7.85 499.32 7.85 500.45C7.85 501.58 8.74 502.53 9.86 502.53Z" fill="#015645"/>
<path d="M14.05 500.51V497.36H15.13V500.51C15.13 501.93 15.88 502.56 16.77 502.56C17.66 502.56 18.41 501.93 18.41 500.51V497.36H19.48V503.56H18.49L18.43 502.45C18.1 503.1 17.44 503.63 16.53 503.63C15.12 503.63 14.05 502.64 14.05 500.5V500.51Z" fill="#015645"/>
<path d="M21.04 497.37H22.03L22.1 498.38C22.45 497.71 23.13 497.32 24.03 497.33C24.18 497.33 24.34 497.34 24.48 497.36L24.26 498.42C24.19 498.41 24.12 498.4 24.05 498.4C23.03 498.4 22.11 498.99 22.11 500.7V503.56H21.04V497.36V497.37Z" fill="#015645"/>
<path d="M28.64 495.34H31.69C33.32 495.34 34.4 496.5 34.4 497.92C34.4 499.34 33.32 500.51 31.69 500.51H29.78V503.57H28.65V495.34H28.64ZM31.67 499.37C32.64 499.37 33.23 498.7 33.23 497.91C33.23 497.12 32.64 496.47 31.67 496.47H29.78V499.37H31.67Z" fill="#015645"/>
<path d="M34.99 500.47C34.99 498.71 36.31 497.28 37.94 497.28C38.93 497.28 39.82 497.89 40.2 498.68L40.26 497.37H41.25V503.57H40.26L40.2 502.27C39.83 503.05 38.93 503.65 37.94 503.65C36.31 503.65 34.99 502.22 34.99 500.47ZM38.12 502.55C39.25 502.55 40.17 501.61 40.17 500.46C40.17 499.31 39.26 498.35 38.12 498.35C36.98 498.35 36.08 499.3 36.08 500.46C36.08 501.62 36.99 502.55 38.12 502.55Z" fill="#015645"/>
<path d="M42.8101 497.37H43.8001L43.8701 498.38C44.2201 497.71 44.9001 497.32 45.8001 497.33C45.9501 497.33 46.1101 497.34 46.2501 497.36L46.0301 498.42C45.9601 498.41 45.8901 498.4 45.8201 498.4C44.8001 498.4 43.8801 498.99 43.8801 500.7V503.56H42.8101V497.36V497.37Z" fill="#015645"/>
<path d="M47.57 501.26V498.36H46.76V497.37H47.61L47.74 495.34H48.64V497.37H50.09V498.36H48.64V501.25C48.64 502.14 49.07 502.6 49.75 502.6C49.9 502.6 50.07 502.58 50.21 502.52L50.48 503.5C50.23 503.61 49.92 503.67 49.6 503.67C48.49 503.67 47.56 502.98 47.56 501.26H47.57Z" fill="#015645"/>
<path d="M51.63 497.37H52.62L52.68 498.46C53.01 497.81 53.66 497.28 54.58 497.28C55.99 497.28 57.06 498.27 57.06 500.41V503.57H55.98V500.41C55.98 499 55.23 498.36 54.34 498.36C53.45 498.36 52.7 498.99 52.7 500.41V503.57H51.63V497.37Z" fill="#015645"/>
<path d="M58.13 500.46C58.13 498.71 59.51 497.29 61.2 497.29C62.89 497.29 64.27 498.71 64.27 500.46C64.27 500.61 64.25 500.82 64.24 500.98H59.29C59.46 501.92 60.3 502.63 61.35 502.63C62.1 502.63 62.69 502.31 63.08 501.83L63.95 502.38C63.38 503.16 62.38 503.65 61.35 503.65C59.51 503.65 58.14 502.22 58.14 500.46H58.13ZM63.16 500.07C63.1 499.11 62.32 498.31 61.21 498.31C60.1 498.31 59.34 499.11 59.27 500.07H63.15H63.16Z" fill="#015645"/>
<path d="M65.48 497.37H66.47L66.54 498.38C66.89 497.71 67.57 497.32 68.47 497.33C68.62 497.33 68.78 497.34 68.92 497.36L68.7 498.42C68.63 498.41 68.56 498.4 68.49 498.4C67.47 498.4 66.55 498.99 66.55 500.7V503.56H65.48V497.36V497.37Z" fill="#015645"/>
<path d="M73.2001 503.56V498.36H72.4301V497.37H73.2001V497.13C73.2001 495.26 74.1601 494.6 75.3101 494.6C75.5901 494.6 75.9001 494.66 76.1201 494.74L75.8301 495.72C75.7001 495.7 75.5301 495.66 75.3901 495.66C74.7101 495.66 74.2601 496.01 74.2601 497.13V497.37H75.8201V498.36H74.2601V503.57H73.1901L73.2001 503.56Z" fill="#015645"/>
<path d="M76.42 500.46C76.42 498.71 77.81 497.29 79.52 497.29C81.23 497.29 82.62 498.71 82.62 500.46C82.62 502.21 81.22 503.65 79.52 503.65C77.82 503.65 76.42 502.22 76.42 500.46ZM79.52 502.53C80.63 502.53 81.53 501.61 81.53 500.45C81.53 499.29 80.63 498.4 79.52 498.4C78.41 498.4 77.51 499.32 77.51 500.45C77.51 501.58 78.4 502.53 79.52 502.53Z" fill="#015645"/>
<path d="M83.84 497.37H84.83L84.9 498.38C85.25 497.71 85.93 497.32 86.83 497.33C86.98 497.33 87.14 497.34 87.28 497.36L87.06 498.42C86.99 498.41 86.92 498.4 86.85 498.4C85.83 498.4 84.91 498.99 84.91 500.7V503.56H83.84V497.36V497.37Z" fill="#015645"/>
<path d="M90.75 495.34H91.94L93.81 501.59L95.64 495.33H96.65L98.48 501.59L100.35 495.34H101.54L99.1 503.57H97.94L96.16 497.31L94.37 503.57H93.2L90.76 495.34H90.75Z" fill="#015645"/>
<path d="M101.74 500.46C101.74 498.71 103.12 497.29 104.81 497.29C106.5 497.29 107.88 498.71 107.88 500.46C107.88 500.61 107.86 500.82 107.85 500.98H102.9C103.07 501.92 103.91 502.63 104.96 502.63C105.71 502.63 106.3 502.31 106.69 501.83L107.56 502.38C106.99 503.16 105.99 503.65 104.96 503.65C103.12 503.65 101.75 502.22 101.75 500.46H101.74ZM106.77 500.07C106.71 499.11 105.93 498.31 104.82 498.31C103.71 498.31 102.95 499.11 102.88 500.07H106.76H106.77Z" fill="#015645"/>
<path d="M108.99 494.77H110.06V503.57H108.99V494.77Z" fill="#015645"/>
<path d="M111.63 494.77H112.7V503.57H111.63V494.77Z" fill="#015645"/>
<path d="M115.31 502.27L115.25 503.57H114.26V494.77H115.33V498.64C115.69 497.86 116.57 497.28 117.55 497.28C119.18 497.28 120.5 498.71 120.5 500.47C120.5 502.23 119.18 503.65 117.55 503.65C116.56 503.65 115.67 503.05 115.31 502.27ZM117.39 502.55C118.51 502.55 119.43 501.61 119.43 500.46C119.43 499.31 118.52 498.35 117.39 498.35C116.26 498.35 115.33 499.3 115.33 500.46C115.33 501.62 116.24 502.55 117.39 502.55Z" fill="#015645"/>
<path d="M121.36 500.46C121.36 498.71 122.74 497.29 124.43 497.29C126.12 497.29 127.5 498.71 127.5 500.46C127.5 500.61 127.48 500.82 127.47 500.98H122.52C122.68 501.92 123.53 502.63 124.58 502.63C125.33 502.63 125.92 502.31 126.31 501.83L127.18 502.38C126.61 503.16 125.61 503.65 124.58 503.65C122.74 503.65 121.37 502.22 121.37 500.46H121.36ZM126.39 500.07C126.34 499.11 125.55 498.31 124.44 498.31C123.33 498.31 122.57 499.11 122.5 500.07H126.38H126.39Z" fill="#015645"/>
<path d="M129.25 495.34C129.61 495.34 129.92 495.66 129.92 496.04C129.92 496.42 129.61 496.74 129.25 496.74C128.89 496.74 128.57 496.42 128.57 496.04C128.57 495.66 128.88 495.34 129.25 495.34ZM128.71 497.37H129.78V503.57H128.71V497.37Z" fill="#015645"/>
<path d="M131.35 497.37H132.34L132.4 498.46C132.73 497.81 133.38 497.28 134.3 497.28C135.71 497.28 136.78 498.27 136.78 500.41V503.57H135.7V500.41C135.7 499 134.95 498.36 134.06 498.36C133.17 498.36 132.42 498.99 132.42 500.41V503.57H131.35V497.37Z" fill="#015645"/>
<path d="M138.2 504.92L139.01 504.27C139.43 504.79 140.12 505.09 140.84 505.09C142.01 505.09 143.02 504.4 143.02 502.78V502.31C142.66 503.06 141.78 503.65 140.8 503.65C139.17 503.65 137.85 502.22 137.85 500.47C137.85 498.72 139.17 497.28 140.8 497.28C141.79 497.28 142.68 497.89 143.06 498.68L143.12 497.37H144.11V502.6C144.11 505 142.7 506.15 140.8 506.15C139.78 506.15 138.79 505.69 138.21 504.92H138.2ZM140.97 502.55C142.1 502.55 143.02 501.61 143.02 500.46C143.02 499.31 142.11 498.35 140.97 498.35C139.83 498.35 138.93 499.3 138.93 500.46C138.93 501.62 139.84 502.55 140.97 502.55Z" fill="#015645"/>
<path d="M6.96 480.41H0.869995V438.51H6.96V456.12H27.15V438.51H33.31V480.41H27.15V461.21H6.96V480.41Z" fill="#BB9960"/>
<path d="M55.41 438.51H61.24L76.4 480.41H70.11L66.93 470.95H49.79L46.55 480.41H40.26L55.42 438.51H55.41ZM58.32 445.92L51.5 465.84H65.14L58.32 445.92Z" fill="#BB9960"/>
<path d="M74.81 438.51H81.36L92.08 458.9L102.74 438.51H109.29L95.12 463.93V480.41H89.03V463.93L74.8 438.51H74.81Z" fill="#BB9960"/>
<path d="M122.86 438.51H128.69L143.85 480.41H137.56L134.38 470.95H117.24L114 480.41H107.71L122.87 438.51H122.86ZM125.77 445.92L118.95 465.84H132.59L125.77 445.92Z" fill="#BB9960"/>
<path d="M180 500.82C180 499.3 181.23 498.07 182.75 498.07H185.37V501.4C185.37 502.08 185.63 502.51 186.23 502.51H186.55V503.57H186.23C185.47 503.57 184.96 503.19 184.73 502.54C184.3 503.19 183.59 503.57 182.75 503.57C181.23 503.57 180 502.35 180 500.82ZM182.75 502.51C183.62 502.51 184.31 501.86 184.31 500.82V499.11H182.75C181.81 499.11 181.06 499.88 181.06 500.82C181.06 501.76 181.82 502.51 182.75 502.51ZM181.97 496.19C182.32 496.19 182.62 496.48 182.62 496.83C182.62 497.18 182.32 497.47 181.97 497.47C181.62 497.47 181.34 497.18 181.34 496.83C181.34 496.48 181.63 496.19 181.97 496.19ZM183.83 496.19C184.18 496.19 184.47 496.48 184.47 496.83C184.47 497.18 184.18 497.47 183.83 497.47C183.48 497.47 183.2 497.18 183.2 496.83C183.2 496.48 183.47 496.19 183.83 496.19Z" fill="#BB9960"/>
<path d="M186.33 502.51H190.73V503.57H186.33V502.51Z" fill="#BB9960"/>
<path d="M190.51 502.51H194.91V503.57H190.51V502.51Z" fill="#BB9960"/>
<path d="M194.69 502.51H195.42C196.01 502.51 196.28 502.08 196.28 501.4V498.07H197.34V501.4C197.34 502.08 197.6 502.51 198.21 502.51H198.94V503.57H198.21C197.55 503.57 197.1 503.3 196.81 502.82C196.52 503.29 196.07 503.57 195.42 503.57H194.69V502.51Z" fill="#BB9960"/>
<path d="M195.88 504.49C196.22 504.49 196.52 504.78 196.52 505.12C196.52 505.46 196.22 505.76 195.88 505.76C195.54 505.76 195.24 505.47 195.24 505.12C195.24 504.77 195.53 504.49 195.88 504.49Z" fill="#BB9960"/>
<path d="M197.74 504.49C198.08 504.49 198.38 504.78 198.38 505.12C198.38 505.46 198.08 505.76 197.74 505.76C197.4 505.76 197.11 505.47 197.11 505.12C197.11 504.77 197.38 504.49 197.74 504.49Z" fill="#BB9960"/>
<path d="M198.7 502.51H204.52V501.75C204.5 500.13 203.45 499.11 201.87 499.11H199.64V498.06H201.93C204.01 498.06 205.56 499.55 205.57 501.69V502.5H206.5V503.56H198.7V502.5V502.51Z" fill="#BB9960"/>
<path d="M206.29 502.51H207.37V498.06H208.41V499.72C209.18 498.84 210.16 498.06 211.34 498.06C212.89 498.06 213.97 499.25 213.97 500.92V501.4C213.97 502.74 213.27 503.56 212.01 503.56H206.29V502.5V502.51ZM212.02 502.51C212.64 502.51 212.92 502.09 212.92 501.41V500.93C212.92 499.84 212.28 499.12 211.24 499.12C210.2 499.12 209.25 500.02 208.42 501.01V502.52H212.02V502.51Z" fill="#BB9960"/>
<path d="M219.99 500.82C219.99 499.3 221.22 498.07 222.74 498.07H225.49V500.82C225.49 502.34 224.26 503.57 222.74 503.57C221.22 503.57 219.99 502.34 219.99 500.82ZM222.74 502.51C223.69 502.51 224.43 501.75 224.43 500.82V499.11H222.74C221.8 499.11 221.05 499.87 221.05 500.82C221.05 501.77 221.81 502.51 222.74 502.51ZM222.13 496.19C222.47 496.19 222.77 496.48 222.77 496.83C222.77 497.18 222.47 497.47 222.13 497.47C221.79 497.47 221.49 497.18 221.49 496.83C221.49 496.48 221.78 496.19 222.13 496.19ZM224.02 496.19C224.37 496.19 224.66 496.48 224.66 496.83C224.66 497.18 224.37 497.47 224.02 497.47C223.67 497.47 223.39 497.18 223.39 496.83C223.39 496.48 223.67 496.19 224.02 496.19Z" fill="#BB9960"/>
<path d="M226.93 501.4V494.99H227.97V501.4C227.97 502.08 228.24 502.51 228.84 502.51H229.11V503.57H228.84C227.64 503.57 226.93 502.7 226.93 501.4Z" fill="#BB9960"/>
<path d="M228.9 502.51H233.3V503.57H228.9V502.51Z" fill="#BB9960"/>
<path d="M233.08 502.51H237.48V503.57H233.08V502.51Z" fill="#BB9960"/>
<path d="M237.26 502.51H241.66V503.57H237.26V502.51Z" fill="#BB9960"/>
<path d="M241.44 502.51H245.84V503.57H241.44V502.51Z" fill="#BB9960"/>
<path d="M245.62 502.51H250.02V503.57H245.62V502.51Z" fill="#BB9960"/>
<path d="M249.8 502.51H250.53C251.12 502.51 251.39 502.08 251.39 501.4V498.07H252.45V501.4C252.45 502.08 252.71 502.51 253.32 502.51H254.05V503.57H253.32C252.66 503.57 252.21 503.3 251.92 502.82C251.63 503.29 251.18 503.57 250.53 503.57H249.8V502.51Z" fill="#BB9960"/>
<path d="M250.98 504.49C251.32 504.49 251.62 504.78 251.62 505.12C251.62 505.46 251.32 505.76 250.98 505.76C250.64 505.76 250.34 505.47 250.34 505.12C250.34 504.77 250.63 504.49 250.98 504.49Z" fill="#BB9960"/>
<path d="M252.84 504.49C253.18 504.49 253.48 504.78 253.48 505.12C253.48 505.46 253.18 505.76 252.84 505.76C252.5 505.76 252.21 505.47 252.21 505.12C252.21 504.77 252.48 504.49 252.84 504.49Z" fill="#BB9960"/>
<path d="M253.81 502.51H259.63V501.75C259.61 500.13 258.56 499.11 256.98 499.11H254.75V498.06H257.04C259.12 498.06 260.67 499.55 260.68 501.69V502.5H261.61V503.56H253.81V502.5V502.51Z" fill="#BB9960"/>
<path d="M261.4 502.51H261.7C262.31 502.51 262.57 502.08 262.57 501.4V494.99H263.63V501.4C263.63 502.7 262.9 503.57 261.7 503.57H261.4V502.51Z" fill="#BB9960"/>
<path d="M270.14 500.33V499.16H271.2V500.33C271.2 501.79 271.91 502.51 273.43 502.51H275.28C275.95 502.51 276.31 502.08 276.31 501.24V494.98H277.35V501.39C277.35 502.07 277.63 502.5 278.22 502.5H278.54V503.56H278.22C277.46 503.56 277.07 503.21 276.83 502.75C276.58 503.21 276.09 503.56 275.27 503.56H273.42C271.3 503.56 270.13 502.37 270.13 500.33H270.14ZM272.78 499.86H273.25C273.12 499.72 273.03 499.52 273.03 499.32C273.03 498.82 273.44 498.45 273.94 498.45C274.23 498.45 274.49 498.58 274.67 498.78L274.36 499.09C274.27 498.99 274.13 498.91 273.95 498.91C273.69 498.91 273.48 499.1 273.48 499.36C273.48 499.62 273.69 499.86 273.95 499.86H274.78V500.32H272.78V499.86Z" fill="#BB9960"/>
<path d="M278.39 502.51H284.1V501.75C284.08 500.13 283.03 499.11 281.44 499.11H279.29V498.06L282.77 494.98H284.19L280.67 498.06H281.5C283.58 498.06 285.14 499.55 285.15 501.69V502.5H286.18V503.56H278.39V502.5V502.51Z" fill="#BB9960"/>
<path d="M285.96 502.51H290.36V503.57H285.96V502.51Z" fill="#BB9960"/>
<path d="M290.14 502.51H294.54V503.57H290.14V502.51Z" fill="#BB9960"/>
<path d="M294.32 502.51H298.72V503.57H294.32V502.51Z" fill="#BB9960"/>
<path d="M298.5 502.51H302.9V503.57H298.5V502.51Z" fill="#BB9960"/>
<path d="M302.68 502.51H307.08V503.57H302.68V502.51Z" fill="#BB9960"/>
<path d="M306.86 502.51H307.51C308.1 502.51 308.41 502.08 308.41 501.4V498.07H309.47V501.4C309.47 502.7 308.71 503.57 307.51 503.57H306.86V502.51Z" fill="#BB9960"/>
<path d="M306.11 504.49C306.45 504.49 306.75 504.78 306.75 505.12C306.75 505.46 306.45 505.76 306.11 505.76C305.77 505.76 305.48 505.47 305.48 505.12C305.48 504.77 305.76 504.49 306.11 504.49Z" fill="#BB9960"/>
<path d="M307.98 504.49C308.32 504.49 308.62 504.78 308.62 505.12C308.62 505.46 308.32 505.76 307.98 505.76C307.64 505.76 307.34 505.47 307.34 505.12C307.34 504.77 307.63 504.49 307.98 504.49Z" fill="#BB9960"/>
<path d="M309.61 505.94L309.9 504.95C310.03 505 310.21 505.03 310.35 505.03C311.2 505.03 311.48 504.49 311.48 503.67V498.07H312.54V502.52H313.75V503.58H312.54V503.89C312.54 505.13 311.92 506.08 310.38 506.08C310.15 506.08 309.82 506.02 309.61 505.96V505.94Z" fill="#BB9960"/>
<path d="M315.07 502.51H315.39C315.98 502.51 316.26 502.08 316.26 501.4V498.07H317.31V501.26C317.31 502.09 317.77 502.51 318.33 502.51C318.89 502.51 319.34 502.08 319.34 501.26V498.07H320.4V501.26C320.4 502.09 320.85 502.51 321.42 502.51C321.99 502.51 322.43 502.08 322.43 501.26V498.07H323.49V501.26C323.49 502.68 322.57 503.57 321.42 503.57C320.75 503.57 320.2 503.25 319.88 502.68C319.55 503.25 318.99 503.57 318.33 503.57C317.67 503.57 317.15 503.28 316.81 502.74C316.55 503.27 316.07 503.57 315.39 503.57H315.07V502.51ZM318.84 496.21C319.18 496.21 319.47 496.5 319.47 496.84C319.47 497.18 319.18 497.47 318.84 497.47C318.5 497.47 318.22 497.19 318.22 496.84C318.22 496.49 318.49 496.21 318.84 496.21ZM319.79 494.82C320.1 494.82 320.36 495.07 320.36 495.39C320.36 495.71 320.1 495.96 319.79 495.96C319.48 495.96 319.22 495.7 319.22 495.39C319.22 495.08 319.47 494.82 319.79 494.82ZM320.72 496.21C321.06 496.21 321.35 496.5 321.35 496.84C321.35 497.18 321.06 497.47 320.72 497.47C320.38 497.47 320.09 497.19 320.09 496.84C320.09 496.49 320.37 496.21 320.72 496.21Z" fill="#BB9960"/>
<path d="M192.13 481.9C188.23 481.9 185.22 480.64 183.12 478.13C181.32 475.98 180.43 473.24 180.43 469.92V441.6L186.22 438.51V469.72C186.22 474.21 188.42 476.45 192.81 476.45H197.25V481.9H192.14H192.13Z" fill="#015645"/>
<path d="M205.04 476.45H193.2V481.9H205.04V476.45Z" fill="#015645"/>
<path d="M212.85 476.45H201.01V481.9H212.85V476.45Z" fill="#015645"/>
<path d="M220.65 476.45H208.81V481.9H220.65V476.45Z" fill="#015645"/>
<path d="M228.45 476.45H216.61V481.9H228.45V476.45Z" fill="#015645"/>
<path d="M236.26 476.45H224.42V481.9H236.26V476.45Z" fill="#015645"/>
<path d="M244.06 476.45H232.22V481.9H244.06V476.45Z" fill="#015645"/>
<path d="M251.86 476.45H240.02V481.9H251.86V476.45Z" fill="#015645"/>
<path d="M259.67 476.45H247.83V481.9H259.67V476.45Z" fill="#015645"/>
<path d="M267.47 476.45H255.63V481.9H267.47V476.45Z" fill="#015645"/>
<path d="M286.84 476.45H291.28V481.9H286.17C282.45 481.9 279.51 480.71 277.36 478.33C275.21 480.71 272.27 481.9 268.55 481.9H263.44V476.45H267.88C272.27 476.45 274.47 474.21 274.47 469.72V455.8L280.26 452.71V469.73C280.26 474.21 282.46 476.46 286.85 476.46M268.1 484.36C269.79 484.36 270.64 485.24 270.64 487C270.64 488.76 269.79 489.59 268.1 489.59C266.41 489.59 265.51 488.73 265.51 487C265.51 485.27 266.37 484.36 268.1 484.36ZM274.82 484.36C276.51 484.36 277.36 485.24 277.36 487C277.36 488.76 276.51 489.59 274.82 489.59C273.13 489.59 272.23 488.73 272.23 487C272.23 485.27 273.09 484.36 274.82 484.36Z" fill="#015645"/>
<path d="M287.24 481.9V476.45H296.46C305.56 476.45 312.76 473.45 318.05 467.44C314.33 460.58 309.8 457.15 304.46 457.15C300.83 457.15 297.08 459.08 293.23 462.94V457.56C297 453.75 300.99 451.84 305.2 451.84C308.65 451.84 311.99 453.08 315.22 455.57C318.45 458.06 321.3 461.62 323.76 466.23V469.19C317.17 477.66 308.04 481.9 296.38 481.9H287.23H287.24Z" fill="#015645"/>
<path d="M146.81 110.65C144.55 119.45 143.3 128.64 142.7 137.69C141.64 153.61 142.7 171.45 153.76 184.01C160.93 192.16 170.79 197.64 179.88 203.34C189.26 209.23 198.9 214.72 208.62 220.03C208.62 220.03 245.83 239.91 262.08 264.51C262.08 264.51 288.18 304.82 264.56 361.97C264.56 361.97 289.34 337.89 294.19 290.02C296.52 267.06 291.39 243.83 277.09 225.71C270 216.72 260.27 207.27 246.91 198.28C227.77 186.28 207.62 175.8 189.55 162.15C180.48 155.3 171.93 147.68 164.75 138.83C157.65 130.07 153.17 119.86 146.8 110.65" fill="#BB9960"/>
<g filter="url(#filter0_d_221_6867)">
<path d="M216.03 254.18C222.61 255.68 244.46 263.01 258.53 276.79C272.49 290.45 277.29 305.75 278.95 312.3C279.85 317.36 280.9 327.17 277.56 338.76C274.2 350.41 268.03 358.17 264.56 361.97C263.94 355.11 260.86 330.38 240.19 310.91C227.2 298.67 208.96 293.99 201.5 292.11C206.94 280.91 210.84 269.85 216.02 254.18" fill="#BB9960"/>
</g>
<path d="M86.5711 368.868L64.9761 390.463L86.5711 412.058L108.166 390.463L86.5711 368.868Z" fill="#015645"/>
<path d="M134.666 368.863L113.071 390.458L134.666 412.053L156.261 390.458L134.666 368.863Z" fill="#015645"/>
<path d="M211.82 235.42C211.49 235.28 211.12 235.2 210.7 235.17C205.01 264.94 193.34 295.37 169.31 313.84C139.54 336.72 89.12 330.6 72.8 294.08C56.7 258.06 87.68 217.93 103.24 187.36C123.65 147.25 140.76 102.07 117.76 59.16C109.96 44.62 98.16 32.74 85.11 22.83C78.72 17.98 72 13.54 65.12 9.42C58.72 5.59 51.22 2.96 44.55 0C48.97 3.04 53.59 5.78 57.91 8.97C62.77 12.54 67.15 16.67 71.17 21.17C79.31 30.27 85.78 40.92 89.71 52.5C92.39 60.41 93.86 68.72 93.95 77.07C94.34 115.05 79.08 151.12 61.1 183.75C47.94 207.63 35.88 234.35 31.05 261.31C26.7 285.65 29.48 312.31 44.04 332.3C56.21 349.01 75.99 359.68 96.56 361.76C117.13 363.84 138.23 357.6 155.04 345.56C187.14 322.57 201.22 282.48 213.47 244.94C214.56 241.59 214.64 236.6 211.83 235.42" fill="#015645"/>
<mask id="mask0_221_6867" style="mask-type:luminance" maskUnits="userSpaceOnUse" x="78" y="368" width="31" height="45">
<path d="M86.57 412.05C88.77 409.85 108.17 390.45 108.17 390.45L86.57 368.85C86.57 368.85 68.96 390.32 86.57 412.04" fill="white"/>
</mask>
<g mask="url(#mask0_221_6867)">
<path d="M69.0799 366.626L66.5253 411.894L108.039 414.236L110.594 368.968L69.0799 366.626Z" fill="url(#paint1_linear_221_6867)"/>
</g>
<mask id="mask1_221_6867" style="mask-type:luminance" maskUnits="userSpaceOnUse" x="126" y="368" width="31" height="45">
<path d="M134.45 412.05C136.64 409.85 156.05 390.45 156.05 390.45L134.45 368.85C134.45 368.85 116.84 390.32 134.45 412.04" fill="white"/>
</mask>
<g mask="url(#mask1_221_6867)">
<path d="M116.958 366.632L114.403 411.9L155.917 414.242L158.472 368.974L116.958 366.632Z" fill="url(#paint2_linear_221_6867)"/>
</g>
<path d="M186.78 155.73L192.77 160.62C196.77 163.89 201.65 165.88 206.8 166.4C216.59 167.39 227.93 167.81 240.47 166.98C252.84 166.15 263.78 164.27 273.03 162.1C273.18 162.07 273.32 162.2 273.28 162.35C272.25 166.62 270.02 173.44 264.89 180.41C258.67 188.86 251.3 193.32 247.24 195.41C249.18 197.02 251.11 198.63 253.05 200.25C258.19 197.27 269.86 189.55 277.29 174.62C281.64 165.88 283 157.76 283.42 152.22C283.49 151.24 283.07 150.3 282.29 149.7C280.57 148.39 278.44 146.97 275.87 145.67C272.65 144.04 269.68 143.06 267.31 142.45L264.89 147.47L273.13 150.66C274.66 151.25 274.59 153.43 273.03 153.93C266.65 155.97 260.11 157.44 253.46 158.28C245.07 159.33 235.59 160 225.22 159.87C210.31 159.68 197.31 157.9 186.77 155.76" fill="#015645"/>
<path d="M276.85 109.12C271.92 106.62 266.28 107.84 264.25 111.84C262.96 114.39 263.45 117.46 265.26 120C263.47 122.4 241.19 152.34 240.94 152.5L260.99 151.09L274.21 124.9C277.62 125.09 280.72 123.66 282.12 120.9C284.15 116.9 281.8 111.63 276.87 109.13" fill="#BB9960"/>
<path d="M240.56 148.24C241.2 142.18 242.23 124.7 231.35 107.79C225.86 99.26 219.24 93.83 214.56 90.63C207.09 85.71 195.52 79.33 180.25 75.28C165.94 71.48 153.5 71.09 144.85 71.49C149.14 76.85 153.88 83.7 158.21 92.08C161.36 98.18 163.69 103.93 165.43 109.06H160.01C160.97 113.27 163.52 121.76 170.66 129.83C176.81 136.78 183.59 140.28 187.45 141.93C191.78 144.08 197.29 146.33 203.89 147.89C215.68 150.69 225.85 150.12 232.6 149.15C224.84 137.24 214.38 123.4 200.45 109.42C190.65 99.58 180.99 91.54 172.19 85.04C182.71 89.29 196.35 98.21 210.39 111.05C225.03 124.44 234.58 138.14 240.55 148.25" fill="#015645"/>
</g>
<defs>
<filter id="filter0_d_221_6867" x="198.5" y="242.18" width="98.3477" height="127.79" filterUnits="userSpaceOnUse" color-interpolation-filters="sRGB">
<feFlood flood-opacity="0" result="BackgroundImageFix"/>
<feColorMatrix in="SourceAlpha" type="matrix" values="0 0 0 0 0 0 0 0 0 0 0 0 0 0 0 0 0 0 127 0" result="hardAlpha"/>
<feOffset dx="7" dy="-2"/>
<feGaussianBlur stdDeviation="5"/>
<feColorMatrix type="matrix" values="0 0 0 0 0.00392157 0 0 0 0 0.337255 0 0 0 0 0.270588 0 0 0 0.2 0"/>
<feBlend mode="normal" in2="BackgroundImageFix" result="effect1_dropShadow_221_6867"/>
<feBlend mode="normal" in="SourceGraphic" in2="effect1_dropShadow_221_6867" result="shape"/>
</filter>
<linearGradient id="paint0_linear_221_6867" x1="161.95" y1="503.63" x2="161.95" y2="438.51" gradientUnits="userSpaceOnUse">
<stop stop-color="#BB9960"/>
<stop offset="0.19" stop-color="#B7975F"/>
<stop offset="0.34" stop-color="#AD945E"/>
<stop offset="0.47" stop-color="#9D8E5B"/>
<stop offset="0.6" stop-color="#858558"/>
<stop offset="0.72" stop-color="#667A53"/>
<stop offset="0.84" stop-color="#416D4E"/>
<stop offset="0.95" stop-color="#155D47"/>
<stop offset="1" stop-color="#015645"/>
</linearGradient>
<linearGradient id="paint1_linear_221_6867" x1="37.9901" y1="383.7" x2="85.1039" y2="386.359" gradientUnits="userSpaceOnUse">
<stop stop-color="#BB9960"/>
<stop offset="0.02" stop-color="#B5975F"/>
<stop offset="0.21" stop-color="#7F8357"/>
<stop offset="0.39" stop-color="#527350"/>
<stop offset="0.57" stop-color="#2E664B"/>
<stop offset="0.73" stop-color="#155D47"/>
<stop offset="0.88" stop-color="#065745"/>
<stop offset="1" stop-color="#015645"/>
</linearGradient>
<linearGradient id="paint2_linear_221_6867" x1="85.7451" y1="383.612" x2="132.859" y2="386.271" gradientUnits="userSpaceOnUse">
<stop stop-color="#BB9960"/>
<stop offset="0.02" stop-color="#B5975F"/>
<stop offset="0.21" stop-color="#7F8357"/>
<stop offset="0.39" stop-color="#527350"/>
<stop offset="0.57" stop-color="#2E664B"/>
<stop offset="0.73" stop-color="#155D47"/>
<stop offset="0.88" stop-color="#065745"/>
<stop offset="1" stop-color="#015645"/>
</linearGradient>
<clipPath id="clip0_221_6867">
<rect width="323.77" height="506.15" fill="white"/>
</clipPath>
</defs>
</svg>
