<svg width="288" height="413" viewBox="0 0 288 413" fill="none" xmlns="http://www.w3.org/2000/svg">
<g opacity="0.5" clip-path="url(#clip0_185_5273)">
<g opacity="0.5">
<path d="M0 157.33C2.04944 158.883 4.12016 160.416 6.21925 161.913C29.0468 178.103 54.4982 190.54 78.6731 204.78C95.5509 215.45 107.84 226.66 116.79 237.324C134.845 258.828 141.327 286.377 138.384 313.628C132.256 370.429 100.955 399 100.955 399C130.789 331.188 97.8272 283.362 97.8272 283.362C77.3115 254.167 30.302 230.576 30.302 230.576C20.0831 225.333 9.94937 219.927 0 214.23V157.33Z" fill="#BB9960"/>
<path d="M39.6553 271.102C47.9736 272.876 75.5666 281.581 93.345 297.927C110.975 314.146 117.045 332.288 119.144 340.064C120.279 346.066 121.612 357.701 117.385 371.458C113.137 385.279 105.351 394.488 100.968 399C100.181 390.862 96.2951 361.518 70.1842 338.418C53.7745 323.895 30.7342 318.346 21.3096 316.111C28.1741 302.823 33.1027 289.698 39.6553 271.102Z" fill="#BB9960"/>
<path d="M0 323.752C17.672 302.589 27.4796 275.344 32.9329 248.547C33.4577 248.576 33.9257 248.675 34.3441 248.838C37.897 250.236 37.7977 256.16 36.4219 260.133C26.8059 287.796 16.2963 316.629 0.0070915 341.042V323.752H0Z" fill="#BB9960"/>
<path d="M101.154 -200.774C98.2956 -190.33 96.7142 -179.432 95.9555 -168.691C94.6152 -149.797 95.9555 -128.634 109.926 -113.728C118.989 -104.05 131.441 -97.5584 142.922 -90.7971C154.779 -83.8087 166.941 -77.2886 179.231 -70.9955C179.231 -70.9955 226.233 -47.4052 246.756 -18.2101C246.756 -18.2101 279.725 29.616 249.884 97.4281C249.884 97.4281 281.185 68.8573 287.312 12.0563C290.255 -15.1948 283.774 -42.744 265.719 -64.2483C256.762 -74.9118 244.473 -86.1216 227.602 -96.7922C203.427 -111.031 177.976 -123.469 155.148 -139.659C143.695 -147.79 132.888 -156.836 123.832 -167.329C114.861 -177.723 109.202 -189.833 101.154 -200.767" fill="#BB9960"/>
<path d="M188.584 -30.47C196.902 -28.6963 224.495 -19.9909 242.274 -3.64451C259.903 12.5742 265.974 30.7156 268.073 38.4916C269.207 44.4938 270.54 56.1292 266.314 69.8861C262.066 83.7068 254.28 92.9158 249.897 97.4281C249.11 89.2904 245.224 59.9462 219.113 36.8456C202.703 22.3225 179.663 16.7743 170.238 14.5395C177.103 1.25091 182.031 -11.8745 188.584 -30.47Z" fill="#BB9960"/>
<path d="M0 -126.569C19.4733 -161.915 34.8122 -200.362 34.3725 -240.625C34.2661 -250.537 32.4082 -260.398 29.0255 -269.785C24.0686 -283.527 15.8921 -296.163 5.60938 -306.962C3.80104 -308.856 1.92889 -310.693 0 -312.474V-319.711C7.97085 -315.149 15.7644 -310.282 23.2034 -304.982C39.684 -293.226 54.6045 -279.129 64.4546 -261.874C93.5156 -210.962 71.8865 -157.36 46.1089 -109.761C26.4655 -73.4928 -12.6796 -25.8724 7.66591 16.8667C28.288 60.2018 91.9768 67.4597 129.576 40.315C159.928 18.3991 174.678 -17.7134 181.862 -53.0314C182.386 -53.003 182.854 -52.9036 183.273 -52.7404C186.826 -51.3428 186.726 -45.4186 185.351 -41.4455C169.87 3.09564 152.084 50.6663 111.535 77.9459C90.3032 92.2277 63.6391 99.6346 37.663 97.1586C24.4728 95.917 11.545 92.0361 0 85.9275V-126.569Z" fill="#BB9960"/>
</g>
</g>
<defs>
<clipPath id="clip0_185_5273">
<rect width="288" height="412.078" fill="white"/>
</clipPath>
</defs>
</svg>
