<svg width="523" height="1506" viewBox="0 0 523 1506" fill="none" xmlns="http://www.w3.org/2000/svg">
<g clip-path="url(#clip0_163_1222)">
<path d="M498.401 151.072C504.796 143.579 512.856 135.82 523 128.172V190.797C521.126 192.955 519.361 195.147 517.774 197.372C517.774 197.372 484.101 245.464 514.576 313.656C514.576 313.656 482.601 284.923 476.339 227.81C473.34 200.404 479.955 172.7 498.401 151.072Z" fill="#015645"/>
<path d="M496.009 254.396C498.148 246.582 504.355 228.33 522.361 212.026C522.57 211.838 522.791 211.65 523 211.473V283.262C516.583 296.976 515.039 308.919 514.576 313.667C510.1 309.129 502.15 299.876 497.806 285.974C493.484 272.15 494.851 260.439 496.009 254.407V254.396Z" fill="#015645"/>
<path d="M312.417 185.263C315.339 195.767 316.949 206.724 317.721 217.527C319.088 236.532 317.721 257.805 303.453 272.803C294.192 282.532 281.468 289.062 269.736 295.869C257.619 302.898 245.193 309.45 232.645 315.781C232.645 315.781 184.628 339.501 163.668 368.865C163.668 368.865 129.995 416.958 160.47 485.15C160.47 485.15 128.495 456.416 122.232 399.303C119.233 371.898 125.849 344.194 144.295 322.566C153.447 311.841 165.994 300.562 183.239 289.837C207.936 275.514 233.935 263.007 257.255 246.726C268.953 238.557 279.99 229.459 289.252 218.9C298.415 208.451 304.192 196.265 312.417 185.274" fill="#015645"/>
<path d="M223.108 356.524C214.607 358.306 186.425 367.062 168.254 383.509C150.238 399.813 144.042 418.065 141.903 425.879C140.745 431.922 139.378 443.622 143.7 457.446C148.044 471.348 155.994 480.601 160.47 485.139C161.275 476.949 165.244 447.44 191.916 424.219C208.686 409.608 232.215 404.03 241.841 401.794C234.829 388.435 229.79 375.23 223.097 356.535" fill="#015645"/>
<path d="M228.533 334.133C228.963 333.967 229.437 333.867 229.977 333.834C237.32 369.353 252.382 405.668 283.397 427.705C321.811 455 386.875 447.706 407.934 404.13C428.718 361.14 388.727 313.258 368.66 276.788C342.33 228.928 320.235 175.025 349.916 123.822C359.983 106.467 375.221 92.2884 392.057 80.4674C400.304 74.6786 408.971 69.3879 417.847 64.4625C426.105 59.8912 435.786 56.7588 444.386 53.228C438.685 56.8585 432.72 60.1236 427.141 63.9201C420.868 68.1925 415.211 73.1179 410.029 78.4751C399.522 89.3332 391.175 102.04 386.103 115.864C382.641 125.294 380.745 135.223 380.634 145.184C380.127 190.498 399.819 233.543 423.029 272.482C440.008 300.972 455.577 332.86 461.796 365.025C467.419 394.068 463.824 425.89 445.036 449.731C429.324 469.677 403.811 482.394 377.271 484.885C350.732 487.375 323.498 479.926 301.799 465.559C260.375 438.132 242.216 390.283 226.394 345.5C224.982 341.505 224.883 335.55 228.511 334.144" fill="#015645"/>
<path d="M471.697 1357.4C459.579 1364.42 447.153 1370.98 434.606 1377.31C434.606 1377.31 386.588 1401.03 365.628 1430.39C365.628 1430.39 344.811 1460.13 350.732 1506H335.814C330.599 1493.71 326.145 1478.65 324.193 1460.83C321.194 1433.42 327.809 1405.72 346.256 1384.09C355.407 1373.37 367.955 1362.09 385.199 1351.36C409.897 1337.04 435.896 1324.53 459.215 1308.25C470.914 1300.08 481.951 1290.99 491.212 1280.43C500.375 1269.98 506.153 1257.79 514.378 1246.8C517.3 1257.3 518.909 1268.26 519.681 1279.06C521.048 1298.07 519.681 1319.34 505.414 1334.34C496.152 1344.07 483.428 1350.6 471.697 1357.41V1357.4Z" fill="#015645"/>
<path d="M376.466 1506H343.014C342.22 1497.99 343.08 1491.43 343.852 1487.42C345.991 1479.6 352.199 1461.35 370.204 1445.05C388.363 1428.61 416.556 1419.85 425.057 1418.06C431.75 1436.77 436.789 1449.96 443.801 1463.32C434.176 1465.57 410.636 1471.15 393.876 1485.74C386.456 1492.21 380.8 1499.16 376.478 1505.99L376.466 1506Z" fill="#015645"/>
<path d="M430.482 1395.67C430.912 1395.5 431.386 1395.4 431.927 1395.37C439.27 1430.89 454.331 1467.21 485.347 1489.24C496.284 1497.01 509.383 1501.95 523 1504.06V1505.99H479.349C454.386 1478.51 440.67 1441.84 428.376 1407.03C426.965 1403.03 426.866 1397.08 430.493 1395.67H430.482Z" fill="#015645"/>
<path d="M514.378 468.813C517.3 479.317 518.909 490.275 519.681 501.077C521.048 520.082 519.681 541.355 505.414 556.353C496.152 566.082 483.428 572.612 471.697 579.42C459.579 586.448 447.153 593 434.606 599.332C434.606 599.332 386.588 623.051 365.628 652.416C365.628 652.416 331.955 700.508 362.431 768.7C362.431 768.7 330.456 739.967 324.193 682.854C321.194 655.448 327.809 627.744 346.256 606.117C355.407 595.391 367.955 584.113 385.199 573.387C409.897 559.065 435.896 546.557 459.215 530.276C470.914 522.107 481.951 513.009 491.212 502.45C500.375 492.001 506.153 479.815 514.378 468.824" fill="#015645"/>
<path d="M425.057 640.075C416.556 641.857 388.374 650.612 370.204 667.059C352.188 683.363 345.991 701.615 343.852 709.429C342.694 715.473 341.327 727.172 345.649 740.996C349.993 754.898 357.943 764.152 362.42 768.69C363.224 760.499 367.194 730.991 393.865 707.769C410.636 693.159 434.165 687.58 443.79 685.345C436.778 671.985 431.739 658.78 425.046 640.086" fill="#015645"/>
<path d="M430.482 617.683C430.912 617.517 431.386 617.417 431.927 617.384C439.27 652.903 454.331 689.218 485.347 711.255C496.284 719.025 509.383 723.962 523 726.076V759.392C516.252 756.536 509.802 753.094 503.771 749.098C462.347 721.671 444.187 673.822 428.365 629.039C426.954 625.044 426.855 619.089 430.482 617.683Z" fill="#015645"/>
<path d="M523 888.859V1029.05C514.234 1014.73 504.719 993.301 501.588 964.8C498.622 937.726 505.05 910.365 523 888.848V888.859Z" fill="#015645"/>
<path d="M523 1022.78C518.755 1009.03 520.1 997.407 521.258 991.397C521.666 989.892 522.239 987.999 523 985.818V1022.79V1022.78Z" fill="#015645"/>
<path d="M343.025 902.318C345.947 912.822 347.557 923.78 348.329 934.583C349.696 953.587 348.328 974.861 334.061 989.858C324.799 999.588 312.076 1006.12 300.344 1012.92C288.227 1019.95 275.8 1026.51 263.253 1032.84C263.253 1032.84 215.235 1056.56 194.275 1085.92C194.275 1085.92 160.602 1134.01 191.078 1202.21C191.078 1202.21 159.103 1173.47 152.84 1116.36C149.841 1088.95 156.457 1061.25 174.903 1039.62C184.054 1028.9 196.602 1017.62 213.846 1006.89C238.544 992.57 264.543 980.063 287.863 963.781C299.561 955.613 310.598 946.515 319.86 935.955C329.022 925.507 334.8 913.32 343.025 902.329" fill="#015645"/>
<path d="M253.716 1073.58C245.215 1075.36 217.033 1084.12 198.862 1100.56C180.846 1116.87 174.649 1135.12 172.51 1142.93C171.353 1148.98 169.985 1160.68 174.308 1174.5C178.652 1188.4 186.601 1197.66 191.078 1202.19C191.883 1194 195.852 1164.5 222.524 1141.27C239.294 1126.66 262.823 1121.09 272.449 1118.85C265.436 1105.49 260.397 1092.29 253.705 1073.59" fill="#015645"/>
<path d="M259.14 1051.19C259.57 1051.02 260.045 1050.92 260.585 1050.89C267.928 1086.41 282.989 1122.72 314.005 1144.76C352.419 1172.06 417.483 1164.76 438.542 1121.18C459.326 1078.2 419.335 1030.31 399.268 993.843C372.938 945.983 350.842 892.08 380.524 840.878C390.591 823.522 405.828 809.344 422.665 797.523C430.912 791.734 439.578 786.443 448.454 781.518C456.713 776.946 466.393 773.814 474.993 770.283C469.293 773.914 463.328 777.179 457.749 780.975C451.475 785.248 445.819 790.173 440.637 795.53C430.129 806.388 421.783 819.095 416.711 832.919C413.249 842.35 411.352 852.278 411.242 862.24C410.735 907.554 430.427 950.599 453.636 989.537C470.616 1018.03 486.185 1049.92 492.403 1082.08C498.026 1111.12 494.432 1142.95 475.644 1166.79C459.932 1186.73 434.418 1199.45 407.879 1201.94C381.34 1204.43 354.106 1196.98 332.407 1182.61C290.983 1155.19 272.824 1107.34 257.001 1062.56C255.59 1058.56 255.491 1052.6 259.118 1051.2" fill="#015645"/>
<path d="M190.879 599.044C193.801 609.548 195.411 620.506 196.183 631.308C197.55 650.313 196.183 671.586 181.915 686.584C172.654 696.313 159.93 702.843 148.198 709.651C136.081 716.679 123.655 723.231 111.107 729.563C111.107 729.563 63.0898 753.282 42.1297 782.647C42.1297 782.647 8.45679 830.739 38.9322 898.931C38.9322 898.931 6.95729 870.198 0.694595 813.085C-2.30443 785.679 4.31107 757.975 22.7573 736.348C31.9088 725.622 44.4562 714.344 61.7006 703.618C86.3985 689.296 112.397 676.788 135.717 660.507C147.416 652.338 158.452 643.24 167.714 632.681C176.877 622.232 182.654 610.046 190.879 599.055" fill="#015645"/>
<path d="M101.57 770.305C93.0692 772.087 64.8871 780.843 46.7165 797.29C28.7003 813.594 22.5038 831.846 20.3647 839.66C19.207 845.703 17.8398 857.403 22.162 871.227C26.5061 885.129 34.4558 894.382 38.9323 898.92C39.7372 890.73 43.7065 861.221 70.378 838C87.1483 823.389 110.677 817.811 120.303 815.575C113.291 802.216 108.252 789.011 101.559 770.316" fill="#015645"/>
<path d="M106.995 747.925C107.425 747.759 107.899 747.659 108.439 747.626C115.782 783.145 130.844 819.46 161.859 841.497C200.273 868.792 265.337 861.498 286.396 817.922C307.18 774.932 267.189 727.05 247.122 690.58C220.793 642.72 198.697 588.817 228.378 537.614C238.445 520.259 253.683 506.08 270.519 494.259C278.766 488.471 287.433 483.18 296.309 478.254C304.567 473.683 314.248 470.551 322.848 467.02C317.147 470.65 311.182 473.916 305.603 477.712C299.33 481.985 293.673 486.91 288.491 492.267C277.984 503.125 269.637 515.832 264.565 529.656C261.103 539.086 259.207 549.015 259.096 558.976C258.589 604.29 278.281 647.335 301.491 686.274C318.471 714.764 334.039 746.652 340.258 778.817C345.881 807.86 342.286 839.682 323.498 863.523C307.786 883.469 282.273 896.186 255.733 898.677C229.194 901.167 201.96 893.718 180.262 879.351C138.837 851.924 120.678 804.075 104.856 759.292C103.444 755.297 103.345 749.342 106.973 747.936" fill="#015645"/>
<path d="M349.795 0C350.468 15.208 353.985 32.5632 362.431 51.457C362.431 51.457 343.301 34.2456 331.735 0H349.795Z" fill="#015645"/>
<path d="M384.46 0C366.223 21.1849 363.125 44.3511 362.431 51.457C357.954 46.919 350.004 37.6658 345.66 23.7639C342.783 14.5439 342.43 6.27578 342.86 0H384.46Z" fill="#015645"/>
<path d="M495.27 0C503.859 4.38309 513.297 7.33835 523 8.85472V42.1595C516.252 39.3039 509.802 35.8616 503.771 31.8659C490.507 23.0887 479.635 12.1974 470.451 0H495.27Z" fill="#015645"/>
</g>
<defs>
<clipPath id="clip0_163_1222">
<rect width="523" height="1506" fill="white" transform="matrix(-1 0 0 1 523 0)"/>
</clipPath>
</defs>
</svg>
