<svg width="288" height="413" viewBox="0 0 288 413" fill="none" xmlns="http://www.w3.org/2000/svg">
<g opacity="0.5" clip-path="url(#clip0_185_5262)">
<g opacity="0.5">
<path d="M0 254.748C2.04944 253.194 4.12016 251.662 6.21925 250.165C29.0468 233.974 54.4982 221.537 78.6731 207.298C95.5509 196.627 107.84 185.418 116.79 174.754C134.845 153.25 141.327 125.701 138.384 98.4495C132.256 41.6485 100.955 13.0777 100.955 13.0777C130.789 80.8898 97.8272 128.716 97.8272 128.716C77.3115 157.911 30.302 181.501 30.302 181.501C20.0831 186.744 9.94937 192.151 0 197.848V254.748Z" fill="#BB9960"/>
<path d="M39.6553 140.976C47.9736 139.202 75.5666 130.497 93.345 114.15C110.975 97.9314 117.045 79.79 119.144 72.0141C120.279 66.0119 121.612 54.3764 117.385 40.6196C113.137 26.7989 105.351 17.5898 100.968 13.0775C100.181 21.2152 96.2951 50.5594 70.1842 73.6601C53.7745 88.1831 30.7342 93.7313 21.3096 95.9662C28.1741 109.255 33.1027 122.38 39.6553 140.976Z" fill="#BB9960"/>
<path d="M0 88.3253C17.672 109.489 27.4796 136.733 32.9329 163.53C33.4577 163.502 33.9257 163.403 34.3441 163.239C37.897 161.842 37.7977 155.918 36.4219 151.944C26.8059 124.282 16.2963 95.4485 0.0070915 71.0353V88.3253H0Z" fill="#BB9960"/>
<path d="M101.153 612.851C98.2947 602.408 96.7133 591.51 95.9545 580.768C94.6142 561.875 95.9545 540.711 109.925 525.805C118.988 516.128 131.44 509.636 142.921 502.874C154.778 495.886 166.94 489.366 179.23 483.073C179.23 483.073 226.232 459.483 246.755 430.288C246.755 430.288 279.724 382.461 249.883 314.649C249.883 314.649 281.184 343.22 287.311 400.021C290.254 427.272 283.773 454.821 265.718 476.326C256.761 486.989 244.472 498.199 227.601 508.87C203.426 523.109 177.975 535.546 155.147 551.736C143.694 559.867 132.887 568.913 123.831 579.406C114.86 589.8 109.201 601.911 101.153 612.844" fill="#BB9960"/>
<path d="M188.584 442.547C196.902 440.774 224.495 432.068 242.274 415.722C259.903 399.503 265.974 381.362 268.073 373.586C269.207 367.584 270.54 355.948 266.314 342.191C262.066 328.371 254.28 319.162 249.897 314.649C249.11 322.787 245.224 352.131 219.113 375.232C202.703 389.755 179.663 395.303 170.238 397.538C177.103 410.826 182.031 423.952 188.584 442.547Z" fill="#BB9960"/>
<path d="M0 538.647C19.4733 573.993 34.8122 612.44 34.3725 652.703C34.2661 662.614 32.4082 672.476 29.0255 681.862C24.0686 695.605 15.8921 708.241 5.60938 719.039C3.80104 720.934 1.92889 722.771 0 724.552V731.789C7.97085 727.227 15.7644 722.36 23.2034 717.06C39.684 705.304 54.6045 691.206 64.4546 673.952C93.5156 623.039 71.8865 569.438 46.1089 521.839C26.4655 485.57 -12.6796 437.95 7.66591 395.211C28.288 351.876 91.9768 344.618 129.576 371.763C159.928 393.678 174.678 429.791 181.862 465.109C182.386 465.081 182.854 464.981 183.273 464.818C186.826 463.42 186.726 457.496 185.351 453.523C169.87 408.982 152.084 361.411 111.535 334.132C90.3032 319.85 63.6391 312.443 37.663 314.919C24.4728 316.161 11.545 320.042 0 326.15V538.647Z" fill="#BB9960"/>
</g>
</g>
<defs>
<clipPath id="clip0_185_5262">
<rect width="288" height="412.078" fill="white" transform="matrix(1 0 0 -1 0 412.078)"/>
</clipPath>
</defs>
</svg>
