<svg width="280" height="352" viewBox="0 0 280 352" fill="none" xmlns="http://www.w3.org/2000/svg">
<g clip-path="url(#clip0_167_3287)">
<path d="M122.084 76.249C120.514 82.3131 119.646 88.646 119.229 94.8823C118.492 105.853 119.229 118.146 126.913 126.802C131.895 132.418 138.746 136.194 145.062 140.122C151.579 144.181 158.277 147.964 165.03 151.623C165.03 151.623 190.884 165.322 202.175 182.274C202.175 182.274 220.309 210.052 203.898 249.434C203.898 249.434 221.115 232.84 224.485 199.853C226.104 184.031 222.539 168.024 212.604 155.537C207.678 149.342 200.917 142.83 191.634 136.635C178.336 128.366 164.336 121.144 151.78 111.738C145.478 107.017 139.538 101.766 134.549 95.6679C129.616 89.6314 126.503 82.5956 122.077 76.249" fill="#BB9960"/>
<path d="M149.856 107.314L154.018 110.684C156.797 112.937 160.188 114.308 163.766 114.667C170.568 115.349 178.447 115.638 187.16 115.066C195.755 114.494 203.356 113.199 209.783 111.703C209.887 111.683 209.984 111.772 209.957 111.876C209.241 114.818 207.692 119.518 204.127 124.321C199.805 130.144 194.685 133.217 191.864 134.657C193.212 135.767 194.553 136.876 195.901 137.993C199.472 135.939 207.58 130.619 212.743 120.331C215.765 114.308 216.71 108.713 217.002 104.895C217.051 104.22 216.759 103.572 216.217 103.159C215.022 102.256 213.542 101.277 211.756 100.382C209.519 99.2583 207.455 98.5829 205.809 98.1626L204.127 101.622L209.852 103.82C210.915 104.227 210.867 105.729 209.783 106.073C205.35 107.479 200.806 108.492 196.186 109.071C190.356 109.795 183.769 110.256 176.564 110.167C166.205 110.036 157.172 108.809 149.849 107.335" fill="#BB9960"/>
<path d="M212.43 75.1947C209.005 73.4719 205.086 74.3126 203.676 77.069C202.779 78.8262 203.12 80.9418 204.377 82.6921C203.134 84.3459 187.653 104.978 187.48 105.088L201.41 104.116L210.596 86.0687C212.965 86.1996 215.119 85.2142 216.092 83.3123C217.502 80.5559 215.869 76.9243 212.444 75.2015" fill="#BB9960"/>
<path d="M170.172 175.156C174.744 176.189 189.925 181.241 199.701 190.736C209.401 200.149 212.736 210.693 213.889 215.206C214.514 218.693 215.244 225.453 212.923 233.44C210.589 241.468 206.302 246.815 203.891 249.434C203.46 244.707 201.32 227.665 186.958 214.249C177.933 205.814 165.26 202.589 160.076 201.293C163.856 193.575 166.566 185.954 170.165 175.156" fill="#BB9960"/>
<path d="M80.2269 254.184L65.2225 269.065L80.2269 283.946L95.2313 269.065L80.2269 254.184Z" fill="#BB9960"/>
<path d="M113.643 254.18L98.639 269.062L113.643 283.943L128.648 269.062L113.643 254.18Z" fill="#BB9960"/>
<path d="M167.254 162.228C167.025 162.132 166.767 162.077 166.476 162.056C162.522 182.571 154.414 203.54 137.718 216.268C117.033 232.034 82.0011 227.817 70.6618 202.651C59.4755 177.83 81.0006 150.176 91.8117 129.11C105.993 101.47 117.881 70.3366 101.9 40.7673C96.4808 30.7477 88.2821 22.5612 79.2149 15.7322C74.7751 12.39 70.106 9.33044 65.3257 6.49134C60.879 3.85208 55.6679 2.03974 51.0336 0C54.1046 2.09487 57.3146 3.98301 60.3162 6.18124C63.6929 8.64133 66.7362 11.4873 69.5293 14.5883C75.185 20.8591 79.6804 28.198 82.411 36.1778C84.2731 41.6286 85.2945 47.3551 85.357 53.1091C85.628 79.2811 75.0252 104.137 62.5326 126.622C53.389 143.078 45.0096 161.491 41.6537 180.069C38.6313 196.842 40.5628 215.213 50.6792 228.988C59.135 240.503 72.8783 247.856 87.1704 249.289C101.463 250.723 116.123 246.423 127.803 238.126C150.106 222.284 159.889 194.657 168.4 168.789C169.158 166.48 169.213 163.041 167.261 162.228" fill="#BB9960"/>
<mask id="mask0_167_3287" style="mask-type:luminance" maskUnits="userSpaceOnUse" x="74" y="254" width="22" height="30">
<path d="M80.2293 283.944C81.7579 282.428 95.2371 269.06 95.2371 269.06L80.2293 254.175C80.2293 254.175 67.9937 268.97 80.2293 283.937" fill="white"/>
</mask>
<g mask="url(#mask0_167_3287)">
<path d="M68.0759 252.64L66.3009 283.834L95.145 285.448L96.92 254.254L68.0759 252.64Z" fill="#E9E0D9" fill-opacity="0.3"/>
</g>
<mask id="mask1_167_3287" style="mask-type:luminance" maskUnits="userSpaceOnUse" x="108" y="254" width="21" height="30">
<path d="M113.49 283.944C115.011 282.428 128.497 269.06 128.497 269.06L113.49 254.175C113.49 254.175 101.254 268.97 113.49 283.937" fill="white"/>
</mask>
<g mask="url(#mask1_167_3287)">
<path d="M101.342 252.644L99.5667 283.838L128.411 285.452L130.186 254.258L101.342 252.644Z" fill="#E9E0D9" fill-opacity="0.3"/>
</g>
<path d="M187.223 102.152C187.667 97.9764 188.383 85.9309 180.823 74.2782C177.009 68.4001 172.409 64.6583 169.158 62.4532C163.967 59.0628 155.928 54.6663 145.319 51.8755C135.376 49.2569 126.733 48.9881 120.723 49.2638C123.703 52.9573 126.997 57.6777 130.005 63.4524C132.194 67.6559 133.813 71.6182 135.022 75.1533H131.256C131.923 78.0544 133.695 83.9049 138.656 89.466C142.929 94.2552 147.639 96.6671 150.321 97.8041C153.33 99.2856 157.158 100.836 161.744 101.911C169.936 103.841 177.002 103.448 181.692 102.779C176.3 94.5722 169.033 85.035 159.354 75.4014C152.545 68.6206 145.833 63.0803 139.719 58.6011C147.028 61.5298 156.505 67.6766 166.26 76.5246C176.432 85.7517 183.068 95.1924 187.216 102.159" fill="#BB9960"/>
<path d="M8.37236 331.051H4.14099V302.178H8.37236V314.313H22.4005V302.178H26.6805V331.051H22.4005V317.821H8.37236V331.051Z" fill="#BB9960"/>
<path d="M42.0357 302.178H46.0864L56.6197 331.051H52.2494L50.0399 324.532H38.1309L35.8797 331.051H31.5094L42.0427 302.178H42.0357ZM44.0576 307.284L39.319 321.011H48.7962L44.0576 307.284Z" fill="#BB9960"/>
<path d="M55.508 302.178H60.059L67.5074 316.229L74.914 302.178H79.465L69.6196 319.695V331.051H65.3882V319.695L55.5011 302.178H55.508Z" fill="#BB9960"/>
<path d="M88.9005 302.178H92.9512L103.484 331.051H99.1141L96.9046 324.532H84.9956L82.7445 331.051H78.3741L88.9074 302.178H88.9005ZM90.9223 307.284L86.1838 321.011H95.6609L90.9223 307.284Z" fill="#BB9960"/>
<path d="M138.35 329.763C135.682 329.763 133.625 328.908 132.187 327.206C130.957 325.745 130.346 323.892 130.346 321.638V302.433L134.299 300.338V321.5C134.299 324.539 135.8 326.062 138.801 326.062H141.838V329.756H138.343L138.35 329.763Z" fill="#BB9960"/>
<path d="M147.181 326.069H139.086V329.763H147.181V326.069Z" fill="#BB9960"/>
<path d="M152.517 326.069H144.422V329.763H152.517V326.069Z" fill="#BB9960"/>
<path d="M157.853 326.069H149.759V329.763H157.853V326.069Z" fill="#BB9960"/>
<path d="M163.189 326.069H155.095V329.763H163.189V326.069Z" fill="#BB9960"/>
<path d="M168.525 326.069H160.431V329.763H168.525V326.069Z" fill="#BB9960"/>
<path d="M173.861 326.069H165.767V329.763H173.861V326.069Z" fill="#BB9960"/>
<path d="M179.191 326.069H171.096V329.763H179.191V326.069Z" fill="#BB9960"/>
<path d="M184.527 326.069H176.432V329.763H184.527V326.069Z" fill="#BB9960"/>
<path d="M189.863 326.069H181.768V329.763H189.863V326.069Z" fill="#BB9960"/>
<path d="M203.106 326.069H206.142V329.763H202.647C200.104 329.763 198.096 328.956 196.623 327.344C195.15 328.956 193.142 329.763 190.599 329.763H187.104V326.069H190.141C193.142 326.069 194.643 324.546 194.643 321.507V312.067L198.596 309.972V321.514C198.596 324.553 200.097 326.076 203.106 326.076M192.114 331.437C193.587 331.437 194.323 332.195 194.323 333.718C194.323 335.241 193.587 335.951 192.114 335.951C190.641 335.951 189.863 335.207 189.863 333.718C189.863 332.23 190.613 331.437 192.114 331.437ZM197.957 331.437C199.43 331.437 200.167 332.195 200.167 333.718C200.167 335.241 199.43 335.951 197.957 335.951C196.484 335.951 195.706 335.207 195.706 333.718C195.706 332.23 196.456 331.437 197.957 331.437Z" fill="#BB9960"/>
<path d="M203.384 329.763V326.069H209.686C215.911 326.069 220.83 324.029 224.45 319.957C221.907 315.305 218.808 312.976 215.161 312.976C212.68 312.976 210.116 314.285 207.483 316.897V313.245C210.061 310.661 212.784 309.365 215.668 309.365C218.03 309.365 220.316 310.206 222.519 311.894C224.728 313.583 226.674 315.994 228.362 319.123V321.128C223.853 326.875 217.613 329.749 209.644 329.749H203.391L203.384 329.763Z" fill="#BB9960"/>
<path d="M3.93262 348.493V346.281L2.31372 343.283H3.06411L3.78671 344.723C3.98126 345.116 4.13411 345.433 4.29392 345.798H4.30781C4.45372 345.461 4.62743 345.116 4.82197 344.723L5.55847 343.283H6.30886L4.59269 346.274V348.493H3.92567H3.93262Z" fill="#BB9960"/>
<path d="M9.7551 346.591C9.7551 347.976 8.81017 348.575 7.92081 348.575C6.92724 348.575 6.15601 347.831 6.15601 346.653C6.15601 345.398 6.96198 344.668 7.98335 344.668C9.00471 344.668 9.7551 345.447 9.7551 346.591ZM6.83692 346.625C6.83692 347.445 7.30244 348.065 7.95555 348.065C8.60867 348.065 9.07419 347.452 9.07419 346.611C9.07419 345.977 8.76153 345.171 7.96945 345.171C7.17737 345.171 6.83692 345.915 6.83692 346.625Z" fill="#BB9960"/>
<path d="M13.6807 347.473C13.6807 347.859 13.6877 348.196 13.7085 348.493H13.118L13.0832 347.879H13.0693C12.8956 348.182 12.5065 348.575 11.8534 348.575C11.2767 348.575 10.5819 348.251 10.5819 346.935V344.751H11.2489V346.825C11.2489 347.535 11.4643 348.017 12.0688 348.017C12.5204 348.017 12.8261 347.7 12.9512 347.397C12.9859 347.294 13.0137 347.169 13.0137 347.052V344.758H13.6807V347.48V347.473Z" fill="#BB9960"/>
<path d="M14.7924 345.915C14.7924 345.474 14.7855 345.095 14.7646 344.751H15.3483L15.3691 345.488H15.3969C15.5637 344.985 15.9667 344.668 16.4183 344.668C16.4947 344.668 16.5503 344.675 16.6059 344.689V345.33C16.5364 345.316 16.4669 345.309 16.3766 345.309C15.9041 345.309 15.5706 345.674 15.4803 346.184C15.4664 346.274 15.4525 346.384 15.4525 346.501V348.492H14.7924V345.922V345.915Z" fill="#BB9960"/>
<path d="M18.9126 343.345C19.2322 343.29 19.6491 343.242 20.1841 343.242C20.8372 343.242 21.3166 343.393 21.6223 343.676C21.9072 343.924 22.074 344.303 22.074 344.765C22.074 345.226 21.935 345.605 21.6779 345.881C21.3305 346.26 20.7608 346.453 20.1146 346.453C19.9131 346.453 19.7325 346.446 19.5796 346.405V348.493H18.9195V343.345H18.9126ZM19.5727 345.853C19.7186 345.895 19.8992 345.909 20.1216 345.909C20.9206 345.909 21.407 345.516 21.407 344.799C21.407 344.082 20.9275 343.779 20.198 343.779C19.9062 343.779 19.6908 343.8 19.5727 343.834V345.86V345.853Z" fill="#BB9960"/>
<path d="M24.8254 348.492L24.7698 348.024H24.749C24.5475 348.32 24.1514 348.582 23.6234 348.582C22.8799 348.582 22.4978 348.051 22.4978 347.507C22.4978 346.604 23.2899 346.108 24.7073 346.115V346.039C24.7073 345.729 24.6239 345.171 23.8735 345.171C23.5331 345.171 23.1718 345.281 22.9147 345.447L22.7618 344.999C23.0675 344.799 23.5053 344.668 23.9708 344.668C25.0964 344.668 25.3674 345.447 25.3674 346.198V347.597C25.3674 347.921 25.3812 348.238 25.4299 348.492H24.8185H24.8254ZM24.7281 346.584C23.9986 346.57 23.1718 346.701 23.1718 347.424C23.1718 347.865 23.4636 348.072 23.804 348.072C24.2835 348.072 24.5892 347.762 24.6934 347.445C24.7142 347.376 24.7281 347.3 24.7281 347.231V346.584Z" fill="#BB9960"/>
<path d="M26.4582 345.915C26.4582 345.474 26.4513 345.095 26.4304 344.751H27.0141L27.0349 345.488H27.0627C27.2294 344.985 27.6324 344.668 28.0841 344.668C28.1605 344.668 28.2161 344.675 28.2717 344.689V345.33C28.2022 345.316 28.1327 345.309 28.0424 345.309C27.5699 345.309 27.2364 345.674 27.1461 346.184C27.1322 346.274 27.1183 346.384 27.1183 346.501V348.492H26.4582V345.922V345.915Z" fill="#BB9960"/>
<path d="M29.7517 343.676V344.751H30.7105V345.268H29.7517V347.287C29.7517 347.748 29.8837 348.01 30.2519 348.01C30.4256 348.01 30.5576 347.99 30.641 347.962L30.6688 348.472C30.5368 348.527 30.3353 348.562 30.0782 348.562C29.7656 348.562 29.5154 348.458 29.3556 348.272C29.168 348.072 29.0985 347.742 29.0985 347.301V345.261H28.5288V344.744H29.0985V343.848L29.7517 343.669V343.676Z" fill="#BB9960"/>
<path d="M31.4609 345.764C31.4609 345.378 31.4539 345.061 31.4331 344.751H32.0237L32.0584 345.371H32.0723C32.253 345.013 32.6838 344.668 33.2882 344.668C33.7954 344.668 34.5875 344.978 34.5875 346.26V348.492H33.9205V346.336C33.9205 345.729 33.6982 345.233 33.0728 345.233C32.6351 345.233 32.2877 345.55 32.1765 345.929C32.1488 346.012 32.1279 346.129 32.1279 346.246V348.492H31.4609V345.764Z" fill="#BB9960"/>
<path d="M36.0535 346.742C36.0674 347.659 36.6441 348.038 37.3181 348.038C37.7975 348.038 38.0893 347.955 38.3395 347.845L38.4576 348.334C38.2213 348.444 37.8184 348.568 37.2347 348.568C36.1022 348.568 35.4282 347.81 35.4282 346.68C35.4282 345.55 36.0813 344.661 37.1513 344.661C38.3534 344.661 38.673 345.736 38.673 346.425C38.673 346.563 38.6591 346.673 38.6521 346.742H36.0674H36.0535ZM38.0129 346.26C38.0198 345.826 37.8392 345.157 37.0888 345.157C36.4148 345.157 36.1161 345.791 36.0605 346.26H38.0129Z" fill="#BB9960"/>
<path d="M39.4928 345.915C39.4928 345.474 39.4858 345.095 39.465 344.751H40.0486L40.0694 345.488H40.0972C40.264 344.985 40.667 344.668 41.1186 344.668C41.195 344.668 41.2506 344.675 41.3062 344.689V345.33C41.2367 345.316 41.1672 345.309 41.0769 345.309C40.6044 345.309 40.2709 345.674 40.1806 346.184C40.1667 346.274 40.1528 346.384 40.1528 346.501V348.492H39.4928V345.922V345.915Z" fill="#BB9960"/>
<path d="M43.6547 348.493V345.268H43.1405V344.751H43.6547V344.572C43.6547 344.048 43.7658 343.565 44.0785 343.262C44.3286 343.014 44.6621 342.918 44.9748 342.918C45.211 342.918 45.4125 342.973 45.5445 343.028L45.4542 343.552C45.3569 343.503 45.218 343.469 45.0304 343.469C44.4606 343.469 44.3147 343.979 44.3147 344.551V344.751H45.2041V345.268H44.3147V348.493H43.6547Z" fill="#BB9960"/>
<path d="M48.9978 346.591C48.9978 347.976 48.0528 348.575 47.1635 348.575C46.1699 348.575 45.3987 347.831 45.3987 346.653C45.3987 345.398 46.2047 344.668 47.226 344.668C48.2474 344.668 48.9978 345.447 48.9978 346.591ZM46.0726 346.625C46.0726 347.445 46.5382 348.065 47.1913 348.065C47.8444 348.065 48.3099 347.452 48.3099 346.611C48.3099 345.977 47.9973 345.171 47.2052 345.171C46.4131 345.171 46.0726 345.915 46.0726 346.625Z" fill="#BB9960"/>
<path d="M49.8385 345.915C49.8385 345.474 49.8315 345.095 49.8107 344.751H50.3943L50.4151 345.488H50.4429C50.6097 344.985 51.0127 344.668 51.4643 344.668C51.5407 344.668 51.5963 344.675 51.6519 344.689V345.33C51.5824 345.316 51.5129 345.309 51.4226 345.309C50.9502 345.309 50.6166 345.674 50.5263 346.184C50.5124 346.274 50.4985 346.384 50.4985 346.501V348.492H49.8385V345.922V345.915Z" fill="#BB9960"/>
<path d="M54.7994 348.493L53.5001 343.283H54.2019L54.8133 345.915C54.9662 346.563 55.1051 347.211 55.1955 347.714H55.2093C55.2927 347.197 55.4525 346.577 55.6262 345.908L56.3071 343.283H57.0019L57.6273 345.922C57.7732 346.542 57.9121 347.156 57.9816 347.707H57.9955C58.0997 347.135 58.2456 346.556 58.4055 345.908L59.0794 343.283H59.7534L58.3012 348.493H57.6064L56.9603 345.778C56.8005 345.116 56.6962 344.606 56.6268 344.075H56.6129C56.5225 344.592 56.4044 345.102 56.2168 345.778L55.4873 348.493H54.7925H54.7994Z" fill="#BB9960"/>
<path d="M60.4482 346.742C60.4621 347.659 61.0388 348.038 61.7128 348.038C62.1922 348.038 62.484 347.955 62.7341 347.845L62.8522 348.334C62.616 348.444 62.213 348.568 61.6294 348.568C60.4968 348.568 59.8229 347.81 59.8229 346.68C59.8229 345.55 60.476 344.661 61.546 344.661C62.748 344.661 63.0676 345.736 63.0676 346.425C63.0676 346.563 63.0537 346.673 63.0468 346.742H60.4621H60.4482ZM62.4076 346.26C62.4145 345.826 62.2339 345.157 61.4835 345.157C60.8095 345.157 60.5107 345.791 60.4552 346.26H62.4076Z" fill="#BB9960"/>
<path d="M63.818 343H64.485V348.486H63.818V343Z" fill="#BB9960"/>
<path d="M65.6106 343H66.2776V348.486H65.6106V343Z" fill="#BB9960"/>
<path d="M67.3754 348.493C67.3893 348.238 67.4032 347.859 67.4032 347.528V343.007H68.0632V345.357H68.0771C68.3134 344.937 68.7372 344.668 69.3278 344.668C70.238 344.668 70.8841 345.44 70.8772 346.577C70.8772 347.914 70.0504 348.582 69.2305 348.582C68.6955 348.582 68.2717 348.375 68.0007 347.879H67.9798L67.9521 348.499H67.3754V348.493ZM68.0702 346.99C68.0702 347.073 68.0841 347.163 68.098 347.238C68.23 347.707 68.6121 348.038 69.0985 348.038C69.8002 348.038 70.2171 347.459 70.2171 346.598C70.2171 345.846 69.835 345.206 69.1193 345.206C68.6608 345.206 68.2369 345.523 68.098 346.039C68.0841 346.115 68.0632 346.212 68.0632 346.315V346.99H68.0702Z" fill="#BB9960"/>
<path d="M72.107 346.742C72.1209 347.659 72.6976 348.038 73.3715 348.038C73.851 348.038 74.1358 347.955 74.3929 347.845L74.5041 348.334C74.2679 348.444 73.8649 348.568 73.2812 348.568C72.1487 348.568 71.4747 347.81 71.4747 346.68C71.4747 345.55 72.1278 344.661 73.1978 344.661C74.3999 344.661 74.7195 345.736 74.7195 346.425C74.7195 346.563 74.7056 346.673 74.6986 346.742H72.114H72.107ZM74.0664 346.26C74.0733 345.826 73.8927 345.157 73.1423 345.157C72.4683 345.157 72.1695 345.791 72.114 346.26H74.0664Z" fill="#BB9960"/>
<path d="M76.2897 343.696C76.2967 343.931 76.1299 344.117 75.8659 344.117C75.6296 344.117 75.4629 343.931 75.4629 343.696C75.4629 343.462 75.6366 343.269 75.8798 343.269C76.123 343.269 76.2897 343.455 76.2897 343.696ZM75.5393 348.492V344.751H76.2063V348.492H75.5393Z" fill="#BB9960"/>
<path d="M77.325 345.764C77.325 345.378 77.3181 345.061 77.2972 344.751H77.8878L77.9226 345.371H77.9365C78.1171 345.013 78.5479 344.668 79.1524 344.668C79.6596 344.668 80.4517 344.978 80.4517 346.26V348.492H79.7846V346.336C79.7846 345.729 79.5623 345.233 78.937 345.233C78.4993 345.233 78.1519 345.55 78.0407 345.929C78.0129 346.012 77.992 346.129 77.992 346.246V348.492H77.325V345.764Z" fill="#BB9960"/>
<path d="M84.7108 344.751C84.6969 345.019 84.683 345.323 84.683 345.777V347.948C84.683 348.81 84.5162 349.333 84.1619 349.657C83.8075 349.995 83.2864 350.105 82.8279 350.105C82.3693 350.105 81.9038 349.995 81.605 349.795L81.7718 349.278C82.015 349.43 82.3971 349.574 82.8487 349.574C83.5366 349.574 84.0368 349.209 84.0368 348.265V347.845H84.0229C83.8145 348.189 83.4254 348.472 82.8487 348.472C81.9385 348.472 81.2854 347.686 81.2854 346.646C81.2854 345.378 82.0983 344.661 82.946 344.661C83.5852 344.661 83.9326 344.999 84.0924 345.309H84.1063L84.1341 344.744H84.7177L84.7108 344.751ZM84.0229 346.225C84.0229 346.108 84.016 346.012 83.9882 345.915C83.8701 345.523 83.5366 345.199 83.0502 345.199C82.411 345.199 81.9524 345.75 81.9524 346.611C81.9524 347.349 82.3137 347.955 83.0363 347.955C83.4463 347.955 83.8214 347.693 83.9604 347.259C83.9951 347.142 84.016 347.011 84.016 346.894V346.219L84.0229 346.225Z" fill="#BB9960"/>
<path d="M125.468 346.205C125.468 344.503 127.025 343.118 128.942 343.118H132.138V347.149C132.138 348.21 132.555 348.878 133.597 348.878H133.945V349.285H133.597C132.527 349.285 131.916 348.741 131.735 347.803C131.193 348.741 130.151 349.285 128.942 349.285C127.025 349.285 125.468 347.907 125.468 346.198V346.205ZM128.942 348.878C130.457 348.878 131.68 347.879 131.68 346.205V343.531H128.942C127.289 343.531 125.927 344.737 125.927 346.205C125.927 347.672 127.289 348.878 128.942 348.878ZM128.039 341.443C128.289 341.443 128.497 341.629 128.497 341.85C128.497 342.07 128.289 342.242 128.039 342.242C127.789 342.242 127.594 342.07 127.594 341.85C127.594 341.629 127.789 341.443 128.039 341.443ZM130.04 341.443C130.29 341.443 130.499 341.629 130.499 341.85C130.499 342.07 130.29 342.242 130.04 342.242C129.79 342.242 129.595 342.07 129.595 341.85C129.595 341.629 129.79 341.443 130.04 341.443ZM133.667 348.878H134.292C135.334 348.878 135.751 348.21 135.751 347.149V343.118H136.21V347.149C136.21 348.21 136.627 348.878 137.669 348.878H138.294V349.285H137.669C136.807 349.285 136.279 348.927 135.988 348.313C135.682 348.934 135.154 349.285 134.292 349.285H133.667V348.878ZM134.973 350.642C135.209 350.642 135.432 350.829 135.432 351.035C135.432 351.256 135.209 351.442 134.973 351.442C134.723 351.442 134.528 351.256 134.528 351.035C134.528 350.829 134.723 350.642 134.973 350.642ZM136.988 350.642C137.224 350.642 137.447 350.829 137.447 351.035C137.447 351.256 137.224 351.442 136.988 351.442C136.738 351.442 136.543 351.256 136.543 351.035C136.543 350.829 136.738 350.642 136.988 350.642ZM138.016 348.878H146.417L146.403 347.569C146.375 345.137 144.582 343.524 141.984 343.524H139.399V343.118H141.998C144.846 343.118 146.833 344.909 146.861 347.555L146.875 348.878H148.265V349.285H138.016V348.878ZM147.994 348.878H149.661V343.118H150.12V345.66C151.218 344.33 152.607 343.118 154.303 343.118C156.22 343.118 157.499 344.441 157.499 346.322V347.149C157.499 348.479 156.818 349.285 155.512 349.285H148.001V348.878H147.994ZM155.505 348.878C156.547 348.878 157.033 348.21 157.033 347.149V346.322C157.033 344.654 155.963 343.524 154.296 343.524C152.628 343.524 151.239 344.944 150.113 346.322V348.878H155.505ZM163.057 346.205C163.057 344.503 164.614 343.118 166.531 343.118H170.005V346.205C170.005 347.907 168.449 349.292 166.531 349.292C164.614 349.292 163.057 347.914 163.057 346.205ZM166.531 348.878C168.199 348.878 169.547 347.679 169.547 346.205V343.531H166.531C164.864 343.531 163.516 344.73 163.516 346.205C163.516 347.679 164.864 348.878 166.531 348.878ZM165.948 341.443C166.198 341.443 166.406 341.629 166.406 341.85C166.406 342.07 166.198 342.242 165.948 342.242C165.697 342.242 165.503 342.07 165.503 341.85C165.503 341.629 165.697 341.443 165.948 341.443ZM167.949 341.443C168.199 341.443 168.407 341.629 168.407 341.85C168.407 342.07 168.199 342.242 167.949 342.242C167.698 342.242 167.504 342.07 167.504 341.85C167.504 341.629 167.698 341.443 167.949 341.443ZM172.229 347.149V339.658H172.687V347.149C172.687 348.21 173.104 348.878 174.146 348.878H174.494V349.285H174.146C172.84 349.285 172.229 348.486 172.229 347.149ZM174.216 348.878H174.841C175.883 348.878 176.3 348.21 176.3 347.149V343.118H176.759V347.149C176.759 348.21 177.176 348.878 178.218 348.878H178.843V349.285H178.218C177.356 349.285 176.828 348.927 176.536 348.313C176.231 348.934 175.703 349.285 174.841 349.285H174.216V348.878ZM175.522 350.642C175.758 350.642 175.981 350.829 175.981 351.035C175.981 351.256 175.758 351.442 175.522 351.442C175.272 351.442 175.077 351.256 175.077 351.035C175.077 350.829 175.272 350.642 175.522 350.642ZM177.537 350.642C177.773 350.642 177.995 350.829 177.995 351.035C177.995 351.256 177.773 351.442 177.537 351.442C177.287 351.442 177.092 351.256 177.092 351.035C177.092 350.829 177.287 350.642 177.537 350.642ZM178.565 348.878H186.965L186.952 347.569C186.924 345.137 185.131 343.524 182.533 343.524H179.948V343.118H182.546C185.395 343.118 187.382 344.909 187.41 347.555L187.424 348.878H188.814V349.285H178.565V348.878ZM188.543 348.878H188.89C189.932 348.878 190.349 348.21 190.349 347.149V339.658H190.808V347.149C190.808 348.479 190.196 349.285 188.89 349.285H188.543V348.878ZM196.922 345.709V344.351H197.381V345.709C197.381 347.914 198.437 348.878 200.91 348.878H203.342C204.384 348.878 204.801 348.21 204.801 347.149V339.658H205.26V347.149C205.26 348.21 205.677 348.878 206.719 348.878H207.066V349.285H206.719C205.857 349.285 205.329 348.927 205.037 348.313C204.732 348.934 204.204 349.285 203.342 349.285H200.91C198.159 349.285 196.922 348.148 196.922 345.709ZM199.993 345.398H200.632C200.41 345.226 200.271 344.964 200.271 344.682C200.271 344.137 200.771 343.731 201.383 343.731C201.716 343.731 202.022 343.869 202.23 344.075L201.966 344.275C201.827 344.13 201.619 344.041 201.383 344.041C200.966 344.041 200.618 344.303 200.618 344.682C200.618 345.061 200.966 345.398 201.383 345.398H202.369V345.709H199.993V345.398ZM206.927 348.878H214.772L214.758 347.569C214.73 345.137 212.937 343.524 210.339 343.524H208.31V343.118L212.784 339.665H213.479L209.005 343.118H210.353C213.201 343.118 215.188 344.909 215.216 347.555L215.23 348.878H216.898V349.285H206.927V348.878ZM216.627 348.878H217.183C218.225 348.878 218.711 348.21 218.711 347.149V343.118H219.17V347.149C219.17 348.479 218.489 349.285 217.183 349.285H216.627V348.878ZM217.891 350.642C218.128 350.642 218.35 350.829 218.35 351.035C218.35 351.256 218.128 351.442 217.891 351.442C217.641 351.442 217.447 351.256 217.447 351.035C217.447 350.829 217.641 350.642 217.891 350.642ZM219.906 350.642C220.142 350.642 220.365 350.829 220.365 351.035C220.365 351.256 220.142 351.442 219.906 351.442C219.656 351.442 219.462 351.256 219.462 351.035C219.462 350.829 219.656 350.642 219.906 350.642ZM219.462 351.862L219.6 351.483C219.781 351.559 220.031 351.593 220.24 351.593C221.518 351.593 221.879 350.842 221.879 349.74V343.118H222.338V348.878H224.283V349.285H222.338V349.767C222.338 351.09 221.782 352 220.254 352C219.99 352 219.698 351.938 219.462 351.862ZM226.09 348.878H226.437C227.48 348.878 227.896 348.21 227.896 347.149V343.118H228.355V346.88C228.355 348.224 229.147 348.878 230.12 348.878C231.093 348.878 231.885 348.224 231.885 346.88V343.118H232.343V346.88C232.343 348.224 233.135 348.878 234.108 348.878C235.081 348.878 235.873 348.224 235.873 346.88V343.118H236.331V346.88C236.331 348.444 235.331 349.285 234.108 349.285C233.233 349.285 232.482 348.851 232.121 348.051C231.746 348.851 230.995 349.285 230.12 349.285C229.244 349.285 228.577 348.906 228.188 348.176C227.938 348.892 227.355 349.285 226.437 349.285H226.09V348.878ZM231.023 341.443C231.273 341.443 231.482 341.629 231.482 341.85C231.482 342.07 231.273 342.242 231.023 342.242C230.773 342.242 230.578 342.07 230.578 341.85C230.578 341.629 230.773 341.443 231.023 341.443ZM232.038 340.106C232.26 340.106 232.454 340.265 232.454 340.478C232.454 340.678 232.26 340.85 232.038 340.85C231.801 340.85 231.621 340.678 231.621 340.478C231.621 340.272 231.801 340.106 232.038 340.106ZM233.024 341.443C233.274 341.443 233.483 341.629 233.483 341.85C233.483 342.07 233.274 342.242 233.024 342.242C232.774 342.242 232.579 342.07 232.579 341.85C232.579 341.629 232.774 341.443 233.024 341.443Z" fill="#BB9960"/>
</g>
<defs>
<clipPath id="clip0_167_3287">
<rect width="280" height="352" fill="white"/>
</clipPath>
</defs>
</svg>
