<svg width="121" height="127" viewBox="0 0 121 127" fill="none" xmlns="http://www.w3.org/2000/svg">
<path d="M67.6667 100C95.2811 100 117.667 77.6143 117.667 50C117.667 22.3857 95.2806 0 67.6667 0C40.0524 0 17.6665 22.3857 17.6665 50C17.6665 77.6143 40.0524 100 67.6667 100Z" fill="#BB9960" fill-opacity="0.3"/>
<path d="M95.4616 21.0375C95.4616 35.9815 88.0986 49.5708 76.6667 57.5002C65.2349 65.4297 54.6667 65.0002 54.6667 65.0002C53.7646 65.055 52.5213 64.9854 51.4577 64.9415C40.2567 64.479 31.7062 61.9822 24.1831 55.9885C23.9615 54.2029 23.6667 51.7496 23.6667 49.9042C23.6667 25.6566 43.368 6.00024 67.671 6.00024C78.0465 6.00024 87.566 9.60515 95.0891 15.5988C95.3107 17.3845 95.4616 19.1917 95.4616 21.0375Z" fill="#EFC276"/>
<path d="M32.7773 76.4548C28.1534 70.4204 25.0435 63.1662 24.0602 55.2463L24.0598 55.2413C31.5804 61.2346 41.0967 64.8393 51.4692 64.8393C52.3852 64.8393 54.1818 64.7024 54.1818 64.7024C54.1818 64.7024 65.2386 65.429 76.6667 57.5C88.0947 49.571 95.4592 35.881 95.4592 20.9379C95.4592 19.0922 95.3088 17.2856 95.0873 15.5C95.5727 15.8866 96.0419 16.2922 96.5099 16.6986C96.9388 17.0707 97.3568 17.4539 97.7708 17.8422C98.4116 18.4431 99.0342 19.062 99.6381 19.6999C100.058 20.1433 100.47 20.5933 100.871 21.0537C101.26 21.4999 101.648 21.9467 102.019 22.4083C102.595 23.125 103.143 23.8641 103.674 24.6169C103.964 25.0287 104.249 25.4456 104.525 25.8678C105.082 26.7173 105.614 27.5837 106.111 28.4725C106.312 28.8313 106.498 29.1992 106.689 29.5642C107.155 30.453 107.595 31.3564 108 32.2796C108.131 32.5783 108.257 32.879 108.381 33.1813C108.791 34.1768 109.16 35.1925 109.496 36.2228C109.584 36.4899 109.678 36.7549 109.76 37.0245C110.112 38.1763 110.409 39.3509 110.666 40.5409C110.725 40.8113 110.781 41.0834 110.834 41.3559C111.075 42.5823 111.269 43.8245 111.404 45.0854C111.427 45.2953 111.441 45.5081 111.46 45.7188C111.585 47.063 111.666 48.4197 111.666 49.7971L111.667 49.8033C111.667 74.0495 91.972 93.7047 67.6774 93.7047C67.6646 93.7047 67.6525 93.7031 67.6401 93.7031C66.19 93.7018 64.7591 93.6247 63.3457 93.4865C62.8503 93.438 62.3695 93.3447 61.8791 93.28L61.7874 93.2679C60.8982 93.1509 60.0097 93.034 59.139 92.8628C58.558 92.7487 57.9928 92.5927 57.4201 92.4559C56.6343 92.2684 55.8479 92.0847 55.0791 91.8553C54.4665 91.6724 53.8705 91.4554 53.2696 91.2468L53.2199 91.2296C52.5391 90.9936 51.8595 90.7579 51.1945 90.4891C50.5673 90.2356 49.9552 89.9544 49.3426 89.6728C48.7221 89.3879 48.105 89.1 47.5007 88.7873C46.8673 88.4592 46.2468 88.1108 45.6322 87.7537C45.0894 87.4385 44.5528 87.117 44.025 86.7794C43.3883 86.3725 42.7625 85.9499 42.1491 85.5115C41.6869 85.1814 41.2347 84.8417 40.7863 84.4945C40.1484 84.0001 39.5191 83.4957 38.9099 82.9677C38.5358 82.6438 38.1738 82.3079 37.811 81.9711C37.171 81.3776 36.5372 80.7766 35.9334 80.1461C35.6566 79.8575 35.3952 79.5563 35.1263 79.2602C34.4784 78.546 33.838 77.8251 33.2378 77.0694C33.0787 76.8687 32.9332 76.658 32.7773 76.4548Z" fill="#E5AC4C"/>
<path d="M43.5 50H92.6667" stroke="white" stroke-width="12" stroke-linecap="round"/>
<path d="M0.56 120.864V119.84C0.954667 119.541 1.51467 119.333 2.24 119.216C1.696 118.469 1.424 117.648 1.424 116.752C1.424 115.888 1.632 115.173 2.048 114.608C2.47467 114.032 3.05067 113.68 3.776 113.552C3.936 113.52 4.096 113.504 4.256 113.504C5.184 113.504 5.94667 113.883 6.544 114.64V115.712C5.88267 114.891 5.136 114.48 4.304 114.48C4.176 114.48 4.05333 114.491 3.936 114.512C2.976 114.704 2.496 115.429 2.496 116.688C2.496 117.669 2.832 118.459 3.504 119.056C3.64267 119.045 3.83467 119.04 4.08 119.04C5.47733 119.019 6.58667 118.715 7.408 118.128V119.12C6.512 119.707 5.344 120 3.904 120C2.496 120 1.38133 120.288 0.56 120.864ZM12.3471 120C11.4405 120 10.7418 119.707 10.2511 119.12C9.84579 118.619 9.64313 117.984 9.64313 117.216V110.24L10.7151 109.68V117.184C10.7151 118.4 11.3018 119.008 12.4751 119.008H13.0351V120H12.3471ZM17.867 119.008H18.427V120H17.739C16.779 120 16.059 119.675 15.579 119.024C15.0777 119.675 14.3523 120 13.403 120H12.715V119.008H13.275C14.4483 119.008 15.035 118.4 15.035 117.184V113.712L16.107 113.152V117.184C16.107 118.4 16.6937 119.008 17.867 119.008ZM14.235 121.68C14.6617 121.68 14.875 121.899 14.875 122.336C14.875 122.773 14.6617 122.992 14.235 122.992C13.8083 122.992 13.595 122.773 13.595 122.336C13.595 121.899 13.8083 121.68 14.235 121.68ZM16.059 121.68C16.4857 121.68 16.699 121.899 16.699 122.336C16.699 122.773 16.4857 122.992 16.059 122.992C15.6323 122.992 15.419 122.773 15.419 122.336C15.419 121.899 15.6323 121.68 16.059 121.68ZM26.5696 109.904C26.1856 109.904 25.9936 109.701 25.9936 109.296C25.9936 108.912 26.1856 108.72 26.5696 108.72C26.9536 108.72 27.1456 108.912 27.1456 109.296C27.1456 109.701 26.9536 109.904 26.5696 109.904ZM25.6736 111.568C25.2363 111.568 25.0176 111.349 25.0176 110.912C25.0176 110.475 25.2363 110.256 25.6736 110.256C26.0896 110.256 26.2976 110.475 26.2976 110.912C26.2976 111.349 26.0896 111.568 25.6736 111.568ZM27.4976 111.568C27.071 111.568 26.8576 111.349 26.8576 110.912C26.8576 110.475 27.071 110.256 27.4976 110.256C27.9243 110.256 28.1376 110.475 28.1376 110.912C28.1376 111.349 27.9243 111.568 27.4976 111.568ZM18.1056 120V119.008H19.0816C20.2656 119.008 20.8576 118.4 20.8576 117.184V114.88L21.9296 114.32V117.184C21.9296 118.4 22.5163 119.008 23.6896 119.008H24.2816C25.455 119.008 26.0416 118.4 26.0416 117.184V114.304L27.1136 113.728V117.184C27.1136 118.4 27.7056 119.008 28.8896 119.008H29.4656C30.6496 119.008 31.2416 118.4 31.2416 117.184V113.712L32.3136 113.152V117.216C32.3136 118.101 32.0523 118.795 31.5296 119.296C31.0603 119.755 30.4256 119.989 29.6256 120H28.7456C27.7536 120 27.0336 119.648 26.5856 118.944C26.127 119.648 25.4123 120 24.4416 120H23.5616C22.5696 120 21.8443 119.648 21.3856 118.944C20.9376 119.648 20.2176 120 19.2256 120H18.1056ZM38.758 109.872L38.454 110.448H35.974L36.278 109.872H36.694C36.5873 109.68 36.534 109.488 36.534 109.296C36.534 108.997 36.646 108.741 36.87 108.528C37.094 108.304 37.3607 108.192 37.67 108.192C37.9047 108.192 38.134 108.261 38.358 108.4V109.008C38.1447 108.848 37.9367 108.768 37.734 108.768C37.5633 108.768 37.4193 108.827 37.302 108.944C37.1847 109.051 37.126 109.179 37.126 109.328C37.126 109.509 37.2007 109.691 37.35 109.872H38.758ZM41.03 110.24L42.086 109.68V117.136C42.086 118.043 41.8193 118.757 41.286 119.28C40.7953 119.76 40.1393 120 39.318 120H34.07L34.582 119.008H37.03V112.32L38.086 111.76V119.008H39.206C40.422 119.008 41.03 118.379 41.03 117.12V110.24ZM44.9713 120V110.24L46.0433 109.68V120H44.9713ZM65.5521 119.008H66.1121V120H65.4241C64.4641 120 63.7441 119.675 63.2641 119.024C62.7628 119.675 62.0321 120 61.0721 120H55.3601C54.5708 120 53.9415 119.755 53.4721 119.264C53.0028 118.763 52.7681 118.091 52.7681 117.248V115.152L53.8401 114.592V117.12C53.8401 118.379 54.4268 119.008 55.6001 119.008H60.9601C62.1335 119.008 62.7201 118.379 62.7201 117.12V113.712L63.7921 113.152V117.184C63.7921 118.4 64.3788 119.008 65.5521 119.008ZM57.5841 121.68C58.0001 121.68 58.2081 121.893 58.2081 122.32C58.2081 122.768 58.0001 122.992 57.5841 122.992C57.1468 122.992 56.9281 122.768 56.9281 122.32C56.9281 121.893 57.1468 121.68 57.5841 121.68ZM70.569 119.008H71.129V120H70.441C69.4597 120 68.729 119.664 68.249 118.992C67.7477 119.664 67.0063 120 66.025 120H65.465V119.008H65.913C67.129 119.008 67.737 118.379 67.737 117.12V110.24L68.809 109.68V117.184C68.809 118.4 69.3957 119.008 70.569 119.008ZM75.6088 111.04C75.1714 111.04 74.9528 110.816 74.9528 110.368C74.9528 109.941 75.1714 109.728 75.6088 109.728C76.0248 109.728 76.2328 109.941 76.2328 110.368C76.2328 110.816 76.0248 111.04 75.6088 111.04ZM79.0008 119.008V120H70.8087V119.008H73.4968C72.8248 118.325 72.4888 117.419 72.4888 116.288C72.4888 115.211 72.8568 114.357 73.5928 113.728C74.1794 113.227 74.8674 112.971 75.6568 112.96C76.7554 112.96 77.6141 113.392 78.2328 114.256V115.312C77.5928 114.395 76.7714 113.936 75.7688 113.936H75.7208C75.0808 113.936 74.5581 114.155 74.1528 114.592C73.7581 115.029 73.5608 115.605 73.5608 116.32C73.5608 117.141 73.8061 117.797 74.2968 118.288C74.7661 118.768 75.3954 119.008 76.1848 119.008H79.0008ZM80.3569 109.456L80.6609 108.896H81.0609C80.9542 108.715 80.9009 108.523 80.9009 108.32C80.9009 108.021 81.0129 107.76 81.2369 107.536C81.4715 107.312 81.7382 107.2 82.0369 107.2C82.2715 107.2 82.5009 107.275 82.7249 107.424V108.016C82.5222 107.867 82.3195 107.792 82.1169 107.792C81.9462 107.792 81.7969 107.845 81.6689 107.952C81.5515 108.059 81.4929 108.187 81.4929 108.336C81.4929 108.528 81.5729 108.715 81.7329 108.896H83.1249L82.8209 109.456H80.3569ZM81.2369 120V110.88L82.3089 110.32V120H81.2369ZM93.2738 112.56C92.8471 112.56 92.6338 112.336 92.6338 111.888C92.6338 111.461 92.8471 111.248 93.2738 111.248C93.7004 111.248 93.9138 111.461 93.9138 111.888C93.9138 112.336 93.7004 112.56 93.2738 112.56ZM95.1138 112.56C94.6764 112.56 94.4578 112.336 94.4578 111.888C94.4578 111.461 94.6764 111.248 95.1138 111.248C95.5298 111.248 95.7378 111.461 95.7378 111.888C95.7378 112.336 95.5298 112.56 95.1138 112.56ZM101.818 119.008H102.378V120H101.69C100.73 120 100.01 119.675 99.5298 119.024C99.0284 119.675 98.2978 120 97.3378 120H91.6258C90.8364 120 90.2071 119.755 89.7378 119.264C89.2684 118.763 89.0338 118.091 89.0338 117.248V115.152L90.1058 114.592V117.12C90.1058 118.379 90.6924 119.008 91.8658 119.008H97.2258C98.3991 119.008 98.9858 118.379 98.9858 117.12V113.712L100.058 113.152V117.184C100.058 118.4 100.644 119.008 101.818 119.008ZM106.883 119.008H107.443V120H106.755C105.795 120 105.075 119.675 104.595 119.024C104.093 119.675 103.368 120 102.419 120H101.731V119.008H102.291C103.464 119.008 104.051 118.4 104.051 117.184V113.712L105.123 113.152V117.184C105.123 118.4 105.709 119.008 106.883 119.008ZM103.251 121.68C103.677 121.68 103.891 121.899 103.891 122.336C103.891 122.773 103.677 122.992 103.251 122.992C102.824 122.992 102.611 122.773 102.611 122.336C102.611 121.899 102.824 121.68 103.251 121.68ZM105.075 121.68C105.501 121.68 105.715 121.899 105.715 122.336C105.715 122.773 105.501 122.992 105.075 122.992C104.648 122.992 104.435 122.773 104.435 122.336C104.435 121.899 104.648 121.68 105.075 121.68ZM110.833 111.088C110.396 111.088 110.177 110.864 110.177 110.416C110.177 109.989 110.396 109.776 110.833 109.776C111.249 109.776 111.457 109.989 111.457 110.416C111.457 110.864 111.249 111.088 110.833 111.088ZM112.657 111.088C112.22 111.088 112.001 110.864 112.001 110.416C112.001 109.989 112.22 109.776 112.657 109.776C113.073 109.776 113.281 109.989 113.281 110.416C113.281 110.864 113.073 111.088 112.657 111.088ZM113.409 119.008H116.337V120H112.721C112.359 120 112.028 119.963 111.729 119.888C111.431 119.963 111.1 120 110.737 120H107.121V119.008H110.065C109.223 118.229 108.801 117.307 108.801 116.24C108.801 115.205 109.089 114.384 109.665 113.776C110.188 113.232 110.876 112.96 111.729 112.96C112.7 112.96 113.452 113.312 113.985 114.016C114.433 114.603 114.657 115.344 114.657 116.24C114.657 117.317 114.241 118.24 113.409 119.008ZM111.793 118.864C112.337 118.672 112.78 118.331 113.121 117.84C113.473 117.339 113.649 116.8 113.649 116.224C113.649 115.52 113.473 114.965 113.121 114.56C112.78 114.144 112.316 113.936 111.729 113.936C111.143 113.936 110.679 114.144 110.337 114.56C109.996 114.965 109.825 115.515 109.825 116.208C109.825 116.795 109.996 117.339 110.337 117.84C110.679 118.331 111.121 118.672 111.665 118.864L111.729 118.88L111.761 118.864H111.793ZM116.012 120V119.008H116.46C117.676 119.008 118.284 118.379 118.284 117.12V110.24L119.356 109.68V117.136C119.356 118.043 119.089 118.757 118.556 119.28C118.055 119.76 117.393 120 116.572 120H116.012Z" fill="#BB9960"/>
</svg>
