<svg width="60" height="60" viewBox="0 0 60 60" fill="none" xmlns="http://www.w3.org/2000/svg">
<path d="M30 60C46.5685 60 60 46.5686 60 30C60 13.4314 46.5685 0 30 0C13.4315 0 0 13.4314 0 30C0 46.5686 13.4315 60 30 60Z" fill="#BB9960" fill-opacity="0.3"/>
<path d="M3.85844 33.2682C4.4478 38.0247 6.31153 42.3814 9.08296 46.0055C9.17637 46.1275 9.26353 46.2541 9.35893 46.3746C9.71863 46.8285 10.1027 47.2614 10.4908 47.6903C10.652 47.8682 10.8089 48.049 10.9746 48.2224C11.3365 48.601 11.7164 48.962 12.1 49.3184C12.3177 49.5207 12.5344 49.7225 12.7586 49.917C13.124 50.2341 13.5009 50.537 13.8835 50.8339C14.152 51.0424 14.4233 51.2464 14.7 51.4447C15.0677 51.708 15.4431 51.9618 15.8247 52.2062C16.1408 52.4089 16.4624 52.602 16.7877 52.7913C17.1561 53.0058 17.528 53.215 17.9076 53.412C18.2696 53.5999 18.6397 53.7727 19.0116 53.9439C19.3788 54.113 19.7457 54.2819 20.1218 54.4341C20.5298 54.5995 20.9476 54.744 21.3656 54.8892C21.7255 55.0145 22.083 55.1448 22.4501 55.2546C22.9107 55.3924 23.3822 55.5027 23.853 55.6153C24.1963 55.6975 24.5351 55.7912 24.8835 55.8597C25.4233 55.966 25.9746 56.0375 26.5258 56.1103C26.8197 56.1491 27.108 56.2052 27.4049 56.2343C28.252 56.3172 29.1097 56.3636 29.9785 56.3643C29.986 56.3643 29.9935 56.3653 30.0009 56.3653C44.5625 56.3653 56.3666 44.561 56.3666 29.9994C56.3666 29.9981 56.3666 29.9969 56.3666 29.9956C56.3664 29.1684 56.3176 28.3536 56.2428 27.5463C56.2311 27.4197 56.2231 27.292 56.2097 27.1659C56.1285 26.4087 56.0119 25.6626 55.8679 24.926C55.8358 24.7624 55.8024 24.599 55.7673 24.4366C55.6131 23.7219 55.435 23.0165 55.2243 22.3248C55.175 22.1628 55.1187 22.0037 55.0664 21.8433C54.8646 21.2245 54.6434 20.6145 54.3978 20.0166C54.3233 19.835 54.2478 19.6545 54.1691 19.4751C53.9268 18.9206 53.6625 18.3781 53.3835 17.8443C53.2689 17.6251 53.1575 17.4041 53.037 17.1887C52.7386 16.6548 52.4202 16.1345 52.0867 15.6243C51.9208 15.3708 51.7504 15.1204 51.576 14.8731C51.258 14.421 50.9294 13.9771 50.5844 13.5466C50.362 13.2694 50.1293 13.0011 49.8961 12.7331C49.6558 12.4566 49.4089 12.1863 49.1573 11.92C48.7952 11.5369 48.422 11.1653 48.0379 10.8044C47.7896 10.5712 47.5392 10.341 47.2821 10.1176C47.0014 9.87348 46.7202 9.62988 46.4295 9.39772L46.4293 9.39746C46.562 10.4698 46.6524 11.5551 46.6524 12.6636C46.6524 17.424 45.3726 21.8776 43.1656 25.7326C43.1706 25.82 43.184 25.904 43.184 25.9934C43.184 27.761 42.1847 29.194 40.9521 29.194C40.9086 29.194 40.8682 29.1791 40.8253 29.1756C38.7758 31.7216 36.2604 33.8678 33.412 35.5081H42.498C42.9472 35.5081 43.3113 35.8725 43.3113 36.3216C43.3113 36.7708 42.9469 37.1349 42.498 37.1349H30.064C27.0382 38.3453 23.7447 39.0293 20.2867 39.0293C14.0698 39.0293 8.36606 36.8644 3.85844 33.265C3.85794 33.267 3.85819 33.2675 3.85844 33.2682Z" fill="#E5AC4C"/>
<path d="M30.063 37.1363H18.4853C18.0362 37.1363 17.672 36.7721 17.672 36.323C17.672 35.8739 18.0364 35.5095 18.4853 35.5095H33.4111C36.2595 33.8692 38.7748 31.723 40.8244 29.177C39.6519 29.0808 38.7193 27.7001 38.7193 25.9948C38.7193 24.227 39.7184 22.7942 40.9512 22.7942C42.1214 22.7942 43.0707 24.0904 43.1646 25.734C45.3716 21.879 46.6515 17.4254 46.6515 12.665C46.6515 11.5565 46.561 10.4712 46.4283 9.39883C41.9207 5.7994 36.2169 3.63452 30 3.63452C15.4384 3.63452 3.63403 15.4389 3.63403 30.0005C3.63403 31.1087 3.72445 32.1943 3.85722 33.2666C8.36484 36.866 14.0686 39.0309 20.2855 39.0309C23.7437 39.0307 27.0372 38.3466 30.063 37.1363Z" fill="#EFC276"/>
<path d="M20.716 29.195C21.9488 29.195 22.9479 27.7619 22.9479 25.9943C22.9479 24.2265 21.9488 22.7937 20.716 22.7937C19.4835 22.7937 18.4844 24.2267 18.4844 25.9943C18.4841 27.7621 19.4835 29.195 20.716 29.195Z" fill="black"/>
<path d="M40.9507 22.7939C39.7179 22.7939 38.7188 24.227 38.7188 25.9946C38.7188 27.6999 39.6516 29.0806 40.8239 29.1767C40.8667 29.1802 40.9071 29.1952 40.9507 29.1952C42.1832 29.1952 43.1825 27.7621 43.1825 25.9946C43.1825 25.9051 43.1691 25.8212 43.1641 25.7338C43.0702 24.0902 42.1209 22.7939 40.9507 22.7939Z" fill="black"/>
<path d="M17.6719 36.3231C17.6719 36.7722 18.0363 37.1363 18.4852 37.1363H42.4969C42.946 37.1363 43.3102 36.7722 43.3102 36.3231C43.3102 35.8739 42.9458 35.5095 42.4969 35.5095H18.4852C18.0361 35.5095 17.6719 35.8739 17.6719 36.3231Z" fill="black"/>
</svg>
