<svg width="101" height="100" viewBox="0 0 101 100" fill="none" xmlns="http://www.w3.org/2000/svg">
<path d="M50.0002 100C77.6146 100 100 77.6143 100 50C100 22.3857 77.6142 0 50.0002 0C22.3858 0 0 22.3857 0 50C0 77.6143 22.3858 100 50.0002 100Z" fill="#BB9960" fill-opacity="0.3"/>
<path d="M77.7951 21.0375C77.7951 35.9815 70.4321 49.5708 59.0002 57.5002C47.5684 65.4297 37.0002 65.0002 37.0002 65.0002C36.0981 65.055 34.8548 64.9854 33.7912 64.9415C22.5902 64.479 14.0397 61.9822 6.5166 55.9885C6.29501 54.2029 6.00024 51.7496 6.00024 49.9042C6.00024 25.6566 25.7015 6.00024 50.0045 6.00024C60.38 6.00024 69.8995 9.60516 77.4226 15.5988C77.6442 17.3845 77.7951 19.1917 77.7951 21.0375Z" fill="#3D9281"/>
<path d="M15.1108 76.4548C10.4869 70.4204 7.37702 63.1662 6.39372 55.2463L6.39331 55.2413C13.9139 61.2346 23.4302 64.8393 33.8027 64.8393C34.7187 64.8393 36.5153 64.7024 36.5153 64.7024C36.5153 64.7024 47.5721 65.429 59.0002 57.5C70.4282 49.571 77.7927 35.881 77.7927 20.9379C77.7927 19.0922 77.6423 17.2856 77.4208 15.5C77.9062 15.8866 78.3754 16.2922 78.8434 16.6986C79.2723 17.0707 79.6903 17.4539 80.1043 17.8422C80.7451 18.4431 81.3677 19.062 81.9716 19.6999C82.3913 20.1433 82.8031 20.5933 83.2046 21.0537C83.5936 21.4999 83.9818 21.9467 84.3525 22.4083C84.9281 23.125 85.4767 23.8641 86.0074 24.6169C86.2979 25.0287 86.5826 25.4456 86.859 25.8678C87.4155 26.7173 87.947 27.5837 88.4445 28.4725C88.6456 28.8313 88.8314 29.1992 89.0226 29.5642C89.488 30.453 89.9286 31.3564 90.3334 32.2796C90.4643 32.5783 90.5902 32.879 90.7145 33.1813C91.1242 34.1768 91.4933 35.1925 91.8299 36.2228C91.9172 36.4899 92.0115 36.7549 92.0938 37.0245C92.4454 38.1763 92.7426 39.3509 92.9998 40.5409C93.058 40.8113 93.1141 41.0834 93.1677 41.3559C93.4083 42.5823 93.6025 43.8245 93.7379 45.0854C93.7608 45.2953 93.7741 45.5081 93.7936 45.7188C93.9183 47.063 93.9998 48.4197 93.9998 49.7971L94.0002 49.8033C94.0002 74.0495 74.3055 93.7047 50.0109 93.7047C49.9981 93.7047 49.986 93.7031 49.9735 93.7031C48.5235 93.7018 47.0926 93.6247 45.6792 93.4866C45.1838 93.438 44.703 93.3447 44.2126 93.28L44.1208 93.2679C43.2317 93.1509 42.3432 93.034 41.4725 92.8628C40.8915 92.7487 40.3263 92.5928 39.7536 92.4559C38.9678 92.2684 38.1814 92.0847 37.4126 91.8553C36.8 91.6724 36.204 91.4555 35.6031 91.2468L35.5534 91.2296C34.8726 90.9936 34.193 90.7579 33.528 90.4891C32.9008 90.2356 32.2887 89.9544 31.6761 89.6728C31.0556 89.3879 30.4384 89.1 29.8342 88.7873C29.2008 88.4592 28.5803 88.1108 27.9657 87.7537C27.4229 87.4385 26.8863 87.117 26.3585 86.7794C25.7218 86.3725 25.096 85.9499 24.4826 85.5115C24.0204 85.1814 23.5682 84.8417 23.1198 84.4945C22.4819 84.0001 21.8526 83.4957 21.2434 82.9678C20.8693 82.6438 20.5073 82.3079 20.1445 81.9711C19.5045 81.3776 18.8707 80.7766 18.2669 80.1461C17.9901 79.8575 17.7287 79.5563 17.4598 79.2602C16.8119 78.546 16.1715 77.8251 15.5713 77.0694C15.4122 76.8687 15.2667 76.658 15.1108 76.4548Z" fill="#338877"/>
<path d="M41.9937 74.3333C40.4744 74.3333 39.007 73.7557 37.9058 72.7117L24.7961 60.281C22.4586 58.0645 22.3939 54.4077 24.6518 52.1131C26.9097 49.8186 30.6348 49.7549 32.9723 51.9714L41.3158 59.8826L65.762 28.2831C67.7275 25.7425 71.419 25.2472 74.0072 27.1764C76.5953 29.1059 77.1001 32.7297 75.1346 35.2705L46.6803 72.0505C45.6631 73.3654 44.1213 74.19 42.4444 74.3165C42.2939 74.3278 42.1435 74.3333 41.9937 74.3333Z" fill="white"/>
</svg>
