<svg width="60" height="60" viewBox="0 0 60 60" fill="none" xmlns="http://www.w3.org/2000/svg">
<path d="M30.0001 60C46.5687 60 60 46.5686 60 30C60 13.4314 46.5687 0 30.0001 0C13.4315 0 0 13.4314 0 30C0 46.5686 13.4315 60 30.0001 60Z" fill="#BB9960" fill-opacity="0.3"/>
<path d="M29.9999 33.7227C31.7328 33.7227 33.3649 34.0652 34.8079 34.6611C37.1967 33.0808 39.3001 31.1157 41.0587 28.8639L37.9234 27.4166C37.6391 27.2858 37.456 27.0036 37.4511 26.6915C37.4456 26.3786 37.6207 26.0909 37.9002 25.9512L44.7209 22.5413C45.9562 19.4889 46.6514 16.16 46.6514 12.665C46.6514 11.5565 46.5613 10.4712 46.4285 9.39883C41.9208 5.7994 36.217 3.63452 30.0001 3.63452C15.4384 3.63452 3.63403 15.4389 3.63403 30.0005C3.63403 31.1087 3.72421 32.1943 3.85722 33.2666C8.35092 36.8546 14.0338 39.0147 20.2278 39.0282C21.7812 35.9242 25.5722 33.7227 29.9999 33.7227ZM15.0506 30.3412C14.862 29.9335 15.0404 29.4505 15.4482 29.2624L21.1096 26.6492L15.425 23.8072C15.0235 23.6062 14.8605 23.118 15.0613 22.7162C15.2621 22.3139 15.7506 22.1525 16.1521 22.3525L23.3497 25.9509C23.6292 26.0907 23.8043 26.3784 23.7989 26.6913C23.7939 27.0034 23.6108 27.2856 23.3266 27.4164L16.1289 30.7386L15.7892 30.8138C15.482 30.814 15.1876 30.6392 15.0506 30.3412Z" fill="#F95265"/>
<path d="M3.85827 33.2682C4.44763 38.0247 6.31161 42.3814 9.08306 46.0055C9.17647 46.1275 9.26365 46.2541 9.35905 46.3746C9.71875 46.8285 10.1026 47.2614 10.4909 47.6903C10.6521 47.8682 10.8088 48.049 10.9747 48.2224C11.3366 48.601 11.7165 48.962 12.1001 49.3184C12.3178 49.5207 12.5345 49.7224 12.7587 49.917C13.1239 50.2341 13.501 50.537 13.8834 50.8339C14.1522 51.0424 14.4234 51.2464 14.7002 51.4447C15.0681 51.708 15.4432 51.9618 15.8246 52.2062C16.1409 52.4089 16.4625 52.602 16.7878 52.7913C17.1563 53.0058 17.5282 53.215 17.9078 53.412C18.27 53.5999 18.6401 53.7727 19.0118 53.9439C19.3789 54.113 19.7459 54.2819 20.1217 54.4341C20.53 54.5995 20.9475 54.744 21.3655 54.8892C21.7257 55.0145 22.0829 55.1448 22.45 55.2546C22.9106 55.3924 23.3819 55.5027 23.853 55.6153C24.1962 55.6975 24.535 55.7912 24.8832 55.8597C25.423 55.966 25.9743 56.0375 26.5255 56.1102C26.8194 56.1491 27.1076 56.2052 27.4046 56.2343C28.2517 56.3172 29.1094 56.3636 29.9785 56.3643C29.9859 56.3643 29.9934 56.3653 30.0009 56.3653C44.5623 56.3653 56.3667 44.561 56.3667 29.9994C56.3667 29.9981 56.3667 29.9969 56.3667 29.9956C56.3667 29.1684 56.3179 28.3536 56.2429 27.5463C56.2312 27.4197 56.2232 27.292 56.2098 27.1659C56.1286 26.4087 56.012 25.6626 55.868 24.926C55.8359 24.7624 55.8025 24.599 55.7674 24.4366C55.6132 23.7219 55.4351 23.0165 55.2244 22.3248C55.175 22.1628 55.1187 22.0037 55.0662 21.8433C54.8644 21.2245 54.6432 20.6145 54.3976 20.0166C54.3231 19.835 54.2476 19.6545 54.1692 19.4751C53.9268 18.9206 53.6625 18.3781 53.3835 17.8443C53.269 17.6251 53.1574 17.4041 53.037 17.1887C52.7389 16.6548 52.4203 16.1345 52.0867 15.6243C51.9211 15.3708 51.7505 15.1204 51.5763 14.8731C51.2582 14.421 50.9297 13.9771 50.5844 13.5466C50.3622 13.2694 50.1296 13.0011 49.8964 12.7331C49.6558 12.4566 49.409 12.1863 49.1574 11.92C48.7952 11.5369 48.4223 11.1653 48.0379 10.8044C47.7898 10.5712 47.5392 10.341 47.2822 10.1176C47.0017 9.87348 46.7205 9.62988 46.4295 9.39772V9.39746C46.5623 10.4698 46.6525 11.5551 46.6525 12.6636C46.6525 16.1586 45.9572 19.4876 44.722 22.54L45.0989 22.3516C45.5019 22.1521 45.9896 22.3143 46.1896 22.7153C46.3904 23.1169 46.2278 23.6053 45.826 23.8064L43.6272 24.9056C43.1507 25.8123 42.6306 26.6911 42.0551 27.5318L45.8028 29.2618C46.2106 29.4499 46.3889 29.9329 46.2004 30.3406C46.0634 30.6385 45.7689 30.8134 45.4615 30.8134L45.1218 30.7382L41.0595 28.8632C39.3009 31.1151 37.1975 33.0799 34.8087 34.6604C38.2006 36.0608 40.5294 38.8871 40.5294 42.1447C40.5294 42.5939 40.1653 42.9583 39.7159 42.9583C39.2668 42.9583 38.9026 42.5941 38.9026 42.1447C38.9026 39.2032 36.4378 36.6998 33.0057 35.7559C29.7498 37.5534 26.0699 38.6601 22.1581 38.9359C21.4841 39.8922 21.0997 40.9847 21.0997 42.145C21.0997 42.5941 20.7355 42.9585 20.2861 42.9585C19.837 42.9585 19.4729 42.5944 19.4729 42.145C19.4729 41.0435 19.7461 39.9933 20.2289 39.0281C14.0346 39.0146 8.35196 36.8545 3.85827 33.2665C3.85802 33.267 3.85827 33.2675 3.85827 33.2682Z" fill="#EE3658"/>
<path d="M22.1575 38.9353C26.0695 38.6598 29.7492 37.5529 33.0051 35.7554C32.0645 35.4968 31.0559 35.3484 30 35.3484C26.6113 35.3486 23.6605 36.8023 22.1575 38.9353Z" fill="#F95265"/>
<path d="M42.0539 27.5322C42.6291 26.6915 43.1495 25.8127 43.626 24.906L40.1401 26.6487L42.0539 27.5322Z" fill="#E62A3F"/>
<path d="M23.3267 27.4165C23.6109 27.2857 23.794 27.0035 23.799 26.6914C23.8045 26.3785 23.6294 26.0908 23.3499 25.9511L16.1523 22.3526C15.7507 22.1526 15.2622 22.314 15.0615 22.7163C14.8604 23.1178 15.0233 23.6063 15.4251 23.8073L21.1098 26.6493L15.4483 29.2625C15.0405 29.4506 14.8622 29.9336 15.0507 30.3414C15.1878 30.6393 15.4822 30.8141 15.7896 30.8141L16.1293 30.7389L23.3267 27.4165Z" fill="black"/>
<path d="M37.4508 26.6914C37.4558 27.0035 37.6389 27.2857 37.9231 27.4165L41.0585 28.8638L45.1207 30.7387L45.4605 30.8139C45.7679 30.8139 46.0623 30.6391 46.1993 30.3411C46.3879 29.9334 46.2095 29.4504 45.8018 29.2623L42.0541 27.5323L40.1403 26.6491L43.6261 24.9064L45.8249 23.8071C46.2267 23.6061 46.3894 23.1179 46.1886 22.7161C45.9886 22.3151 45.5006 22.1529 45.0978 22.3524L44.7209 22.5407L37.9002 25.9506C37.6204 26.0908 37.4453 26.3785 37.4508 26.6914Z" fill="black"/>
<path d="M20.2279 39.0281C19.7452 39.9934 19.4719 41.0436 19.4719 42.1451C19.4719 42.5942 19.8361 42.9586 20.2852 42.9586C20.7343 42.9586 21.0988 42.5944 21.0988 42.1451C21.0988 40.9848 21.4831 39.8925 22.1572 38.936C23.6605 36.803 26.611 35.3493 29.9997 35.3493C31.0556 35.3493 32.0642 35.4977 33.0048 35.7563C36.4366 36.7001 38.9017 39.2035 38.9017 42.1451C38.9017 42.5942 39.2661 42.9586 39.715 42.9586C40.1641 42.9586 40.5285 42.5944 40.5285 42.1451C40.5285 38.8874 38.1997 36.0612 34.8078 34.6607C33.3647 34.0649 31.7327 33.7224 29.9997 33.7224C25.572 33.7227 21.781 35.9242 20.2279 39.0281Z" fill="black"/>
</svg>
