<svg width="60" height="60" viewBox="0 0 60 60" fill="none" xmlns="http://www.w3.org/2000/svg">
<path d="M30.0001 60C46.5687 60 60 46.5686 60 30C60 13.4314 46.5685 0 30.0001 0C13.4315 0 0 13.4314 0 30C0 46.5686 13.4315 60 30.0001 60Z" fill="#BB9960" fill-opacity="0.3"/>
<path d="M22.2001 39.0001C21.3263 37.6505 20.725 36.1962 20.7001 34.5001H35.4001C42.2592 29.7424 46.677 21.5888 46.677 12.6225C46.677 11.515 46.5865 10.4306 46.4535 9.35925C41.9396 5.76304 36.2279 3.6001 30.0026 3.6001C15.4208 3.6001 3.6001 15.3939 3.6001 29.9425C3.6001 31.0497 3.77696 32.5217 3.90991 33.5931C8.42379 37.1893 13.5541 38.6873 20.2747 38.9648C20.9128 38.9912 21.6588 39.0329 22.2001 39.0001Z" fill="#3D9281"/>
<path d="M3.83622 33.1478C4.4262 37.8997 6.29214 42.2523 9.0665 45.8729C9.16001 45.9948 9.24729 46.1213 9.34279 46.2417C9.70287 46.6951 10.0871 47.1276 10.4759 47.5562C10.6372 47.7338 10.794 47.9145 10.9601 48.0877C11.3224 48.466 11.7027 48.8266 12.0867 49.1827C12.3044 49.3848 12.5216 49.5863 12.746 49.7807C13.1116 50.0975 13.4891 50.4001 13.8719 50.6968C14.1409 50.905 14.4122 51.1089 14.6895 51.307C15.0576 51.57 15.4331 51.8236 15.8151 52.0677C16.1318 52.2703 16.4537 52.4631 16.7794 52.6523C17.1482 52.8665 17.5205 53.0756 17.9005 53.2724C18.2631 53.4601 18.6334 53.6328 19.0057 53.8037C19.3732 53.9727 19.7405 54.1414 20.1168 54.2935C20.5255 54.4587 20.9434 54.6031 21.3618 54.7481C21.7224 54.8733 22.08 55.0035 22.4475 55.1132C22.9088 55.2508 23.3806 55.3611 23.8522 55.4736C24.1958 55.5557 24.5349 55.6493 24.8835 55.7177C25.4239 55.824 25.9757 55.8954 26.5275 55.968C26.8218 56.0069 27.1103 56.0629 27.4075 56.092C28.2556 56.1749 29.1141 56.2211 29.9841 56.2219C29.9916 56.2219 29.9988 56.2229 30.0066 56.2229C44.5833 56.2229 56.4001 44.4298 56.4001 29.8821C56.4001 29.8808 56.3999 29.8796 56.3999 29.8783C56.3999 29.0519 56.351 28.2379 56.2761 27.4313C56.2644 27.3049 56.2565 27.1772 56.2428 27.0513C56.1615 26.2948 56.045 25.5494 55.9006 24.8136C55.8685 24.6501 55.8348 24.4868 55.7999 24.3246C55.6455 23.6106 55.4672 22.9058 55.2563 22.2148C55.2069 22.053 55.1503 21.894 55.0979 21.7337C54.896 21.1156 54.6745 20.5061 54.4287 19.9088C54.3541 19.7274 54.2786 19.547 54.2 19.3678C53.9571 18.8139 53.6928 18.2719 53.4135 17.7386C53.2988 17.5196 53.1874 17.2988 53.0667 17.0836C52.7682 16.5503 52.4493 16.0304 52.1154 15.5207C51.9496 15.2674 51.7787 15.0173 51.6044 14.7702C51.286 14.3185 50.9569 13.875 50.6115 13.445C50.3891 13.168 50.1562 12.9 49.9228 12.6322C49.6819 12.356 49.4348 12.086 49.1829 11.82C48.8206 11.4372 48.4471 11.0659 48.0626 10.7053C47.8142 10.4724 47.5634 10.2425 47.306 10.0192C47.0252 9.77536 46.7437 9.53198 46.4524 9.30005C46.5854 10.3714 46.6756 11.4554 46.6756 12.5628C46.6756 21.5286 42.2569 29.7426 35.4001 34.5H39.3001C39.2722 37.3457 38.0696 39.58 35.872 41.2041C34.2447 42.4257 32.2139 43.1474 30.0023 43.1474C27.7908 43.1474 25.76 42.4255 24.1327 41.2041C23.2505 40.5478 22.5017 39.7366 21.9092 38.8215C21.3681 38.8546 20.8312 38.9036 20.2816 38.9036C14.0581 38.9036 8.34836 36.7408 3.83598 33.1448C3.83598 33.1466 3.83622 33.1478 3.83622 33.1478Z" fill="#338877"/>
<path d="M21.2351 28.16C22.6855 27.9246 23.6705 26.558 23.4351 25.1075C23.1997 23.6571 21.833 22.6721 20.3826 22.9075C18.9321 23.1429 17.9472 24.5096 18.1826 25.96C18.418 27.4104 19.7846 28.3954 21.2351 28.16Z" fill="black"/>
<path d="M39.3591 28.2049C40.846 28.2049 42.0514 26.9995 42.0514 25.5126C42.0514 24.0257 40.846 22.8203 39.3591 22.8203C37.8721 22.8203 36.6667 24.0257 36.6667 25.5126C36.6667 26.9995 37.8721 28.2049 39.3591 28.2049Z" fill="black"/>
<path d="M21.9298 38.9299C22.5204 39.8336 23.2671 40.6348 24.1471 41.2829C25.5617 39.7476 27.6562 38.7878 30.0004 38.7878C32.3445 38.7878 34.4387 39.7473 35.8536 41.2829C38.0451 39.679 39.4599 37.1701 39.4875 34.3599H20.5132C20.5378 36.0346 21.0587 37.5968 21.9298 38.9299Z" fill="black"/>
<path d="M24.1023 41.3263C25.7373 42.5877 27.7777 43.3329 29.9997 43.3329C32.2218 43.3329 34.2622 42.5875 35.8972 41.3263C34.4719 39.721 32.3616 38.7175 29.9997 38.7175C27.6379 38.7175 25.5279 39.7207 24.1023 41.3263Z" fill="#EA4F51"/>
</svg>
