<svg width="48" height="48" viewBox="0 0 48 48" fill="none" xmlns="http://www.w3.org/2000/svg">
<path d="M27.6338 37.7123V43.7543H25.1338V35.3188L27.6338 37.7123ZM22.1719 43.7543H19.6719V37.5102L22.1719 35.1186V43.7543ZM17.5205 4.29144C18.2967 4.18445 19.0267 4.25796 19.6641 4.57562V4.57465C20.1738 4.83334 20.5982 5.23085 20.8906 5.7182L21.0078 5.93304L21.0098 5.93597C21.5094 6.90686 21.5795 8.13279 21.624 8.94769L21.6475 9.38129L22.0107 9.14301C22.4396 8.86141 22.8638 8.73907 23.2373 8.68304V8.68402L23.25 8.68109C23.3001 8.67083 23.3506 8.66251 23.4014 8.65668L23.5547 8.64594H23.6426C23.7978 8.64287 23.9532 8.64354 24.1084 8.64789H24.2588C24.4143 8.64954 24.569 8.67773 24.7148 8.73187L24.7256 8.73676L24.7373 8.73969C25.0454 8.82188 25.3369 8.95703 25.5986 9.1391L25.9678 9.39594L25.9912 8.94672C26.0336 8.13274 26.107 6.90943 26.6045 5.94476L26.6064 5.94086C26.8959 5.35485 27.3666 4.8777 27.9492 4.58148C28.5864 4.26382 29.3168 4.19209 30.0938 4.29926L30.0977 4.30023C30.6861 4.37107 31.2402 4.6102 31.6934 4.98676L31.8809 5.15668C32.3194 5.61003 32.6209 6.17805 32.751 6.79535L32.752 6.80023C33.0143 7.94307 32.8383 9.29966 32.4902 10.5971C31.7839 13.227 30.1872 16.2564 28.4893 18.3139C28.1763 18.6908 27.9574 19.1758 27.8154 19.6664V19.6684C27.6971 20.0872 27.6506 20.4613 27.6387 20.6996L25.1338 21.2524V20.8159C25.1338 20.0319 25.3672 18.3552 26.3545 16.9916L26.5625 16.7231C28.0403 14.9306 29.4656 12.2206 30.0752 9.94867C30.385 8.79647 30.4408 7.91171 30.3154 7.36273V7.36176C30.256 7.10556 30.1719 6.98088 30.1123 6.92133L30.0996 6.90863L30.0859 6.89789L30.0918 6.90179C30.086 6.89698 30.0775 6.89051 30.0674 6.88324C30.0469 6.86864 30.0216 6.85429 29.9912 6.84027C29.931 6.81251 29.853 6.7893 29.75 6.77582H29.749C29.4337 6.7321 29.2464 6.75848 29.1406 6.79047L29.0605 6.82269C29.0606 6.82268 29.0528 6.82617 29.0449 6.83051C29.0359 6.83549 29.0256 6.84149 29.0146 6.84906C28.9926 6.86437 28.9706 6.88306 28.9492 6.9057C28.9076 6.94979 28.8672 7.00868 28.8271 7.08734C28.715 7.3057 28.6443 7.5846 28.5938 7.91254C28.5429 8.24302 28.5105 8.64184 28.4844 9.1098V9.11273L28.4766 9.28461C28.4665 9.46576 28.4556 9.65599 28.4424 9.84418L28.3916 10.3911C28.348 10.74 28.2529 11.3274 27.8975 11.7895V11.7905C27.6639 12.0971 27.3322 12.3152 26.958 12.4077C26.6631 12.4804 26.3828 12.4624 26.1396 12.4086L25.9092 12.3452L25.708 12.268C25.2402 12.0663 24.7747 11.7141 24.3174 11.3071C24.2703 11.2628 24.2195 11.2228 24.165 11.1879L24.1143 11.1547L24.0547 11.1489L24.0352 11.1469H24.0254C23.8691 11.1374 23.7115 11.1434 23.5566 11.1664L23.5381 11.1694L23.5205 11.1752L23.4688 11.1909L23.4434 11.1987L23.4209 11.2114C23.3758 11.2363 23.3339 11.2664 23.2959 11.3012C22.7723 11.7653 22.2422 12.1602 21.707 12.3393H21.7051C21.4178 12.4368 21.0501 12.4964 20.6553 12.4008H20.6562C20.2821 12.3083 19.9503 12.0912 19.7168 11.7846V11.7836L19.5957 11.6059C19.3396 11.1787 19.2618 10.6899 19.2217 10.3832C19.1995 10.2111 19.1839 10.0254 19.1709 9.83734L19.1377 9.27582L19.1299 9.10492V9.10297L19.085 8.45258C19.0673 8.25322 19.0461 8.07098 19.0205 7.9057C18.9698 7.5781 18.8982 7.2998 18.7861 7.08246H18.7871C18.7464 7.00233 18.7052 6.94388 18.6641 6.89984C18.6432 6.87746 18.6235 6.8593 18.6045 6.84515L18.5605 6.81586L18.541 6.80707C18.4825 6.78115 18.3314 6.72731 18.0107 6.75238L17.8623 6.76801C17.7553 6.7826 17.6717 6.80697 17.6055 6.83832C17.5348 6.87181 17.4929 6.90891 17.4688 6.93304C17.4028 6.99899 17.3097 7.12841 17.2402 7.39203V7.39301C17.1133 7.87783 17.1173 8.6159 17.3037 9.56195L17.3945 9.97992C17.8961 12.102 19.1119 14.6045 20.4717 16.3735L20.7451 16.7172C21.9063 18.1237 22.1719 19.9758 22.1719 20.81V21.2963L19.6689 20.7455C19.6636 20.5759 19.6401 20.3195 19.5781 20.0209L19.4902 19.6635C19.3499 19.1713 19.1286 18.6872 18.8164 18.309C17.1067 16.2384 15.5861 13.1946 14.9609 10.5541C14.6508 9.24851 14.5229 7.892 14.8213 6.75433C14.9572 6.24227 15.1911 5.73814 15.5654 5.31097L15.7344 5.13324C16.218 4.66449 16.8293 4.38697 17.5205 4.29144Z" fill="#015645" stroke="#E9E0D9" stroke-width="0.5"/>
<path d="M7.89258 9.76849C9.07993 9.08521 10.4228 9.1406 11.5967 9.88177V9.8808C12.7037 10.5822 13.5986 11.8396 14.2559 13.4745C14.4255 13.9065 14.5955 14.3594 14.7666 14.8329L14.7676 14.8339C15.2856 16.2552 15.8627 17.845 16.8447 19.3134L17.0469 19.6054C18.3767 21.4623 20.3558 22.9694 23.75 23.04V25.54C19.706 25.4706 17.0937 23.7219 15.3564 21.5146L15.0137 21.0585C14.0168 19.665 13.3198 18.0825 12.7969 16.7245L12.3271 15.457C12.1841 15.0532 12.0538 14.7034 11.9365 14.4081V14.4072L11.7266 13.9228C11.231 12.861 10.6971 12.2678 10.2617 11.9941C10.0596 11.8669 9.86467 11.7947 9.66699 11.789C9.46819 11.7833 9.29523 11.846 9.13867 11.9365C8.76787 12.1481 8.30383 12.6417 7.89551 13.5585L7.72363 13.9785C7.28887 15.1488 6.99414 16.7763 6.99414 18.8642V29.8036C6.99414 30.5168 7.14635 32.2029 7.92285 33.6611C8.28273 34.3392 8.77907 34.9805 9.49805 35.4511C10.2186 35.9227 11.1468 36.2119 12.3525 36.2119C13.5766 36.2118 14.3771 35.8806 15.0176 35.416L15.0186 35.4169C15.6962 34.926 16.23 34.2674 16.9062 33.4384L16.9111 33.4316L16.9619 33.3632C17.5843 32.5984 18.3265 31.7017 19.334 30.9872L19.54 30.8466C20.6409 30.1176 21.9909 29.6516 23.75 29.6113V32.1113C22.4667 32.1496 21.5962 32.4834 20.918 32.9316C20.1603 33.4332 19.575 34.1159 18.8984 34.9482L18.7686 35.1083H18.7676C18.2321 35.7702 17.6106 36.5355 16.8301 37.1757L16.4854 37.4413C15.418 38.2145 14.1036 38.7118 12.3525 38.7119C9.06202 38.7119 7.06404 37.1035 5.92871 35.2158L5.71289 34.8349C4.67159 32.8751 4.49414 30.7305 4.49414 29.8036V18.8642L4.49805 18.4355C4.53565 16.3171 4.85307 14.526 5.38281 13.1054C5.9394 11.6101 6.7776 10.4108 7.89258 9.76849Z" fill="#015645" stroke="#E9E0D9" stroke-width="0.5"/>
<path d="M36.4043 9.88177C37.578 9.14075 38.9202 9.08539 40.1074 9.76849C41.2225 10.4108 42.0615 11.61 42.6182 13.1054C43.1832 14.6208 43.5068 16.558 43.5068 18.8642V29.8036C43.5068 30.6726 43.3503 32.6119 42.4727 34.4658L42.2871 34.8349C41.1967 36.8818 39.1582 38.7118 35.6484 38.7119C33.8972 38.7119 32.5821 38.2145 31.5146 37.4413H31.5156C30.5701 36.7555 29.8444 35.8648 29.2324 35.1083L29.1025 34.9482L28.6074 34.3525C28.1218 33.7859 27.6503 33.3078 27.082 32.9316C26.4037 32.4834 25.5336 32.1495 24.25 32.1113V29.6113C26.0093 29.6515 27.359 30.1176 28.46 30.8466H28.4609C29.5768 31.5828 30.3772 32.5521 31.042 33.3691L31.0898 33.4316L31.0947 33.4384C31.7709 34.2673 32.3038 34.926 32.9814 35.4169V35.416C33.6221 35.8809 34.4236 36.2119 35.6484 36.2119C36.8542 36.2118 37.7824 35.9227 38.5029 35.4511C39.1321 35.0393 39.5898 34.4966 39.9355 33.913L40.0771 33.6611C40.8537 32.2029 41.0068 30.5169 41.0068 29.8036V18.8642C41.0068 16.7763 40.7111 15.1488 40.2764 13.9785L40.1055 13.5585C39.7554 12.7724 39.3644 12.2977 39.0264 12.0449L38.8623 11.9365C38.7056 11.8458 38.532 11.7833 38.333 11.789C38.185 11.7933 38.0386 11.835 37.8896 11.9091L37.7393 11.9941C37.2416 12.3068 36.615 13.0369 36.0645 14.4072V14.4081C36.0057 14.556 35.9432 14.7174 35.8779 14.8925L35.6729 15.457C35.1116 17.0064 34.3163 19.2007 32.9873 21.0585C31.2584 23.4764 28.5696 25.4661 24.25 25.54V23.04C27.6444 22.9695 29.6233 21.4623 30.9531 19.6054H30.9541C32.0608 18.0577 32.6809 16.3499 33.2334 14.8339V14.8329C33.4047 14.3589 33.5744 13.905 33.7441 13.4726C34.4013 11.8384 35.2977 10.583 36.4043 9.88177ZM17.5 26.9599C17.8314 26.9599 18.1494 27.0918 18.3838 27.3261C18.6182 27.5605 18.75 27.8784 18.75 28.2099C18.75 28.5414 18.6182 28.8593 18.3838 29.0937C18.1494 29.328 17.8315 29.4599 17.5 29.4599C17.1686 29.4598 16.8505 29.328 16.6162 29.0937C16.3819 28.8593 16.25 28.5413 16.25 28.2099C16.25 27.8785 16.3819 27.5605 16.6162 27.3261C16.8505 27.0918 17.1686 26.96 17.5 26.9599ZM12.5068 23.2499C12.8382 23.2501 13.1563 23.3818 13.3906 23.6161C13.6249 23.8505 13.7568 24.1685 13.7568 24.4999C13.7568 24.8313 13.6249 25.1493 13.3906 25.3837C13.1563 25.618 12.8382 25.7498 12.5068 25.7499C12.1753 25.7499 11.8565 25.6181 11.6221 25.3837C11.3878 25.1493 11.2568 24.8313 11.2568 24.4999C11.2569 24.1685 11.3878 23.8505 11.6221 23.6161C11.8565 23.3817 12.1753 23.2499 12.5068 23.2499ZM10.0684 17.2499C10.3999 17.2499 10.7177 17.3817 10.9521 17.6161C11.1866 17.8506 11.3183 18.1684 11.3184 18.4999C11.3184 18.8314 11.1866 19.1493 10.9521 19.3837C10.7177 19.6181 10.3999 19.7499 10.0684 19.7499C9.73684 19.7499 9.41899 19.6181 9.18457 19.3837C8.95017 19.1493 8.81836 18.8314 8.81836 18.4999C8.81837 18.1684 8.95016 17.8506 9.18457 17.6161C9.41899 17.3817 9.73685 17.2499 10.0684 17.2499Z" fill="#015645" stroke="#E9E0D9" stroke-width="0.5"/>
<path d="M10.0684 29.25C10.3999 29.25 10.7177 29.3818 10.9521 29.6162C11.1866 29.8506 11.3184 30.1685 11.3184 30.5C11.3184 30.8315 11.1866 31.1494 10.9521 31.3838C10.7177 31.6182 10.3999 31.75 10.0684 31.75C9.73684 31.75 9.41899 31.6182 9.18457 31.3838C8.95015 31.1494 8.81836 30.8315 8.81836 30.5L8.82422 30.376C8.85272 30.09 8.97956 29.8212 9.18457 29.6162C9.41899 29.3818 9.73684 29.25 10.0684 29.25ZM37.8604 29.25C38.1919 29.25 38.5097 29.3818 38.7441 29.6162C38.9786 29.8506 39.1104 30.1685 39.1104 30.5C39.1104 30.8315 38.9786 31.1494 38.7441 31.3838C38.5097 31.6182 38.1919 31.75 37.8604 31.75C37.5288 31.75 37.211 31.6182 36.9766 31.3838C36.7421 31.1494 36.6104 30.8315 36.6104 30.5C36.6104 30.1685 36.7421 29.8506 36.9766 29.6162C37.211 29.3818 37.5288 29.25 37.8604 29.25ZM30.5088 26.96C30.8402 26.9601 31.1583 27.0919 31.3926 27.3262C31.6269 27.5606 31.7588 27.8785 31.7588 28.21C31.7588 28.5414 31.6269 28.8594 31.3926 29.0938C31.1583 29.3281 30.8402 29.4598 30.5088 29.46C30.1773 29.46 29.8584 29.3282 29.624 29.0938C29.3898 28.8594 29.2588 28.5413 29.2588 28.21C29.2588 27.8786 29.3898 27.5606 29.624 27.3262C29.8584 27.0918 30.1773 26.96 30.5088 26.96ZM35.4199 23.25C35.7514 23.25 36.0703 23.3818 36.3047 23.6162C36.5389 23.8506 36.6699 24.1686 36.6699 24.5C36.6699 24.8314 36.5389 25.1494 36.3047 25.3838C36.0703 25.6182 35.7514 25.75 35.4199 25.75C35.0886 25.7499 34.7705 25.6181 34.5361 25.3838C34.3018 25.1494 34.1699 24.8314 34.1699 24.5C34.1699 24.1686 34.3018 23.8506 34.5361 23.6162C34.7705 23.3819 35.0886 23.2501 35.4199 23.25ZM37.8604 17.25C38.1919 17.25 38.5097 17.3818 38.7441 17.6162C38.9786 17.8506 39.1104 18.1685 39.1104 18.5C39.1104 18.8315 38.9786 19.1494 38.7441 19.3838C38.5097 19.6182 38.1919 19.75 37.8604 19.75C37.5288 19.75 37.211 19.6182 36.9766 19.3838C36.7421 19.1494 36.6104 18.8315 36.6104 18.5C36.6104 18.1685 36.7421 17.8506 36.9766 17.6162C37.211 17.3818 37.5288 17.25 37.8604 17.25Z" fill="#015645" stroke="#E9E0D9" stroke-width="0.5"/>
</svg>
