<svg width="48" height="48" viewBox="0 0 48 48" fill="none" xmlns="http://www.w3.org/2000/svg">
<path d="M17.8516 26.0006H19.4516C20.7116 26.0006 21.3416 26.0006 21.8476 26.3006C22.3556 26.5986 22.6376 27.1366 23.1996 28.2126L26.2336 34.0006L30.4236 22.0006L33.4556 27.7886C34.0196 28.8646 34.2996 29.4026 34.8076 29.7026C35.3136 30.0006 35.9436 30.0006 37.2036 30.0006H39.8516" stroke="#015645" stroke-width="2" stroke-linecap="round" stroke-linejoin="round"/>
<path d="M40.8516 24C39.3156 16.8298 33.2996 10.0776 28.8996 5.9435C27.5873 4.69613 25.846 4.00058 24.0356 4.00058C22.2251 4.00058 20.4838 4.69613 19.1716 5.9435C14.0916 10.7196 6.85156 18.9879 6.85156 27.3561C6.85156 35.5603 13.3596 44.0006 24.0356 44.0006C30.8216 44.0006 35.9236 40.5925 38.7396 36.0003" stroke="#015645" stroke-width="2" stroke-linecap="round"/>
</svg>
