<svg width="48" height="48" viewBox="0 0 48 48" fill="none" xmlns="http://www.w3.org/2000/svg">
<g clip-path="url(#clip0_78_9584)">
<path fill-rule="evenodd" clip-rule="evenodd" d="M43.9816 23.9806L35.8875 23.9866C36.0194 24.3619 36.0925 24.766 36.0937 25.1857V25.9531C36.0937 27.1367 35.5241 28.1871 34.6428 28.843C34.9905 29.3946 35.1908 30.0493 35.192 30.7496V31.5171C35.1924 31.9896 35.0998 32.4576 34.9194 32.8943C34.739 33.331 34.4743 33.7279 34.1404 34.0623C33.8066 34.3967 33.4101 34.662 32.9737 34.8432C32.5373 35.0243 32.0695 35.1177 31.597 35.1181H30.9483C31.0802 35.4934 31.1533 35.8975 31.1533 36.3172L31.1545 37.0846C31.155 37.5571 31.0624 38.0251 30.8819 38.4618C30.7015 38.8985 30.4368 39.2954 30.103 39.6298C29.7691 39.9642 29.3727 40.2296 28.9363 40.4107C28.4999 40.5919 28.032 40.6853 27.5595 40.6856L14.2936 40.6964C6.40574 40.7024 0.00600173 34.3134 6.09491e-06 26.4256C-0.00270369 23.4917 0.898223 20.6282 2.58028 18.2244C4.26234 15.8206 6.64391 13.9932 9.40116 12.9906L23.7679 7.76838C24.464 7.51465 25.2184 7.46656 25.9411 7.62985C26.6638 7.79315 27.3243 8.16093 27.8437 8.68931C29.8151 10.6919 29.0572 14.0614 26.4192 15.0303L23.6791 16.034L43.9756 16.0184C45.0314 16.0176 46.0443 16.4362 46.7915 17.1823C47.5387 17.9283 47.9589 18.9406 47.9597 19.9965C47.9605 21.0523 47.5418 22.0652 46.7957 22.8124C46.0497 23.5596 45.0374 23.9798 43.9816 23.9806ZM43.9768 18.4166C44.3966 18.4163 44.7993 18.5828 45.0964 18.8794C45.3934 19.176 45.5605 19.5785 45.5608 19.9983C45.5611 20.4181 45.3947 20.8208 45.098 21.1179C44.8014 21.4149 44.399 21.582 43.9792 21.5823H43.1614L43.1638 21.4936V21.4864C43.1638 20.4935 42.0893 19.6877 40.7655 19.6901C39.4405 19.6901 38.3673 20.4971 38.3673 21.49C38.3673 21.522 38.3684 21.5539 38.3708 21.5859L25.798 21.5967L25.8004 23.995L32.4951 23.989C32.8132 23.989 33.1182 24.1153 33.343 24.3402C33.5679 24.5651 33.6943 24.8701 33.6943 25.1881L33.6955 25.9555C33.6955 26.2736 33.5691 26.5786 33.3442 26.8034C33.1194 27.0283 32.8144 27.1547 32.4963 27.1547L25.8028 27.1607L25.8052 29.5589L31.5934 29.5541C31.9114 29.5541 32.2164 29.6804 32.4413 29.9053C32.6662 30.1302 32.7925 30.4352 32.7925 30.7532L32.7937 31.5195C32.7937 31.8375 32.6674 32.1425 32.4425 32.3674C32.2176 32.5923 31.9126 32.7186 31.5946 32.7186L23.0736 32.727L23.076 35.1252L27.5559 35.1216C27.8737 35.1216 28.1786 35.2478 28.4034 35.4724C28.6283 35.6971 28.7547 36.0018 28.7551 36.3196L28.7563 37.087C28.7563 37.405 28.6299 37.71 28.405 37.9349C28.1802 38.1598 27.8752 38.2861 27.5571 38.2861L14.2912 38.2981C7.72837 38.3029 2.40305 32.986 2.39826 26.4232C2.39619 23.982 3.14599 21.5995 4.5457 19.5994C5.94541 17.5994 7.92711 16.079 10.2214 15.2449L24.5869 10.0227C24.9488 9.9036 25.3429 9.92987 25.6858 10.096C26.0287 10.2621 26.2935 10.5551 26.4243 10.913C26.5552 11.2708 26.5417 11.6656 26.3867 12.0137C26.2318 12.3618 25.9476 12.636 25.5942 12.7783L22.853 13.7832C20.336 14.7065 21.0003 18.4358 23.6804 18.4322L43.9768 18.4166Z" fill="#015645"/>
<path d="M40.7736 35.2775C42.7881 35.2775 44.3698 33.7666 44.3686 31.848C44.3662 30.0673 40.7652 25.6845 40.7652 25.6845C40.7652 25.6845 37.1714 29.9366 37.1738 31.8552C37.1738 33.7738 38.7591 35.2799 40.7736 35.2775Z" fill="#015645"/>
</g>
<defs>
<clipPath id="clip0_78_9584">
<rect width="48" height="48" fill="white"/>
</clipPath>
</defs>
</svg>
