<svg width="82" height="82" viewBox="0 0 82 82" fill="none" xmlns="http://www.w3.org/2000/svg">
<path d="M10.25 29.438V22.6047C10.25 21.0307 10.7773 19.7176 11.8319 18.6652C12.8865 17.6129 14.1985 17.0856 15.7679 17.0833H66.2321C67.8037 17.0833 69.1157 17.6106 70.1681 18.6652C71.2204 19.7199 71.7477 21.033 71.75 22.6047V39.688C71.75 40.1732 71.5871 40.5786 71.2614 40.9043C70.9334 41.2323 70.5268 41.3963 70.0417 41.3963C69.5565 41.3963 69.1499 41.2323 68.8219 40.9043C68.4939 40.5763 68.3311 40.1709 68.3333 39.688V22.6047C68.3333 22.0785 68.1147 21.5956 67.6773 21.156C67.24 20.7164 66.7582 20.4977 66.2321 20.5H15.7679C15.244 20.5 14.7623 20.7187 14.3227 21.156C13.8831 21.5933 13.6644 22.0762 13.6667 22.6047V29.438C13.6667 29.9232 13.5038 30.3286 13.1781 30.6543C12.8501 30.9823 12.4435 31.1463 11.9583 31.1463C11.4732 31.1463 11.0666 30.9823 10.7386 30.6543C10.4129 30.3286 10.25 29.9232 10.25 29.438ZM23.9167 56.375C23.5522 56.375 23.239 56.3067 22.9771 56.17C22.7151 56.0311 22.5067 55.801 22.3518 55.4798L16.0242 42.7083H11.9788C11.4914 42.7083 11.0848 42.5455 10.7591 42.2197C10.4334 41.894 10.2705 41.4874 10.2705 41C10.2705 40.5126 10.4334 40.106 10.7591 39.7802C11.0848 39.4545 11.4914 39.2917 11.9788 39.2917H17.1038C17.4227 39.2917 17.7109 39.3748 17.9682 39.5411C18.2256 39.7074 18.4306 39.9442 18.5833 40.2517L23.9167 50.8571L36.0185 26.5851C36.1711 26.3231 36.3898 26.1261 36.6745 25.994C36.9592 25.8619 37.2622 25.7958 37.5833 25.7958C37.9045 25.7958 38.1961 25.8619 38.458 25.994C38.7199 26.1261 38.9284 26.3231 39.0833 26.5851L45.8551 40.0672L44.3859 41.1435C43.9076 41.4988 43.4668 41.8849 43.0637 42.3017L37.515 31.2112L25.4132 55.4832C25.2583 55.8021 25.0499 56.0299 24.7879 56.1666C24.526 56.3055 24.2356 56.375 23.9167 56.375ZM15.7713 64.9167C14.1974 64.9167 12.8843 64.3905 11.8319 63.3382C10.7796 62.2858 10.2523 60.9716 10.25 59.3953V52.562C10.25 52.0768 10.4129 51.6714 10.7386 51.3457C11.0666 51.0177 11.4732 50.8537 11.9583 50.8537C12.4435 50.8537 12.8501 51.0177 13.1781 51.3457C13.5038 51.6714 13.6667 52.0768 13.6667 52.562V59.3953C13.6667 59.9215 13.8853 60.4044 14.3227 60.844C14.76 61.2836 15.2417 61.5023 15.7679 61.5H35.2498C35.7372 61.5 36.1438 61.6629 36.4695 61.9886C36.7952 62.3143 36.9581 62.7209 36.9581 63.2083C36.9581 63.6958 36.7952 64.1024 36.4695 64.4281C36.1438 64.7538 35.7372 64.9167 35.2498 64.9167H15.7713ZM48.3971 67.773C45.7435 65.1171 44.4167 61.8872 44.4167 58.0833C44.4167 54.2794 45.7435 51.0507 48.3971 48.3971C51.0507 45.7435 54.2794 44.4167 58.0833 44.4167C61.8872 44.4167 65.1171 45.7435 67.773 48.3971C70.4289 51.0507 71.7546 54.2794 71.75 58.0833C71.7454 61.8872 70.4198 65.1171 67.773 67.773C65.1262 70.4289 61.8963 71.7546 58.0833 71.75C54.2703 71.7454 51.0416 70.4198 48.3971 67.773ZM64.4212 53.6109C64.6764 53.3558 64.8153 53.0551 64.8381 52.7089C64.8609 52.3627 64.7231 52.0404 64.4247 51.742C64.1696 51.4892 63.8586 51.3627 63.4919 51.3627C63.1252 51.3627 62.8143 51.4892 62.5592 51.742L57.8339 56.4467C57.5811 56.7019 57.4433 57.0048 57.4205 57.3556C57.3977 57.7064 57.5355 58.0321 57.8339 58.3327C58.089 58.5856 58.4034 58.712 58.7769 58.712C59.1505 58.712 59.4648 58.5856 59.7199 58.3327L64.4212 53.6109Z" fill="#BB9960"/>
</svg>
