<svg width="83" height="83" viewBox="0 0 83 83" fill="none" xmlns="http://www.w3.org/2000/svg">
<g clip-path="url(#clip0_337_11159)">
<path d="M55.3201 13.8369C62.8401 13.8784 66.9131 14.2138 69.5684 16.8691C72.6076 19.9083 72.6076 24.7972 72.6076 34.575V55.32C72.6076 65.1013 72.6076 69.9902 69.5684 73.0293C66.5327 76.065 61.6404 76.065 51.8626 76.065H31.1176C21.3397 76.065 16.4474 76.065 13.4117 73.0293C10.3726 69.9867 10.3726 65.1013 10.3726 55.32V34.575C10.3726 24.7972 10.3726 19.9083 13.4117 16.8691C16.0671 14.2138 20.14 13.8784 27.6601 13.8369" stroke="#BB9960" stroke-width="4"/>
<path d="M27.6601 48.405H55.3201M24.2026 36.3037H58.7776M31.1176 60.5062H51.8626" stroke="#BB9960" stroke-width="4" stroke-linecap="round"/>
<path d="M27.6602 12.1012C27.6602 10.7258 28.2066 9.40662 29.1792 8.43401C30.1518 7.4614 31.4709 6.91499 32.8464 6.91499H50.1339C51.5094 6.91499 52.8285 7.4614 53.8011 8.43401C54.7738 9.40662 55.3202 10.7258 55.3202 12.1012V15.5587C55.3202 16.9342 54.7738 18.2534 53.8011 19.226C52.8285 20.1986 51.5094 20.745 50.1339 20.745H32.8464C31.4709 20.745 30.1518 20.1986 29.1792 19.226C28.2066 18.2534 27.6602 16.9342 27.6602 15.5587V12.1012Z" stroke="#BB9960" stroke-width="4"/>
<path d="M7.5 31.5L8 25.5H12.5L14 28.5C14.3333 29 15.1 30.1 15.5 30.5C16 31 15 35.5 15 36C15 36.4 14.3333 40.5 14 42.5L13 48L8 46.5L7.5 31.5Z" fill="#E9E0D9"/>
<path d="M7.64705 39.9955C7.52092 39.6212 7.25222 39.3117 6.8993 39.1343C6.54638 38.9569 6.13773 38.9259 5.76206 39.0479C5.38639 39.17 5.07403 39.4353 4.8928 39.7863C4.71156 40.1372 4.67608 40.5455 4.79405 40.9225C5.18557 42.1275 5.9485 43.1777 6.97352 43.9225C7.99854 44.6673 9.23302 45.0684 10.5001 45.0685C10.8979 45.0685 11.2794 44.9105 11.5607 44.6292C11.842 44.3479 12.0001 43.9663 12.0001 43.5685C12.0001 43.1707 11.842 42.7892 11.5607 42.5078C11.2794 42.2265 10.8979 42.0685 10.5001 42.0685C9.86654 42.0685 9.2493 41.8679 8.73679 41.4955C8.22428 41.1231 7.84281 40.598 7.64705 39.9955Z" fill="#BB9960"/>
<path fill-rule="evenodd" clip-rule="evenodd" d="M10.5 22L9.465 22.984L9.4575 22.99L9.4335 23.0125C9.3036 23.1376 9.17558 23.2646 9.0495 23.3935C7.51704 24.9442 6.09553 26.6008 4.7955 28.351C2.523 31.414 0 35.695 0 39.8245C0 45.328 4.8285 49.5685 10.5 49.5685C16.1715 49.5685 21 45.328 21 39.826C21 35.6965 18.4755 31.4155 16.206 28.351C14.8204 26.4872 13.2972 24.7297 11.649 23.0935L11.5665 23.0125L11.5425 22.99L11.5365 22.984L10.5 22ZM10.1955 26.5345L10.5 26.2075L10.8045 26.5345C11.622 27.4195 12.7095 28.6705 13.794 30.1345C16.0245 33.148 18 36.7435 18 39.8275C18 43.429 14.769 46.5685 10.5 46.5685C6.231 46.5685 3 43.429 3 39.826C3 36.7435 4.9755 33.1465 7.206 30.136C8.13714 28.8827 9.13509 27.6805 10.1955 26.5345Z" fill="#BB9960"/>
</g>
<defs>
<clipPath id="clip0_337_11159">
<rect width="82.98" height="82.98" fill="white"/>
</clipPath>
</defs>
</svg>
