<svg width="288" height="1072" viewBox="0 0 288 1072" fill="none" xmlns="http://www.w3.org/2000/svg">
<g opacity="0.5" clip-path="url(#clip0_284_13823)">
<g opacity="0.2">
<path d="M0 720.974C2.04944 719.241 4.12016 717.531 6.21925 715.861C29.0468 697.798 54.4982 683.922 78.6731 668.036C95.5509 656.131 107.84 643.625 116.79 631.728C134.845 607.737 141.327 577.001 138.384 546.598C132.256 483.228 100.955 451.353 100.955 451.353C130.789 527.008 97.8272 580.365 97.8272 580.365C77.3115 612.937 30.302 639.256 30.302 639.256C20.0831 645.105 9.94937 651.137 0 657.493V720.974Z" fill="#BB9960"/>
<path d="M39.6553 594.043C47.9736 592.064 75.5666 582.352 93.345 564.115C110.975 546.02 117.045 525.781 119.144 517.106C120.279 510.409 121.612 497.428 117.385 482.08C113.137 466.661 105.351 456.387 100.968 451.352C100.181 460.431 96.2951 493.169 70.1842 518.942C53.7745 535.145 30.7342 541.334 21.3096 543.828C28.1741 558.653 33.1027 573.297 39.6553 594.043Z" fill="#BB9960"/>
<path d="M0 535.303C17.672 558.915 27.4796 589.31 32.9329 619.206C33.4577 619.174 33.9257 619.064 34.3441 618.881C37.897 617.322 37.7977 610.713 36.4219 606.28C26.8059 575.418 16.2963 543.25 0.0070915 516.013V535.303H0Z" fill="#BB9960"/>
<path d="M101.154 1120.49C98.2956 1108.84 96.7142 1096.69 95.9555 1084.7C94.6152 1063.62 95.9555 1040.01 109.926 1023.38C118.989 1012.58 131.441 1005.34 142.922 997.798C154.779 990.002 166.941 982.727 179.231 975.707C179.231 975.707 226.233 949.388 246.756 916.816C246.756 916.816 279.725 863.458 249.884 787.803C249.884 787.803 281.185 819.679 287.312 883.049C290.255 913.452 283.774 944.187 265.719 968.179C256.762 980.076 244.473 992.582 227.602 1004.49C203.427 1020.37 177.976 1034.25 155.148 1052.31C143.695 1061.38 132.888 1071.47 123.832 1083.18C114.861 1094.78 109.202 1108.29 101.154 1120.49" fill="#BB9960"/>
<path d="M188.584 930.494C196.902 928.515 224.495 918.803 242.274 900.566C259.903 882.471 265.974 862.231 268.073 853.556C269.207 846.86 270.54 833.879 266.314 818.531C262.066 803.111 254.28 792.837 249.897 787.803C249.11 796.882 245.224 829.62 219.113 855.393C202.703 871.595 179.663 877.785 170.238 880.278C177.103 895.104 182.031 909.747 188.584 930.494Z" fill="#BB9960"/>
<path d="M0 1037.71C19.4733 1077.14 34.8122 1120.04 34.3725 1164.96C34.2661 1176.01 32.4082 1187.02 29.0255 1197.49C24.0686 1212.82 15.8921 1226.92 5.60938 1238.96C3.80104 1241.08 1.92889 1243.13 0 1245.11V1253.19C7.97085 1248.1 15.7644 1242.67 23.2034 1236.76C39.684 1223.64 54.6045 1207.91 64.4546 1188.66C93.5156 1131.86 71.8865 1072.06 46.1089 1018.96C26.4655 978.493 -12.6796 925.365 7.66591 877.683C28.288 829.336 91.9768 821.238 129.576 851.523C159.928 875.973 174.678 916.262 181.862 955.665C182.386 955.634 182.854 955.523 183.273 955.341C186.826 953.781 186.726 947.172 185.351 942.739C169.87 893.047 152.084 839.974 111.535 809.539C90.3032 793.606 63.6391 785.342 37.663 788.105C24.4728 789.49 11.545 793.819 0 800.635V1037.71Z" fill="#BB9960"/>
</g>
</g>
<g opacity="0.5" clip-path="url(#clip1_284_13823)">
<g opacity="0.2">
<path d="M0 131.526C2.04944 133.259 4.12016 134.969 6.21925 136.639C29.0468 154.702 54.4982 168.578 78.6731 184.464C95.5509 196.369 107.84 208.875 116.79 220.772C134.845 244.763 141.327 275.499 138.384 305.902C132.256 369.272 100.955 401.147 100.955 401.147C130.789 325.492 97.8272 272.135 97.8272 272.135C77.3115 239.563 30.302 213.244 30.302 213.244C20.0831 207.395 9.94937 201.363 0 195.007V131.526Z" fill="#BB9960"/>
<path d="M39.6553 258.457C47.9736 260.436 75.5666 270.148 93.345 288.385C110.975 306.48 117.045 326.719 119.144 335.394C120.279 342.091 121.612 355.072 117.385 370.42C113.137 385.839 105.351 396.113 100.968 401.148C100.181 392.069 96.2951 359.331 70.1842 333.558C53.7745 317.355 30.7342 311.166 21.3096 308.672C28.1741 293.847 33.1027 279.203 39.6553 258.457Z" fill="#BB9960"/>
<path d="M0 317.197C17.672 293.585 27.4796 263.19 32.9329 233.294C33.4577 233.326 33.9257 233.436 34.3441 233.619C37.897 235.178 37.7977 241.787 36.4219 246.22C26.8059 277.082 16.2963 309.25 0.0070915 336.487V317.197H0Z" fill="#BB9960"/>
<path d="M101.154 -267.995C98.2956 -256.343 96.7142 -244.185 95.9555 -232.201C94.6152 -211.123 95.9555 -187.511 109.926 -170.881C118.989 -160.084 131.441 -152.842 142.922 -145.298C154.779 -137.502 166.941 -130.227 179.231 -123.207C179.231 -123.207 226.233 -96.8878 246.756 -64.3161C246.756 -64.3161 279.725 -10.9585 249.884 64.6967C249.884 64.6967 281.185 32.8214 287.312 -30.5491C290.255 -60.9521 283.774 -91.6875 265.719 -115.679C256.762 -127.576 244.473 -140.082 227.602 -151.987C203.427 -167.873 177.976 -181.749 155.148 -199.812C143.695 -208.883 132.888 -218.975 123.832 -230.682C114.861 -242.278 109.202 -255.789 101.154 -267.987" fill="#BB9960"/>
<path d="M188.584 -77.9941C196.902 -76.0153 224.495 -66.3031 242.274 -48.0661C259.903 -29.9715 265.974 -9.7319 268.073 -1.05664C269.207 5.63977 270.54 18.621 266.314 33.9689C262.066 49.3881 254.28 59.6622 249.897 64.6964C249.11 55.6175 245.224 22.8795 219.113 -2.89301C202.703 -19.0958 179.663 -25.2856 170.238 -27.779C177.103 -42.6045 182.031 -57.2479 188.584 -77.9941Z" fill="#BB9960"/>
<path d="M0 -185.208C19.4733 -224.643 34.8122 -267.536 34.3725 -312.456C34.2661 -323.514 32.4082 -334.516 29.0255 -344.988C24.0686 -360.32 15.8921 -374.417 5.60938 -386.465C3.80104 -388.578 1.92889 -390.628 0 -392.615V-400.688C7.97085 -395.599 15.7644 -390.169 23.2034 -384.256C39.684 -371.14 54.6045 -355.413 64.4546 -336.162C93.5156 -279.362 71.8865 -219.561 46.1089 -166.457C26.4655 -125.993 -12.6796 -72.8651 7.66591 -25.1829C28.288 23.1643 91.9768 31.2617 129.576 0.977478C159.928 -23.4731 174.678 -63.7624 181.862 -103.165C182.386 -103.134 182.854 -103.023 183.273 -102.841C186.826 -101.281 186.726 -94.672 185.351 -90.2393C169.87 -40.5466 152.084 12.526 111.535 42.9607C90.3032 58.8943 63.6391 67.1579 37.663 64.3955C24.4728 63.0103 11.545 58.6806 0 51.8654V-185.208Z" fill="#BB9960"/>
</g>
</g>
<g opacity="0.5" clip-path="url(#clip2_284_13823)">
<g opacity="0.2">
<path d="M101.154 672.505C98.2956 684.157 96.7142 696.315 95.9555 708.299C94.6152 729.377 95.9555 752.989 109.926 769.619C118.989 780.416 131.441 787.658 142.922 795.202C154.779 802.998 166.941 810.273 179.231 817.293C179.231 817.293 226.233 843.612 246.756 876.184C246.756 876.184 279.725 929.542 249.884 1005.2C249.884 1005.2 281.185 973.321 287.312 909.951C290.255 879.548 283.774 848.813 265.719 824.821C256.762 812.924 244.473 800.418 227.602 788.513C203.427 772.627 177.976 758.751 155.148 740.688C143.695 731.617 132.888 721.525 123.832 709.818C114.861 698.222 109.202 684.711 101.154 672.513" fill="#BB9960"/>
<path d="M188.584 862.506C196.902 864.485 224.495 874.197 242.274 892.434C259.903 910.528 265.974 930.768 268.073 939.443C269.207 946.14 270.54 959.121 266.314 974.469C262.066 989.888 254.28 1000.16 249.897 1005.2C249.11 996.117 245.224 963.379 219.113 937.607C202.703 921.404 179.663 915.214 170.238 912.721C177.103 897.896 182.031 883.252 188.584 862.506Z" fill="#BB9960"/>
<path d="M0 755.292C19.4733 715.857 34.8122 672.964 34.3725 628.044C34.2661 616.986 32.4082 605.984 29.0255 595.512C24.0686 580.18 15.8921 566.083 5.60938 554.035C3.80104 551.922 1.92889 549.872 0 547.885V539.812C7.97085 544.901 15.7644 550.331 23.2034 556.244C39.684 569.36 54.6045 585.087 64.4546 604.338C93.5156 661.138 71.8865 720.939 46.1089 774.043C26.4655 814.507 -12.6796 867.635 7.66591 915.317C28.288 963.664 91.9768 971.762 129.576 941.477C159.928 917.027 174.678 876.738 181.862 837.335C182.386 837.366 182.854 837.477 183.273 837.659C186.826 839.219 186.726 845.828 185.351 850.261C169.87 899.953 152.084 953.026 111.535 983.461C90.3032 999.394 63.6391 1007.66 37.663 1004.9C24.4728 1003.51 11.545 999.181 0 992.365V755.292Z" fill="#BB9960"/>
</g>
</g>
<defs>
<clipPath id="clip0_284_13823">
<rect width="288" height="459.738" fill="white" transform="matrix(1 0 0 -1 0 896.5)"/>
</clipPath>
<clipPath id="clip1_284_13823">
<rect width="288" height="459.738" fill="white" transform="translate(0 -44)"/>
</clipPath>
<clipPath id="clip2_284_13823">
<rect width="288" height="459.738" fill="white" transform="translate(0 896.5)"/>
</clipPath>
</defs>
</svg>
