<svg width="288" height="1072" viewBox="0 0 288 1072" fill="none" xmlns="http://www.w3.org/2000/svg">
<g opacity="0.5" clip-path="url(#clip0_284_13940)">
<g opacity="0.2">
<path d="M288 720.974C285.951 719.241 283.88 717.531 281.781 715.861C258.953 697.798 233.502 683.922 209.327 668.036C192.449 656.131 180.16 643.625 171.21 631.728C153.155 607.737 146.673 577.001 149.616 546.598C155.744 483.228 187.045 451.353 187.045 451.353C157.211 527.008 190.173 580.365 190.173 580.365C210.688 612.937 257.698 639.256 257.698 639.256C267.917 645.105 278.051 651.137 288 657.493V720.974Z" fill="#BB9960"/>
<path d="M248.345 594.043C240.026 592.064 212.433 582.352 194.655 564.115C177.025 546.02 170.955 525.781 168.856 517.106C167.721 510.409 166.388 497.428 170.615 482.08C174.863 466.661 182.649 456.387 187.032 451.352C187.819 460.431 191.705 493.169 217.816 518.942C234.226 535.145 257.266 541.334 266.69 543.828C259.826 558.653 254.897 573.297 248.345 594.043Z" fill="#BB9960"/>
<path d="M288 535.303C270.328 558.915 260.52 589.31 255.067 619.206C254.542 619.174 254.074 619.064 253.656 618.881C250.103 617.322 250.202 610.713 251.578 606.28C261.194 575.418 271.704 543.25 287.993 516.013V535.303H288Z" fill="#BB9960"/>
<path d="M186.846 1120.49C189.704 1108.84 191.286 1096.69 192.045 1084.7C193.385 1063.62 192.045 1040.01 178.074 1023.38C169.011 1012.58 156.559 1005.34 145.078 997.798C133.221 990.002 121.059 982.727 108.769 975.707C108.769 975.707 61.7666 949.388 41.2438 916.816C41.2438 916.816 8.27542 863.458 38.1165 787.803C38.1165 787.803 6.81458 819.679 0.687531 883.049C-2.25545 913.452 4.22617 944.187 22.2811 968.179C31.2377 980.076 43.5273 992.582 60.3979 1004.49C84.5729 1020.37 110.024 1034.25 132.852 1052.31C144.305 1061.38 155.112 1071.47 164.168 1083.18C173.139 1094.78 178.798 1108.29 186.846 1120.49" fill="#BB9960"/>
<path d="M99.416 930.494C91.0977 928.515 63.5046 918.803 45.7262 900.566C28.0968 882.471 22.0265 862.231 19.9274 853.556C18.7927 846.86 17.4595 833.879 21.6861 818.531C25.9339 803.111 33.7203 792.837 38.1029 787.803C38.89 796.882 42.7762 829.62 68.8871 855.393C85.2968 871.595 108.337 877.785 117.762 880.278C110.897 895.104 105.969 909.747 99.416 930.494Z" fill="#BB9960"/>
<path d="M288 1037.71C268.527 1077.14 253.188 1120.04 253.627 1164.96C253.734 1176.01 255.592 1187.02 258.974 1197.49C263.931 1212.82 272.108 1226.92 282.391 1238.96C284.199 1241.08 286.071 1243.13 288 1245.11V1253.19C280.029 1248.1 272.236 1242.67 264.797 1236.76C248.316 1223.64 233.395 1207.91 223.545 1188.66C194.484 1131.86 216.113 1072.06 241.891 1018.96C261.535 978.493 300.68 925.365 280.334 877.683C259.712 829.336 196.023 821.238 158.424 851.523C128.072 875.973 113.322 916.262 106.138 955.665C105.614 955.634 105.146 955.523 104.727 955.341C101.174 953.781 101.274 947.172 102.649 942.739C118.13 893.047 135.916 839.974 176.465 809.539C197.697 793.606 224.361 785.342 250.337 788.105C263.527 789.49 276.455 793.819 288 800.635V1037.71Z" fill="#BB9960"/>
</g>
</g>
<g opacity="0.5" clip-path="url(#clip1_284_13940)">
<g opacity="0.2">
<path d="M288 131.526C285.951 133.259 283.88 134.969 281.781 136.639C258.953 154.702 233.502 168.578 209.327 184.464C192.449 196.369 180.16 208.875 171.21 220.772C153.155 244.763 146.673 275.499 149.616 305.902C155.744 369.272 187.045 401.147 187.045 401.147C157.211 325.492 190.173 272.135 190.173 272.135C210.688 239.563 257.698 213.244 257.698 213.244C267.917 207.395 278.051 201.363 288 195.007V131.526Z" fill="#BB9960"/>
<path d="M248.345 258.457C240.026 260.436 212.433 270.148 194.655 288.385C177.025 306.48 170.955 326.719 168.856 335.394C167.721 342.091 166.388 355.072 170.615 370.42C174.863 385.839 182.649 396.113 187.032 401.148C187.819 392.069 191.705 359.331 217.816 333.558C234.226 317.355 257.266 311.166 266.69 308.672C259.826 293.847 254.897 279.203 248.345 258.457Z" fill="#BB9960"/>
<path d="M288 317.197C270.328 293.585 260.52 263.19 255.067 233.294C254.542 233.326 254.074 233.436 253.656 233.619C250.103 235.178 250.202 241.787 251.578 246.22C261.194 277.082 271.704 309.25 287.993 336.487V317.197H288Z" fill="#BB9960"/>
<path d="M186.846 -267.995C189.704 -256.343 191.286 -244.185 192.045 -232.201C193.385 -211.123 192.045 -187.511 178.074 -170.881C169.011 -160.084 156.559 -152.842 145.078 -145.298C133.221 -137.502 121.059 -130.227 108.769 -123.207C108.769 -123.207 61.7666 -96.8878 41.2438 -64.3161C41.2438 -64.3161 8.27542 -10.9585 38.1165 64.6967C38.1165 64.6967 6.81458 32.8214 0.687531 -30.5491C-2.25545 -60.9521 4.22617 -91.6875 22.2811 -115.679C31.2377 -127.576 43.5273 -140.082 60.3979 -151.987C84.5729 -167.873 110.024 -181.749 132.852 -199.812C144.305 -208.883 155.112 -218.975 164.168 -230.682C173.139 -242.278 178.798 -255.789 186.846 -267.987" fill="#BB9960"/>
<path d="M99.416 -77.9941C91.0977 -76.0153 63.5046 -66.3031 45.7262 -48.0661C28.0968 -29.9715 22.0265 -9.7319 19.9274 -1.05664C18.7927 5.63977 17.4595 18.621 21.6861 33.9689C25.9339 49.3881 33.7203 59.6622 38.1029 64.6964C38.89 55.6175 42.7762 22.8795 68.8871 -2.89301C85.2968 -19.0958 108.337 -25.2856 117.762 -27.779C110.897 -42.6045 105.969 -57.2479 99.416 -77.9941Z" fill="#BB9960"/>
<path d="M288 -185.208C268.527 -224.643 253.188 -267.536 253.627 -312.456C253.734 -323.514 255.592 -334.516 258.974 -344.988C263.931 -360.32 272.108 -374.417 282.391 -386.465C284.199 -388.578 286.071 -390.628 288 -392.615V-400.688C280.029 -395.599 272.236 -390.169 264.797 -384.256C248.316 -371.14 233.395 -355.413 223.545 -336.162C194.484 -279.362 216.113 -219.561 241.891 -166.457C261.535 -125.993 300.68 -72.8651 280.334 -25.1829C259.712 23.1643 196.023 31.2617 158.424 0.977478C128.072 -23.4731 113.322 -63.7624 106.138 -103.165C105.614 -103.134 105.146 -103.023 104.727 -102.841C101.174 -101.281 101.274 -94.672 102.649 -90.2393C118.13 -40.5466 135.916 12.526 176.465 42.9607C197.697 58.8943 224.361 67.1579 250.337 64.3955C263.527 63.0103 276.455 58.6806 288 51.8654V-185.208Z" fill="#BB9960"/>
</g>
</g>
<g opacity="0.5" clip-path="url(#clip2_284_13940)">
<g opacity="0.2">
<path d="M186.846 672.505C189.704 684.157 191.286 696.315 192.045 708.299C193.385 729.377 192.045 752.989 178.074 769.619C169.011 780.416 156.559 787.658 145.078 795.202C133.221 802.998 121.059 810.273 108.769 817.293C108.769 817.293 61.7666 843.612 41.2438 876.184C41.2438 876.184 8.27542 929.542 38.1165 1005.2C38.1165 1005.2 6.81458 973.321 0.687531 909.951C-2.25545 879.548 4.22617 848.813 22.2811 824.821C31.2377 812.924 43.5273 800.418 60.3979 788.513C84.5729 772.627 110.024 758.751 132.852 740.688C144.305 731.617 155.112 721.525 164.168 709.818C173.139 698.222 178.798 684.711 186.846 672.513" fill="#BB9960"/>
<path d="M99.416 862.506C91.0977 864.485 63.5046 874.197 45.7262 892.434C28.0968 910.528 22.0265 930.768 19.9274 939.443C18.7927 946.14 17.4595 959.121 21.6861 974.469C25.9339 989.888 33.7203 1000.16 38.1029 1005.2C38.89 996.117 42.7762 963.379 68.8871 937.607C85.2968 921.404 108.337 915.214 117.762 912.721C110.897 897.896 105.969 883.252 99.416 862.506Z" fill="#BB9960"/>
<path d="M288 755.292C268.527 715.857 253.188 672.964 253.627 628.044C253.734 616.986 255.592 605.984 258.974 595.512C263.931 580.18 272.108 566.083 282.391 554.035C284.199 551.922 286.071 549.872 288 547.885V539.812C280.029 544.901 272.236 550.331 264.797 556.244C248.316 569.36 233.395 585.087 223.545 604.338C194.484 661.138 216.113 720.939 241.891 774.043C261.535 814.507 300.68 867.635 280.334 915.317C259.712 963.664 196.023 971.762 158.424 941.477C128.072 917.027 113.322 876.738 106.138 837.335C105.614 837.366 105.146 837.477 104.727 837.659C101.174 839.219 101.274 845.828 102.649 850.261C118.13 899.953 135.916 953.026 176.465 983.461C197.697 999.394 224.361 1007.66 250.337 1004.9C263.527 1003.51 276.455 999.181 288 992.365V755.292Z" fill="#BB9960"/>
</g>
</g>
<defs>
<clipPath id="clip0_284_13940">
<rect width="288" height="459.738" fill="white" transform="matrix(-1 0 0 -1 288 896.5)"/>
</clipPath>
<clipPath id="clip1_284_13940">
<rect width="288" height="459.738" fill="white" transform="matrix(-1 0 0 1 288 -44)"/>
</clipPath>
<clipPath id="clip2_284_13940">
<rect width="288" height="459.738" fill="white" transform="matrix(-1 0 0 1 288 896.5)"/>
</clipPath>
</defs>
</svg>
