<svg width="83" height="83" viewBox="0 0 83 83" fill="none" xmlns="http://www.w3.org/2000/svg">
<path d="M41.49 6.91504C60.5858 6.91504 76.065 22.3943 76.065 41.49C76.065 60.5858 60.5858 76.065 41.49 76.065C22.3943 76.065 6.91504 60.5858 6.91504 41.49C6.91504 22.3943 22.3943 6.91504 41.49 6.91504ZM41.49 13.83C34.1542 13.83 27.1187 16.7442 21.9315 21.9315C16.7442 27.1187 13.83 34.1542 13.83 41.49C13.83 48.8259 16.7442 55.8614 21.9315 61.0486C27.1187 66.2359 34.1542 69.15 41.49 69.15C48.8259 69.15 55.8614 66.2359 61.0486 61.0486C66.2359 55.8614 69.15 48.8259 69.15 41.49C69.15 34.1542 66.2359 27.1187 61.0486 21.9315C55.8614 16.7442 48.8259 13.83 41.49 13.83ZM41.49 55.32C42.407 55.32 43.2865 55.6843 43.9349 56.3327C44.5833 56.9811 44.9475 57.8606 44.9475 58.7775C44.9475 59.6945 44.5833 60.574 43.9349 61.2224C43.2865 61.8708 42.407 62.235 41.49 62.235C40.5731 62.235 39.6936 61.8708 39.0452 61.2224C38.3968 60.574 38.0325 59.6945 38.0325 58.7775C38.0325 57.8606 38.3968 56.9811 39.0452 56.3327C39.6936 55.6843 40.5731 55.32 41.49 55.32ZM41.49 22.4738C44.4022 22.4739 47.2235 23.4881 49.4692 25.3421C51.7149 27.1962 53.2449 29.7744 53.7963 32.6339C54.3478 35.4934 53.8863 38.4557 52.4911 41.0119C51.0959 43.5681 48.8541 45.5587 46.1507 46.6417C45.7503 46.7889 45.3894 47.0268 45.0962 47.3367C44.9441 47.5095 44.9199 47.7308 44.9233 47.959L44.9475 48.405C44.9466 49.2863 44.6091 50.1339 44.0042 50.7747C43.3992 51.4155 42.5724 51.8011 41.6927 51.8528C40.8129 51.9044 39.9467 51.6182 39.2709 51.0526C38.5951 50.487 38.1608 49.6846 38.0567 48.8096L38.0325 48.405V47.5407C38.0325 43.5542 41.248 41.1616 43.5784 40.2246C44.5268 39.8459 45.3542 39.2159 45.9716 38.4024C46.589 37.589 46.9732 36.6227 47.0829 35.6073C47.1926 34.5919 47.0236 33.5659 46.5941 32.6393C46.1646 31.7128 45.4908 30.9207 44.6451 30.3482C43.7994 29.7756 42.8138 29.4443 41.794 29.3897C40.7742 29.3351 39.7588 29.5594 38.8568 30.0384C37.9548 30.5173 37.2003 31.233 36.6744 32.1084C36.1485 32.9838 35.8709 33.986 35.8716 35.0072C35.8716 35.9242 35.5073 36.8036 34.8589 37.452C34.2105 38.1005 33.3311 38.4647 32.4141 38.4647C31.4971 38.4647 30.6177 38.1005 29.9693 37.452C29.3209 36.8036 28.9566 35.9242 28.9566 35.0072C28.9566 31.6832 30.2771 28.4952 32.6276 26.1447C34.978 23.7943 38.166 22.4738 41.49 22.4738Z" fill="#BB9960"/>
</svg>
