<svg width="83" height="83" viewBox="0 0 83 83" fill="none" xmlns="http://www.w3.org/2000/svg">
<path fill-rule="evenodd" clip-rule="evenodd" d="M36.4561 12.5171L36.4436 12.5296L36.4165 12.042L36.3999 11.7128C36.3248 10.3374 36.2081 8.25355 35.3621 6.6073C34.877 5.62067 34.0851 4.81786 33.1053 4.31922C32.0321 3.78576 30.8068 3.66489 29.4981 3.8441C28.3374 4.00456 27.3101 4.46926 26.4974 5.25696C25.7013 6.02799 25.2262 6.9949 24.9678 7.98265C24.4614 9.89563 24.6761 12.1837 25.197 14.3863C26.2536 18.8375 28.8188 23.9721 31.7049 27.4646C32.8156 28.8087 33.1553 30.8342 33.1553 31.7074V36.3002L37.323 37.3421V34.6019C39.1631 33.9183 40.405 33.6058 41.5699 33.5808C42.6994 33.5599 43.9038 33.8058 45.6584 34.531V37.3421L49.8262 36.3002V31.7074C49.8262 30.8342 50.1679 28.8108 51.2765 27.4646C54.1418 23.995 56.8363 18.8833 58.0282 14.4447C58.6159 12.2546 58.9097 9.96856 58.4679 8.04725C58.2408 7.05533 57.7948 6.06966 57.0051 5.27988C56.1986 4.47551 55.165 4.00456 54.0043 3.8441C52.6956 3.66489 51.4682 3.78576 50.3971 4.31922C49.3135 4.86103 48.5988 5.71124 48.1382 6.6073C47.2922 8.25355 47.1776 10.3374 47.1026 11.7128L47.0838 12.042L47.0567 12.5296L47.0442 12.5171C46.0502 11.6315 44.7332 11.3293 43.8455 11.2001C43.2377 11.1165 42.6252 11.0712 42.0117 11.0647H41.4907C40.8772 11.0712 40.2647 11.1185 39.6569 11.2022C38.7671 11.3314 37.4522 11.6336 36.4561 12.5192M39.2277 15.6325L39.2902 15.5929L39.4069 15.5387V24.839H43.5746V15.3824C43.7385 15.4172 43.8802 15.4561 43.9997 15.4991C44.095 15.5333 44.1865 15.5773 44.2727 15.6304C45.1542 16.416 46.0502 17.0787 46.9484 17.3808C47.4318 17.5413 48.0465 17.6434 48.7071 17.4809C49.3332 17.3264 49.8871 16.9615 50.2763 16.4473C50.8702 15.6763 51.0306 14.6927 51.1057 14.1009C51.1807 13.5174 51.2161 12.8464 51.2474 12.2358L51.264 11.9399C51.3474 10.3853 51.4766 9.23088 51.8475 8.51195C51.9934 8.22437 52.1309 8.11185 52.2518 8.0535C52.3851 7.98473 52.7186 7.87429 53.4354 7.97223C53.8105 8.02432 53.973 8.1431 54.0606 8.22854C54.1627 8.33274 54.3065 8.5432 54.4065 8.97873C54.6211 9.91647 54.5253 11.4168 54.0022 13.3653C52.9728 17.2058 50.5638 21.784 48.0632 24.8119C46.667 26.4998 46.0398 28.5733 45.7939 30.132C44.306 29.636 42.9223 29.386 41.4845 29.4151C40.0675 29.4443 38.6838 29.7465 37.2021 30.2278C36.9667 28.6587 36.3415 26.5352 34.9182 24.8098C32.4385 21.809 30.1608 17.2516 29.2543 13.4257C28.7959 11.4877 28.7479 9.98732 28.998 9.04541C29.1147 8.60364 29.271 8.37233 29.396 8.25146C29.5065 8.14727 29.6878 8.02432 30.067 7.97223C30.7818 7.87429 31.1152 7.98473 31.2486 8.05141C31.3694 8.11185 31.507 8.22437 31.6549 8.51195C32.0258 9.23088 32.155 10.3853 32.2384 11.9399L32.2551 12.2358C32.2863 12.8464 32.3218 13.5174 32.3947 14.1009C32.4718 14.6927 32.6302 15.6763 33.2241 16.4473C33.5762 16.9057 34.0951 17.31 34.7932 17.4809C35.4559 17.6434 36.0706 17.5413 36.552 17.3788C37.4522 17.0787 38.3462 16.416 39.2297 15.6283M41.4907 79.0193C43.7014 79.0193 45.8216 78.1411 47.3848 76.5779C48.948 75.0147 49.8262 72.8946 49.8262 70.6839V66.1681L45.6584 61.6545V65.0887C43.8184 65.7722 42.5764 66.0848 41.4115 66.1098C40.2821 66.1306 39.0776 65.8847 37.323 65.1596V61.6545L33.1553 66.1681V70.6839C33.1553 72.8946 34.0335 75.0147 35.5967 76.5779C37.1599 78.1411 39.28 79.0193 41.4907 79.0193ZM41.4907 74.8516C40.3854 74.8516 39.3253 74.4125 38.5437 73.6309C37.7621 72.8493 37.323 71.7892 37.323 70.6839V69.6023C38.7609 70.0691 40.105 70.3046 41.497 70.2754C42.8765 70.2463 44.2227 69.9608 45.6584 69.5023V70.6839C45.6584 71.7892 45.2193 72.8493 44.4377 73.6309C43.6562 74.4125 42.5961 74.8516 41.4907 74.8516Z" fill="#BB9960"/>
<path d="M14.3983 31.0906C14.951 31.0906 15.481 30.871 15.8718 30.4802C16.2626 30.0894 16.4822 29.5594 16.4822 29.0067C16.4822 28.454 16.2626 27.924 15.8718 27.5332C15.481 27.1424 14.951 26.9229 14.3983 26.9229C13.8456 26.9229 13.3156 27.1424 12.9248 27.5332C12.534 27.924 12.3145 28.454 12.3145 29.0067C12.3145 29.5594 12.534 30.0894 12.9248 30.4802C13.3156 30.871 13.8456 31.0906 14.3983 31.0906ZM20.6499 37.3421C20.6499 37.8948 20.4303 38.4249 20.0395 38.8157C19.6487 39.2065 19.1187 39.426 18.566 39.426C18.0134 39.426 17.4833 39.2065 17.0925 38.8157C16.7017 38.4249 16.4822 37.8948 16.4822 37.3421C16.4822 36.7895 16.7017 36.2594 17.0925 35.8686C17.4833 35.4778 18.0134 35.2583 18.566 35.2583C19.1187 35.2583 19.6487 35.4778 20.0395 35.8686C20.4303 36.2594 20.6499 36.7895 20.6499 37.3421ZM14.3983 47.7614C14.951 47.7614 15.481 47.5419 15.8718 47.1511C16.2626 46.7603 16.4822 46.2303 16.4822 45.6776C16.4822 45.1249 16.2626 44.5949 15.8718 44.2041C15.481 43.8133 14.951 43.5937 14.3983 43.5937C13.8456 43.5937 13.3156 43.8133 12.9248 44.2041C12.534 44.5949 12.3145 45.1249 12.3145 45.6776C12.3145 46.2303 12.534 46.7603 12.9248 47.1511C13.3156 47.5419 13.8456 47.7614 14.3983 47.7614ZM26.9015 56.0969C26.9015 56.6495 26.6819 57.1796 26.2911 57.5704C25.9003 57.9612 25.3703 58.1807 24.8176 58.1807C24.2649 58.1807 23.7349 57.9612 23.3441 57.5704C22.9533 57.1796 22.7337 56.6495 22.7337 56.0969C22.7337 55.5442 22.9533 55.0142 23.3441 54.6234C23.7349 54.2326 24.2649 54.013 24.8176 54.013C25.3703 54.013 25.9003 54.2326 26.2911 54.6234C26.6819 55.0142 26.9015 55.5442 26.9015 56.0969ZM16.4822 58.1807C17.0348 58.1807 17.5649 57.9612 17.9557 57.5704C18.3465 57.1796 18.566 56.6495 18.566 56.0969C18.566 55.5442 18.3465 55.0142 17.9557 54.6234C17.5649 54.2326 17.0348 54.013 16.4822 54.013C15.9295 54.013 15.3995 54.2326 15.0087 54.6234C14.6179 55.0142 14.3983 55.5442 14.3983 56.0969C14.3983 56.6495 14.6179 57.1796 15.0087 57.5704C15.3995 57.9612 15.9295 58.1807 16.4822 58.1807ZM26.9015 47.7614C26.9015 48.3141 26.6819 48.8442 26.2911 49.235C25.9003 49.6257 25.3703 49.8453 24.8176 49.8453C24.2649 49.8453 23.7349 49.6257 23.3441 49.235C22.9533 48.8442 22.7337 48.3141 22.7337 47.7614C22.7337 47.2088 22.9533 46.6787 23.3441 46.2879C23.7349 45.8971 24.2649 45.6776 24.8176 45.6776C25.3703 45.6776 25.9003 45.8971 26.2911 46.2879C26.6819 46.6787 26.9015 47.2088 26.9015 47.7614ZM33.153 51.9292C33.7057 51.9292 34.2358 51.7096 34.6266 51.3188C35.0174 50.928 35.2369 50.398 35.2369 49.8453C35.2369 49.2926 35.0174 48.7626 34.6266 48.3718C34.2358 47.981 33.7057 47.7614 33.153 47.7614C32.6004 47.7614 32.0703 47.981 31.6795 48.3718C31.2887 48.7626 31.0692 49.2926 31.0692 49.8453C31.0692 50.398 31.2887 50.928 31.6795 51.3188C32.0703 51.7096 32.6004 51.9292 33.153 51.9292ZM66.4948 29.0067C66.4948 29.5594 66.7143 30.0894 67.1051 30.4802C67.4959 30.871 68.026 31.0906 68.5786 31.0906C69.1313 31.0906 69.6614 30.871 70.0522 30.4802C70.443 30.0894 70.6625 29.5594 70.6625 29.0067C70.6625 28.454 70.443 27.924 70.0522 27.5332C69.6614 27.1424 69.1313 26.9229 68.5786 26.9229C68.026 26.9229 67.4959 27.1424 67.1051 27.5332C66.7143 27.924 66.4948 28.454 66.4948 29.0067ZM64.4109 39.426C63.8582 39.426 63.3282 39.2065 62.9374 38.8157C62.5466 38.4249 62.3271 37.8948 62.3271 37.3421C62.3271 36.7895 62.5466 36.2594 62.9374 35.8686C63.3282 35.4778 63.8582 35.2583 64.4109 35.2583C64.9636 35.2583 65.4936 35.4778 65.8844 35.8686C66.2752 36.2594 66.4948 36.7895 66.4948 37.3421C66.4948 37.8948 66.2752 38.4249 65.8844 38.8157C65.4936 39.2065 64.9636 39.426 64.4109 39.426ZM66.4948 45.6776C66.4948 46.2303 66.7143 46.7603 67.1051 47.1511C67.4959 47.5419 68.026 47.7614 68.5786 47.7614C69.1313 47.7614 69.6614 47.5419 70.0522 47.1511C70.443 46.7603 70.6625 46.2303 70.6625 45.6776C70.6625 45.1249 70.443 44.5949 70.0522 44.2041C69.6614 43.8133 69.1313 43.5937 68.5786 43.5937C68.026 43.5937 67.4959 43.8133 67.1051 44.2041C66.7143 44.5949 66.4948 45.1249 66.4948 45.6776ZM58.1593 58.1807C57.6067 58.1807 57.0766 57.9612 56.6858 57.5704C56.295 57.1796 56.0755 56.6495 56.0755 56.0969C56.0755 55.5442 56.295 55.0142 56.6858 54.6234C57.0766 54.2326 57.6067 54.013 58.1593 54.013C58.712 54.013 59.2421 54.2326 59.6329 54.6234C60.0237 55.0142 60.2432 55.5442 60.2432 56.0969C60.2432 56.6495 60.0237 57.1796 59.6329 57.5704C59.2421 57.9612 58.712 58.1807 58.1593 58.1807ZM64.4109 56.0969C64.4109 56.6495 64.6305 57.1796 65.0213 57.5704C65.4121 57.9612 65.9421 58.1807 66.4948 58.1807C67.0475 58.1807 67.5775 57.9612 67.9683 57.5704C68.3591 57.1796 68.5786 56.6495 68.5786 56.0969C68.5786 55.5442 68.3591 55.0142 67.9683 54.6234C67.5775 54.2326 67.0475 54.013 66.4948 54.013C65.9421 54.013 65.4121 54.2326 65.0213 54.6234C64.6305 55.0142 64.4109 55.5442 64.4109 56.0969ZM58.1593 49.8453C57.6067 49.8453 57.0766 49.6257 56.6858 49.235C56.295 48.8442 56.0755 48.3141 56.0755 47.7614C56.0755 47.2088 56.295 46.6787 56.6858 46.2879C57.0766 45.8971 57.6067 45.6776 58.1593 45.6776C58.712 45.6776 59.2421 45.8971 59.6329 46.2879C60.0237 46.6787 60.2432 47.2088 60.2432 47.7614C60.2432 48.3141 60.0237 48.8442 59.6329 49.235C59.2421 49.6257 58.712 49.8453 58.1593 49.8453ZM47.7401 49.8453C47.7401 50.398 47.9596 50.928 48.3504 51.3188C48.7412 51.7096 49.2712 51.9292 49.8239 51.9292C50.3766 51.9292 50.9066 51.7096 51.2974 51.3188C51.6882 50.928 51.9078 50.398 51.9078 49.8453C51.9078 49.2926 51.6882 48.7626 51.2974 48.3718C50.9066 47.981 50.3766 47.7614 49.8239 47.7614C49.2712 47.7614 48.7412 47.981 48.3504 48.3718C47.9596 48.7626 47.7401 49.2926 47.7401 49.8453ZM41.4885 51.9292C42.0411 51.9292 42.5712 51.7096 42.962 51.3188C43.3528 50.928 43.5723 50.398 43.5723 49.8453C43.5723 49.2926 43.3528 48.7626 42.962 48.3718C42.5712 47.981 42.0411 47.7614 41.4885 47.7614C40.9358 47.7614 40.4058 47.981 40.015 48.3718C39.6242 48.7626 39.4046 49.2926 39.4046 49.8453C39.4046 50.398 39.6242 50.928 40.015 51.3188C40.4058 51.7096 40.9358 51.9292 41.4885 51.9292Z" fill="#BB9960"/>
<path fill-rule="evenodd" clip-rule="evenodd" d="M60.7156 22.182C61.9763 19.0437 63.6747 16.6764 65.7419 15.3699C67.9195 13.9945 70.3847 13.8987 72.5769 15.1615C74.6441 16.3493 76.232 18.5998 77.2989 21.4568C78.3763 24.3534 78.9994 28.0668 78.9994 32.5117V53.74C78.9994 55.5112 78.6576 59.6081 76.6717 63.3424C74.6087 67.2246 70.7577 70.6838 64.0915 70.6838C60.7677 70.6838 58.2858 69.7461 56.2728 68.2853C54.4703 66.9808 53.0928 65.2804 51.8967 63.805L51.655 63.507C50.3422 61.8941 49.1794 60.5312 47.6602 59.5268C46.2015 58.562 44.3115 57.8681 41.4899 57.8681C38.6684 57.8681 36.7783 58.562 35.3217 59.5268C33.8005 60.5292 32.6377 61.8941 31.3249 63.507L31.0831 63.8071C29.887 65.2804 28.5096 66.9787 26.707 68.2853C24.694 69.744 22.2121 70.6838 18.8884 70.6838C12.2221 70.6838 8.37116 67.2225 6.30814 63.3424C4.32222 59.6081 3.98047 55.5092 3.98047 53.742V32.5117C3.98047 28.0668 4.60354 24.3513 5.6809 21.4589C6.74783 18.5978 8.33573 16.3493 10.4008 15.1615C12.5951 13.8987 15.0603 13.9945 17.2359 15.3699C19.3031 16.6764 21.0035 19.0437 22.2642 22.182C22.5852 22.9801 22.8977 23.8407 23.2249 24.741C24.3064 27.7063 25.5442 31.1072 27.7198 34.1496C30.4163 37.9172 34.4798 40.9638 41.4899 40.9638C48.5 40.9638 52.5635 37.9172 55.2601 34.1496C57.4356 31.1072 58.6734 27.7063 59.7549 24.741C60.0821 23.8407 60.3968 22.9801 60.7156 22.182ZM24.3314 36.5731C27.6948 41.2764 32.9503 45.1315 41.4899 45.1315C50.0296 45.1315 55.2851 41.2764 58.6484 36.5731C61.197 33.0097 62.7078 28.8462 63.7955 25.8454C64.0852 25.0494 64.3436 24.3346 64.5832 23.7345C65.6669 21.04 66.9193 19.5563 67.9674 18.8958C68.9052 18.3039 69.7137 18.3206 70.4993 18.7728C71.4162 19.3 72.5165 20.5608 73.3938 22.9134C74.2565 25.2307 74.8317 28.4315 74.8317 32.5117V53.74C74.8317 55.157 74.5316 58.487 72.9916 61.3877C71.5267 64.1405 68.9677 66.5161 64.0935 66.5161C61.645 66.5161 60.0196 65.8534 58.7172 64.9115C57.3752 63.9384 56.3187 62.638 55.0308 61.0522L54.8891 60.8772C53.5971 59.2872 52.0759 57.4471 49.9566 56.0489C47.779 54.611 45.0804 53.7004 41.4899 53.7004C37.8994 53.7004 35.2008 54.6089 33.0232 56.0489C30.906 57.4471 29.3848 59.2872 28.0907 60.8772L27.949 61.0522C26.6612 62.6359 25.6047 63.9384 24.2606 64.9115C22.9603 65.8534 21.3348 66.5161 18.8884 66.5161C14.0122 66.5161 11.4532 64.1405 9.98823 61.3856C8.44618 58.4891 8.14819 55.1549 8.14819 53.74V32.5117C8.14819 28.4315 8.72333 25.2307 9.58605 22.9134C10.4634 20.5608 11.5657 19.3 12.4805 18.7728C13.2661 18.3206 14.0747 18.3039 15.0124 18.8958C16.0585 19.5563 17.313 21.0421 18.3966 23.7345C18.6362 24.3346 18.8967 25.0473 19.1843 25.8433C20.2721 28.8441 21.7829 33.0097 24.3314 36.5731Z" fill="#BB9960"/>
</svg>
